<svg width="4575" height="1581" viewBox="0 0 4575 1581" fill="none" xmlns="http://www.w3.org/2000/svg">
<g filter="url(#filter0_d_7_15)">
<path d="M0.022262 262.833C-2.7743 -9.70126 258.547 -8.43605 422.976 4.17778C1434.89 20.3205 3578.84 55.5225 4059.35 67.1892C4539.86 78.8559 4586.36 281.079 4549.55 380.732L4363.71 1080.73C4320.61 1240.18 4099.19 1306.67 3993.87 1319.98L622.218 1511.95C348.173 1519.52 191.109 1412.06 146.833 1357.38C62.9412 1329.63 14.0043 616.117 0.022262 262.833Z" fill="#FEF2EA"/>
</g>
<path d="M239.981 325.561C237.479 92.3002 471.293 93.3831 618.414 104.179C1523.81 117.996 3442.09 148.125 3872.02 158.111C4301.96 168.096 4343.57 341.178 4310.63 426.471L4144.35 1025.6C4105.79 1162.07 3907.67 1218.98 3813.44 1230.37L796.685 1394.67C551.485 1401.15 410.954 1309.18 371.338 1262.38C296.277 1238.63 252.491 627.936 239.981 325.561Z" fill="#FDD868"/>
<path d="M485.314 1509.83L353.75 1222.39C440.211 1317.52 643.644 1296.5 714.807 1300.49C1417.03 1263.31 2917.72 1234.02 3442.24 1213.71C4097.89 1188.32 3950.81 1094.16 4047.55 968.067C4124.93 867.194 4293.86 553.189 4318.94 368.902L4508.45 547.151L4431.07 830.938C4340.51 1145.93 4399.79 1190.5 4047.55 1315.58C4047.55 1315.58 568.231 1538.11 485.314 1509.83Z" fill="#F4BF9A"/>
<g filter="url(#filter1_i_7_15)">
<path d="M239.981 380.302C237.479 165.792 471.293 166.788 618.414 176.716C1523.81 189.422 3442.09 217.129 3872.02 226.312C4301.96 235.495 4343.57 394.663 4310.63 473.099L4144.35 1024.07C4105.79 1149.56 3907.67 1201.9 3813.44 1212.38L796.685 1363.47C551.485 1369.43 410.954 1284.85 371.338 1241.82C296.277 1219.97 252.491 658.37 239.981 380.302Z" fill="url(#paint0_linear_7_15)"/>
</g>
<path d="M466.53 733.388H270.391V789.056H477.602L600.98 682.002L466.53 733.388Z" fill="#FB5F09"/>
<path d="M476.677 789.464L295.57 788.834L298.051 806.636L490.27 807.097L597.747 685.859L476.677 789.464Z" fill="#FFF0C6"/>
<ellipse cx="822.787" cy="179.525" rx="91.6231" ry="36.8002" fill="white"/>
<ellipse cx="646.426" cy="179.524" rx="34.6446" ry="13.9149" fill="white"/>
<path d="M2364.89 310.533C2382.42 275.785 2433.45 198.154 2497.31 165.609C2497 194.142 2470.08 263.073 2364.89 310.533Z" fill="#F76409"/>
<path d="M2365.71 310.377C2427.09 284.753 2489.12 189.914 2496.19 180.338C2498.49 219.142 2419.22 291.27 2365.71 310.377Z" fill="#FFF4C1"/>
<path d="M1487.09 399.695L1130.9 416.93V420.122L1106 965.258L1308.99 952.492L1300.05 800.568L1416.23 793.547L1411.12 709.925L1294.31 724.607L1289.84 580.343L1489 588.642L1487.09 399.695ZM1739.87 399.695L1536.88 437.357V440.548L1541.98 965.258L1688.8 960.152L1739.87 399.695ZM2054.74 399.695L2066.23 714.393L1928.35 400.972L1794.3 415.015L1793.66 418.207L1768.77 965.258L1974.31 951.215L1936.65 661.412L2080.91 967.173L2191.35 958.237L2250.71 410.547L2054.74 399.695ZM2502.12 399.695L2299.13 437.357V440.548L2304.24 965.258L2451.06 960.152L2502.12 399.695ZM2735.41 384.375C2710.51 384.375 2684.34 388.205 2658.81 397.142C2565.61 432.888 2525.39 540.128 2567.52 628.218C2594.33 681.2 2650.51 714.393 2697.11 739.927C2720.09 753.332 2741.15 764.183 2754.56 774.397C2760.94 779.503 2766.05 784.61 2767.96 789.078C2770.51 793.547 2771.15 797.377 2768.6 802.483C2767.32 806.313 2764.13 808.867 2760.3 810.143C2756.47 812.058 2751.36 812.697 2744.98 812.697C2732.85 812.058 2716.89 807.59 2700.3 799.93C2667.74 785.248 2631.36 760.353 2612.85 738.012L2609.02 733.543L2531.78 918.66L2533.69 920.575C2533.69 920.575 2616.04 987.6 2743.7 979.94C2798.6 976.748 2847.11 955.045 2879.67 921.213C2912.86 887.382 2929.46 840.783 2919.88 788.44C2909.03 730.352 2847.75 693.328 2794.77 662.05C2767.96 646.092 2742.43 632.048 2726.47 618.005C2718.17 610.983 2711.79 604.6 2709.23 597.578C2706.04 591.195 2706.04 585.45 2708.6 578.428C2711.15 572.683 2714.34 570.13 2718.81 568.215C2723.28 566.938 2729.02 566.3 2735.41 567.577C2748.81 570.13 2765.41 577.79 2781.37 586.727C2813.28 605.238 2843.28 630.133 2843.28 630.133L2847.75 633.325L2849.03 628.218L2901.37 446.932L2899.46 445.017C2882.86 428.42 2848.39 407.355 2804.98 395.227C2783.92 388.843 2759.66 385.013 2735.41 384.375ZM3152.51 399.695L2951.43 418.207V421.398L2968.03 953.13L3101.44 965.897L3118.04 762.268L3235.49 750.14L3233.57 965.258L3372.09 958.237L3425.71 399.695L3235.49 416.292V618.643L3133.36 619.92L3152.51 399.695Z" fill="white"/>
<path d="M1487.08 399.695L1505.08 399.513L1504.89 380.812L1486.22 381.716L1487.08 399.695ZM1130.9 416.93L1130.03 398.951L1112.9 399.78V416.93H1130.9ZM1130.9 420.122L1148.88 420.943L1148.9 420.532V420.122H1130.9ZM1106 965.258L1088.02 964.437L1087.1 984.482L1107.13 983.223L1106 965.258ZM1308.99 952.492L1310.12 970.456L1328.01 969.331L1326.96 951.435L1308.99 952.492ZM1300.05 800.568L1298.97 782.601L1281.03 783.685L1282.08 801.625L1300.05 800.568ZM1416.23 793.547L1417.32 811.514L1435.29 810.427L1434.2 792.449L1416.23 793.547ZM1411.12 709.925L1429.09 708.828L1427.92 689.672L1408.88 692.065L1411.12 709.925ZM1294.31 724.607L1276.32 725.164L1276.93 744.933L1296.55 742.466L1294.31 724.607ZM1289.84 580.343L1290.59 562.359L1271.25 561.553L1271.85 580.901L1289.84 580.343ZM1489 588.642L1488.25 606.626L1507.19 607.415L1507 588.459L1489 588.642ZM1486.22 381.716L1130.03 398.951L1131.76 434.909L1487.95 417.674L1486.22 381.716ZM1112.9 416.93V420.122H1148.9V416.93H1112.9ZM1112.91 419.3L1088.02 964.437L1123.98 966.079L1148.88 420.943L1112.91 419.3ZM1107.13 983.223L1310.12 970.456L1307.86 934.527L1104.87 947.294L1107.13 983.223ZM1326.96 951.435L1318.02 799.511L1282.08 801.625L1291.02 953.549L1326.96 951.435ZM1301.14 818.536L1417.32 811.514L1415.14 775.579L1298.97 782.601L1301.14 818.536ZM1434.2 792.449L1429.09 708.828L1393.16 711.022L1398.26 794.644L1434.2 792.449ZM1408.88 692.065L1292.06 706.747L1296.55 742.466L1413.37 727.784L1408.88 692.065ZM1312.3 724.049L1307.83 579.786L1271.85 580.901L1276.32 725.164L1312.3 724.049ZM1289.09 598.328L1488.25 606.626L1489.75 570.657L1290.59 562.359L1289.09 598.328ZM1507 588.459L1505.08 399.513L1469.09 399.877L1471 588.824L1507 588.459ZM1739.86 399.695L1757.79 401.328L1759.95 377.662L1736.58 381.997L1739.86 399.695ZM1536.88 437.357L1533.59 419.659L1518.88 422.389V437.357H1536.88ZM1536.88 440.548H1518.88V440.636L1518.88 440.724L1536.88 440.548ZM1541.98 965.258L1523.98 965.434L1524.16 983.889L1542.61 983.247L1541.98 965.258ZM1688.8 960.152L1689.42 978.141L1705.28 977.589L1706.72 961.785L1688.8 960.152ZM1736.58 381.997L1533.59 419.659L1540.16 455.055L1743.15 417.393L1736.58 381.997ZM1518.88 437.357V440.548H1554.88V437.357H1518.88ZM1518.88 440.724L1523.98 965.434L1559.98 965.083L1554.87 440.373L1518.88 440.724ZM1542.61 983.247L1689.42 978.141L1688.17 942.163L1541.36 947.269L1542.61 983.247ZM1706.72 961.785L1757.79 401.328L1721.94 398.062L1670.87 958.518L1706.72 961.785ZM2054.74 399.695L2055.74 381.723L2036.03 380.631L2036.75 400.352L2054.74 399.695ZM2066.23 714.393L2049.76 721.641L2084.22 713.737L2066.23 714.393ZM1928.35 400.972L1944.83 393.723L1939.54 381.701L1926.48 383.07L1928.35 400.972ZM1794.3 415.015L1792.43 397.113L1779.25 398.493L1776.65 411.485L1794.3 415.015ZM1793.66 418.207L1776.01 414.677L1775.75 416.02L1775.68 417.388L1793.66 418.207ZM1768.77 965.258L1750.79 964.44L1749.87 984.591L1770 983.216L1768.77 965.258ZM1974.31 951.215L1975.54 969.173L1994.63 967.869L1992.16 948.895L1974.31 951.215ZM1936.65 661.412L1952.93 653.731L1918.8 663.731L1936.65 661.412ZM2080.91 967.173L2064.64 974.854L2069.95 986.119L2082.37 985.115L2080.91 967.173ZM2191.35 958.237L2192.8 976.178L2207.64 974.977L2209.24 960.176L2191.35 958.237ZM2250.71 410.547L2268.61 412.486L2270.65 393.623L2251.71 392.574L2250.71 410.547ZM2036.75 400.352L2048.24 715.05L2084.22 713.737L2072.73 399.038L2036.75 400.352ZM2082.71 707.145L1944.83 393.723L1911.88 408.22L2049.76 721.641L2082.71 707.145ZM1926.48 383.07L1792.43 397.113L1796.18 432.917L1930.23 418.874L1926.48 383.07ZM1776.65 411.485L1776.01 414.677L1811.32 421.737L1811.95 418.545L1776.65 411.485ZM1775.68 417.388L1750.79 964.44L1786.75 966.077L1811.65 419.025L1775.68 417.388ZM1770 983.216L1975.54 969.173L1973.09 933.257L1767.54 947.3L1770 983.216ZM1992.16 948.895L1954.5 659.092L1918.8 663.731L1956.46 953.535L1992.16 948.895ZM1920.37 669.092L2064.64 974.854L2097.19 959.493L1952.93 653.731L1920.37 669.092ZM2082.37 985.115L2192.8 976.178L2189.89 940.295L2079.46 949.232L2082.37 985.115ZM2209.24 960.176L2268.61 412.486L2232.82 408.607L2173.45 956.297L2209.24 960.176ZM2251.71 392.574L2055.74 381.723L2053.75 417.667L2249.72 428.519L2251.71 392.574ZM2502.12 399.695L2520.05 401.328L2522.21 377.662L2498.84 381.997L2502.12 399.695ZM2299.13 437.357L2295.85 419.659L2281.13 422.389V437.357H2299.13ZM2299.13 440.548H2281.13V440.636L2281.14 440.724L2299.13 440.548ZM2304.24 965.258L2286.24 965.434L2286.42 983.889L2304.87 983.247L2304.24 965.258ZM2451.06 960.152L2451.68 978.141L2467.54 977.589L2468.98 961.785L2451.06 960.152ZM2498.84 381.997L2295.85 419.659L2302.42 455.055L2505.41 417.393L2498.84 381.997ZM2281.13 437.357V440.548H2317.13V437.357H2281.13ZM2281.14 440.724L2286.24 965.434L2322.24 965.083L2317.13 440.373L2281.14 440.724ZM2304.87 983.247L2451.68 978.141L2450.43 942.163L2303.62 947.269L2304.87 983.247ZM2468.98 961.785L2520.05 401.328L2484.2 398.062L2433.13 958.518L2468.98 961.785ZM2735.41 384.375L2735.88 366.381L2735.64 366.375H2735.41V384.375ZM2658.81 397.142L2652.86 380.152L2652.61 380.24L2652.36 380.336L2658.81 397.142ZM2567.52 628.218L2551.29 635.985L2551.37 636.166L2551.46 636.345L2567.52 628.218ZM2697.11 739.927L2706.18 724.379L2705.97 724.257L2705.76 724.141L2697.11 739.927ZM2754.56 774.397L2765.8 760.341L2765.63 760.208L2765.46 760.079L2754.56 774.397ZM2767.96 789.078L2751.42 796.169L2751.82 797.115L2752.33 798.009L2767.96 789.078ZM2768.6 802.483L2752.5 794.434L2751.93 795.578L2751.52 796.791L2768.6 802.483ZM2760.3 810.143L2754.61 793.067L2753.4 793.472L2752.25 794.044L2760.3 810.143ZM2744.98 812.697L2744.03 830.672L2744.51 830.697H2744.98V812.697ZM2700.3 799.93L2707.84 783.587L2707.77 783.554L2707.7 783.521L2700.3 799.93ZM2612.85 738.012L2626.71 726.527L2626.61 726.412L2626.51 726.297L2612.85 738.012ZM2609.02 733.543L2622.68 721.829L2603.66 699.636L2592.4 726.612L2609.02 733.543ZM2531.78 918.66L2515.17 911.729L2510.52 922.86L2519.05 931.388L2531.78 918.66ZM2533.69 920.575L2520.96 933.303L2521.62 933.954L2522.33 934.535L2533.69 920.575ZM2743.7 979.94L2742.66 961.97L2742.64 961.971L2742.63 961.972L2743.7 979.94ZM2879.67 921.213L2866.82 908.607L2866.76 908.67L2866.7 908.732L2879.67 921.213ZM2919.88 788.44L2937.59 785.201L2937.58 785.168L2937.58 785.135L2919.88 788.44ZM2794.77 662.05L2785.56 677.517L2785.59 677.534L2785.62 677.55L2794.77 662.05ZM2726.47 618.005L2738.36 604.492L2738.23 604.377L2738.1 604.264L2726.47 618.005ZM2709.23 597.578L2726.15 591.427L2725.8 590.454L2725.33 589.529L2709.23 597.578ZM2708.6 578.428L2692.15 571.118L2691.89 571.689L2691.68 572.277L2708.6 578.428ZM2718.81 568.215L2713.86 550.908L2712.77 551.221L2711.72 551.67L2718.81 568.215ZM2735.41 567.577L2731.88 585.227L2731.96 585.243L2732.04 585.259L2735.41 567.577ZM2781.37 586.727L2790.4 571.156L2790.28 571.088L2790.16 571.022L2781.37 586.727ZM2843.28 630.133L2831.79 643.985L2832.29 644.402L2832.82 644.781L2843.28 630.133ZM2847.75 633.325L2837.29 647.972L2858.8 663.338L2865.21 637.691L2847.75 633.325ZM2849.03 628.218L2831.74 623.225L2831.65 623.537L2831.57 623.853L2849.03 628.218ZM2901.37 446.932L2918.67 451.925L2921.61 441.717L2914.1 434.204L2901.37 446.932ZM2899.46 445.017L2912.19 432.289L2899.46 445.017ZM2804.98 395.227L2799.76 412.453L2799.95 412.51L2800.14 412.563L2804.98 395.227ZM2735.41 366.375C2708.69 366.375 2680.49 370.482 2652.86 380.152L2664.75 414.131C2688.19 405.928 2712.33 402.375 2735.41 402.375V366.375ZM2652.36 380.336C2549.07 419.952 2504.75 538.688 2551.29 635.985L2583.76 620.452C2546.04 541.568 2582.15 445.824 2665.25 413.948L2652.36 380.336ZM2551.46 636.345C2581.13 694.982 2642.42 730.487 2688.46 755.712L2705.76 724.141C2658.59 698.3 2607.53 667.418 2583.58 620.091L2551.46 636.345ZM2688.04 755.475C2712.49 769.737 2731.41 779.394 2743.65 788.714L2765.46 760.079C2750.89 748.972 2727.69 736.927 2706.18 724.379L2688.04 755.475ZM2743.31 788.452C2746.11 790.688 2748.27 792.647 2749.79 794.274C2751.45 796.054 2751.63 796.678 2751.42 796.169L2784.51 781.988C2780.64 772.958 2772.14 765.412 2765.8 760.341L2743.31 788.452ZM2752.33 798.009C2752.88 798.963 2752.36 798.38 2752.24 796.871C2752.19 796.115 2752.26 795.426 2752.38 794.893C2752.49 794.399 2752.6 794.226 2752.5 794.434L2784.7 810.533C2787.11 805.72 2788.59 800.251 2788.15 794.212C2787.71 788.394 2785.6 783.662 2783.59 780.148L2752.33 798.009ZM2751.52 796.791C2751.96 795.466 2752.73 794.453 2753.45 793.817C2754.1 793.237 2754.58 793.078 2754.61 793.067L2765.99 827.22C2773.61 824.679 2782.14 818.787 2785.68 808.175L2751.52 796.791ZM2752.25 794.044C2752.45 793.942 2752.13 794.15 2750.82 794.354C2749.51 794.559 2747.64 794.697 2744.98 794.697V830.697C2751.96 830.697 2760.6 830.116 2768.35 826.243L2752.25 794.044ZM2745.93 794.722C2736.85 794.244 2723.19 790.673 2707.84 783.587L2692.75 816.273C2710.59 824.507 2728.86 829.873 2744.03 830.672L2745.93 794.722ZM2707.7 783.521C2676.67 769.529 2642.9 746.066 2626.71 726.527L2598.99 749.496C2619.82 774.641 2658.81 800.967 2692.9 816.339L2707.7 783.521ZM2626.51 726.297L2622.68 721.829L2595.35 745.258L2599.18 749.726L2626.51 726.297ZM2592.4 726.612L2515.17 911.729L2548.39 925.591L2625.63 740.475L2592.4 726.612ZM2519.05 931.388L2520.96 933.303L2546.42 907.847L2544.51 905.932L2519.05 931.388ZM2533.69 920.575C2522.33 934.535 2522.34 934.54 2522.34 934.545C2522.34 934.547 2522.35 934.552 2522.36 934.556C2522.37 934.564 2522.38 934.573 2522.39 934.584C2522.41 934.604 2522.44 934.628 2522.48 934.656C2522.55 934.713 2522.64 934.785 2522.75 934.873C2522.97 935.049 2523.28 935.286 2523.66 935.581C2524.42 936.17 2525.5 936.988 2526.9 938C2529.68 940.024 2533.71 942.828 2538.91 946.127C2549.3 952.721 2564.42 961.325 2583.68 969.652C2622.19 986.302 2677.53 1001.94 2744.78 997.908L2742.63 961.972C2682.21 965.597 2632.54 951.556 2597.97 936.608C2580.68 929.136 2567.23 921.463 2558.2 915.729C2553.68 912.865 2550.28 910.491 2548.06 908.88C2546.95 908.074 2546.14 907.46 2545.64 907.071C2545.39 906.876 2545.21 906.738 2545.11 906.661C2545.06 906.622 2545.04 906.599 2545.03 906.591C2545.02 906.587 2545.02 906.587 2545.03 906.591C2545.03 906.593 2545.03 906.596 2545.04 906.6C2545.04 906.602 2545.04 906.606 2545.05 906.607C2545.05 906.611 2545.06 906.615 2533.69 920.575ZM2744.75 997.91C2803.64 994.486 2856.59 971.157 2892.64 933.694L2866.7 908.732C2837.64 938.933 2793.56 959.011 2742.66 961.97L2744.75 997.91ZM2892.52 933.819C2929.63 895.99 2948.26 843.546 2937.59 785.201L2902.18 791.679C2910.66 838.021 2896.09 878.773 2866.82 908.607L2892.52 933.819ZM2937.58 785.135C2931.11 750.536 2909.83 723.435 2884.99 701.656C2860.23 679.945 2830.2 662.066 2803.92 646.55L2785.62 677.55C2812.32 693.313 2839.43 709.584 2861.26 728.726C2883.02 747.801 2897.8 768.256 2902.19 791.745L2937.58 785.135ZM2803.98 646.583C2775.94 629.894 2752.68 617.093 2738.36 604.492L2714.58 631.518C2732.18 647.004 2759.98 662.289 2785.56 677.517L2803.98 646.583ZM2738.1 604.264C2729.58 597.062 2726.88 593.422 2726.15 591.427L2692.32 603.73C2696.7 615.778 2706.76 624.904 2714.84 631.746L2738.1 604.264ZM2725.33 589.529C2724.76 588.38 2724.76 587.923 2724.75 587.781C2724.75 587.521 2724.77 586.621 2725.51 584.58L2691.68 572.277C2687.73 583.134 2687.37 594.108 2693.13 605.628L2725.33 589.529ZM2725.04 585.739C2725.32 585.12 2725.5 584.833 2725.55 584.758C2725.59 584.7 2725.54 584.783 2725.4 584.92C2725.25 585.057 2725.15 585.125 2725.16 585.119C2725.19 585.099 2725.39 584.977 2725.9 584.76L2711.72 551.67C2708.22 553.171 2704.27 555.329 2700.57 558.851C2696.86 562.387 2694.18 566.552 2692.15 571.118L2725.04 585.739ZM2723.75 585.522C2725.87 584.917 2728.69 584.591 2731.88 585.227L2738.94 549.926C2729.35 548.009 2720.68 548.96 2713.86 550.908L2723.75 585.522ZM2732.04 585.259C2742.44 587.24 2756.92 593.67 2772.57 602.432L2790.16 571.022C2773.89 561.91 2755.18 553.02 2738.77 549.895L2732.04 585.259ZM2772.33 602.297C2787.48 611.079 2802.35 621.493 2813.56 629.82C2819.13 633.961 2823.73 637.536 2826.92 640.064C2828.51 641.327 2829.75 642.326 2830.58 643C2831 643.337 2831.31 643.593 2831.52 643.76C2831.62 643.843 2831.69 643.904 2831.74 643.942C2831.76 643.961 2831.78 643.974 2831.79 643.982C2831.79 643.985 2831.79 643.987 2831.79 643.988C2831.79 643.988 2831.79 643.988 2831.79 643.988C2831.79 643.988 2831.79 643.987 2831.79 643.987C2831.79 643.986 2831.79 643.985 2843.28 630.133C2854.78 616.281 2854.78 616.28 2854.78 616.279C2854.78 616.279 2854.77 616.277 2854.77 616.277C2854.77 616.275 2854.77 616.272 2854.76 616.27C2854.76 616.264 2854.75 616.257 2854.74 616.249C2854.72 616.232 2854.69 616.209 2854.66 616.181C2854.59 616.123 2854.49 616.042 2854.36 615.939C2854.11 615.732 2853.75 615.435 2853.28 615.055C2852.35 614.296 2850.99 613.205 2849.27 611.845C2845.84 609.126 2840.95 605.321 2835.03 600.924C2823.26 592.175 2807.17 580.886 2790.4 571.156L2772.33 602.297ZM2832.82 644.781L2837.29 647.972L2858.21 618.678L2853.75 615.486L2832.82 644.781ZM2865.21 637.691L2866.49 632.584L2831.57 623.853L2830.29 628.959L2865.21 637.691ZM2866.32 633.212L2918.67 451.925L2884.08 441.938L2831.74 623.225L2866.32 633.212ZM2914.1 434.204L2912.19 432.289L2886.73 457.745L2888.64 459.66L2914.1 434.204ZM2912.19 432.289C2892.96 413.063 2855.55 390.666 2809.83 377.891L2800.14 412.563C2841.23 424.044 2872.76 443.777 2886.73 457.745L2912.19 432.289ZM2810.2 378C2787.48 371.115 2761.62 367.059 2735.88 366.381L2734.93 402.369C2757.7 402.968 2780.35 406.572 2799.76 412.453L2810.2 378ZM3152.51 399.695L3170.44 401.254L3172.3 379.796L3150.86 381.771L3152.51 399.695ZM2951.43 418.207L2949.78 400.282L2933.43 401.788V418.207H2951.43ZM2951.43 421.398H2933.43V421.679L2933.44 421.96L2951.43 421.398ZM2968.03 953.13L2950.04 953.692L2950.53 969.538L2966.31 971.048L2968.03 953.13ZM3101.44 965.897L3099.73 983.815L3117.9 985.554L3119.38 967.359L3101.44 965.897ZM3118.04 762.268L3116.19 744.364L3101.31 745.9L3100.1 760.806L3118.04 762.268ZM3235.49 750.14L3253.49 750.3L3253.67 730.167L3233.64 732.235L3235.49 750.14ZM3233.57 965.258L3215.58 965.098L3215.41 984.202L3234.49 983.235L3233.57 965.258ZM3372.09 958.237L3373 976.214L3388.53 975.427L3390.01 959.957L3372.09 958.237ZM3425.71 399.695L3443.63 401.415L3445.7 379.883L3424.15 381.763L3425.71 399.695ZM3235.49 416.292L3233.93 398.36L3217.49 399.794V416.292H3235.49ZM3235.49 618.643L3235.71 636.642L3253.49 636.42V618.643H3235.49ZM3133.36 619.92L3115.42 618.361L3113.7 638.167L3133.58 637.919L3133.36 619.92ZM3150.86 381.771L2949.78 400.282L2953.08 436.131L3154.16 417.619L3150.86 381.771ZM2933.43 418.207V421.398H2969.43V418.207H2933.43ZM2933.44 421.96L2950.04 953.692L2986.02 952.568L2969.42 420.837L2933.44 421.96ZM2966.31 971.048L3099.73 983.815L3103.15 947.979L2969.74 935.212L2966.31 971.048ZM3119.38 967.359L3135.98 763.731L3100.1 760.806L3083.5 964.434L3119.38 967.359ZM3119.89 780.173L3237.34 768.045L3233.64 732.235L3116.19 744.364L3119.89 780.173ZM3217.49 749.98L3215.58 965.098L3251.57 965.419L3253.49 750.3L3217.49 749.98ZM3234.49 983.235L3373 976.214L3371.18 940.26L3232.66 947.281L3234.49 983.235ZM3390.01 959.957L3443.63 401.415L3407.8 397.975L3354.18 956.517L3390.01 959.957ZM3424.15 381.763L3233.93 398.36L3237.05 434.224L3427.28 417.627L3424.15 381.763ZM3217.49 416.292V618.643H3253.49V416.292H3217.49ZM3235.26 600.645L3133.13 601.921L3133.58 637.919L3235.71 636.642L3235.26 600.645ZM3151.29 621.479L3170.44 401.254L3134.57 398.136L3115.42 618.361L3151.29 621.479Z" fill="#E56B1E"/>
<defs>
<filter id="filter0_d_7_15" x="0" y="0" width="4574.39" height="1580.33" filterUnits="userSpaceOnUse" color-interpolation-filters="sRGB">
<feFlood flood-opacity="0" result="BackgroundImageFix"/>
<feColorMatrix in="SourceAlpha" type="matrix" values="0 0 0 0 0 0 0 0 0 0 0 0 0 0 0 0 0 0 127 0" result="hardAlpha"/>
<feOffset dx="11" dy="64"/>
<feGaussianBlur stdDeviation="2"/>
<feComposite in2="hardAlpha" operator="out"/>
<feColorMatrix type="matrix" values="0 0 0 0 0.808333 0 0 0 0 0.767917 0 0 0 0 0.740972 0 0 0 1 0"/>
<feBlend mode="normal" in2="BackgroundImageFix" result="effect1_dropShadow_7_15"/>
<feBlend mode="normal" in="SourceGraphic" in2="effect1_dropShadow_7_15" result="shape"/>
</filter>
<filter id="filter1_i_7_15" x="239.961" y="173.428" width="4079.48" height="1190.34" filterUnits="userSpaceOnUse" color-interpolation-filters="sRGB">
<feFlood flood-opacity="0" result="BackgroundImageFix"/>
<feBlend mode="normal" in="SourceGraphic" in2="BackgroundImageFix" result="shape"/>
<feColorMatrix in="SourceAlpha" type="matrix" values="0 0 0 0 0 0 0 0 0 0 0 0 0 0 0 0 0 0 127 0" result="hardAlpha"/>
<feOffset dx="10" dy="-139"/>
<feComposite in2="hardAlpha" operator="arithmetic" k2="-1" k3="1"/>
<feColorMatrix type="matrix" values="0 0 0 0 0.976471 0 0 0 0 0.360784 0 0 0 0 0.0313726 0 0 0 1 0"/>
<feBlend mode="normal" in2="shape" result="effect1_innerShadow_7_15"/>
</filter>
<linearGradient id="paint0_linear_7_15" x1="343.199" y1="173.428" x2="4266" y2="1269.23" gradientUnits="userSpaceOnUse">
<stop stop-color="#FEB92F"/>
<stop offset="1" stop-color="#FA8841"/>
</linearGradient>
</defs>
</svg>
