<svg width="4130" height="1581" viewBox="0 0 4130 1581" fill="none" xmlns="http://www.w3.org/2000/svg">
<g filter="url(#filter0_d_5_412)">
<path d="M0.0200893 262.833C-2.50353 -9.70126 233.313 -8.43605 381.694 4.17778C1294.84 20.3205 3229.55 55.5225 3663.16 67.1892C4096.77 78.8559 4138.74 281.079 4105.52 380.732L3937.81 1080.73C3898.93 1240.18 3699.11 1306.67 3604.07 1319.98L561.491 1511.95C314.191 1519.52 172.457 1412.06 132.502 1357.38C56.7982 1329.63 12.6375 616.117 0.0200893 262.833Z" fill="#FEF2EA"/>
</g>
<path d="M216.557 325.561C214.299 92.3002 425.294 93.3831 558.056 104.179C1375.09 117.996 3106.15 148.125 3494.12 158.111C3882.09 168.096 3919.64 341.178 3889.92 426.471L3739.86 1025.6C3705.07 1162.07 3526.29 1218.98 3441.25 1230.37L718.928 1394.67C497.659 1401.15 370.843 1309.18 335.094 1262.38C267.359 1238.63 227.846 627.936 216.557 325.561Z" fill="#FDD868"/>
<path d="M437.95 1509.83L319.227 1222.39C397.249 1317.52 580.827 1296.5 645.045 1300.49C1278.73 1263.31 2632.96 1234.02 3106.28 1213.71C3697.94 1188.32 3565.22 1094.16 3652.51 968.067C3722.35 867.194 3874.78 553.189 3897.42 368.902L4068.44 547.151L3998.6 830.938C3916.89 1145.93 3970.37 1190.5 3652.51 1315.58C3652.51 1315.58 512.775 1538.11 437.95 1509.83Z" fill="#F4BF9A"/>
<g filter="url(#filter1_i_5_412)">
<path d="M216.557 380.302C214.299 165.792 425.294 166.788 558.056 176.716C1375.09 189.422 3106.15 217.129 3494.12 226.312C3882.09 235.495 3919.64 394.663 3889.92 473.099L3739.86 1024.07C3705.07 1149.56 3526.29 1201.9 3441.25 1212.38L718.928 1363.47C497.659 1369.43 370.843 1284.85 335.094 1241.82C267.359 1219.97 227.846 658.37 216.557 380.302Z" fill="url(#paint0_linear_5_412)"/>
</g>
<path d="M420.996 733.388H244V789.056H430.988L542.325 682.002L420.996 733.388Z" fill="#FB5F09"/>
<path d="M430.15 789.464L266.719 788.834L268.957 806.636L442.416 807.097L539.404 685.859L430.15 789.464Z" fill="#FFF0C6"/>
<ellipse cx="742.478" cy="179.525" rx="82.6808" ry="36.8002" fill="white"/>
<ellipse cx="583.334" cy="179.524" rx="31.2633" ry="13.9149" fill="white"/>
<path d="M2134.08 310.533C2149.9 275.785 2195.95 198.154 2253.58 165.609C2253.29 194.142 2229 263.073 2134.08 310.533Z" fill="#F76409"/>
<path d="M2134.83 310.377C2190.22 284.753 2246.19 189.914 2252.57 180.338C2254.65 219.142 2183.11 291.27 2134.83 310.377Z" fill="#FFF4C1"/>
<path d="M1138.1 361.438C1110.7 361.438 1081.9 365.652 1053.8 375.487C951.233 414.827 906.975 532.847 953.34 629.792C982.845 688.1 1044.67 724.63 1095.95 752.73C1121.24 767.482 1144.42 779.425 1159.17 790.665C1166.2 796.285 1171.82 801.905 1173.93 806.823C1176.74 811.74 1177.44 815.955 1174.63 821.575C1173.22 825.79 1169.71 828.6 1165.5 830.005C1161.28 832.113 1155.66 832.815 1148.64 832.815C1135.29 832.113 1117.73 827.195 1099.46 818.765C1063.63 802.607 1023.59 775.21 1003.22 750.622L999.003 745.705L914 949.43L916.107 951.538C916.107 951.538 1006.73 1025.3 1147.23 1016.87C1207.64 1013.36 1261.04 989.473 1296.86 952.24C1333.39 915.007 1351.66 863.725 1341.12 806.12C1329.18 742.193 1261.74 701.448 1203.43 667.025C1173.93 649.463 1145.83 634.007 1128.26 618.552C1119.13 610.825 1112.1 603.8 1109.3 596.073C1105.78 589.047 1105.78 582.725 1108.59 574.997C1111.4 568.675 1114.92 565.865 1119.83 563.757C1124.75 562.352 1131.07 561.65 1138.1 563.055C1152.85 565.865 1171.12 574.295 1188.68 584.13C1223.8 604.502 1256.82 631.9 1256.82 631.9L1261.74 635.412L1263.14 629.792L1320.75 430.282L1318.64 428.175C1300.38 409.91 1262.44 386.727 1214.67 373.38C1191.49 366.355 1164.79 362.14 1138.1 361.438ZM1868.99 378.297L1397.62 405.695V409.208L1375.84 589.047L1541.63 567.972L1501.59 1000.71L1703.2 983.15L1691.96 555.327L1838.08 558.84L1868.99 378.297ZM2168.77 361.438C2080.96 361.438 2012.82 402.183 1965.75 463.3C1918.68 524.417 1891.99 606.61 1887.77 690.207C1882.86 775.21 1899.01 855.295 1937.65 915.71C1976.99 975.423 2037.41 1014.76 2120.3 1017.57C2209.52 1020.38 2280.47 976.828 2328.24 912.9C2376.71 848.972 2403.41 765.375 2406.92 687.397C2409.73 614.337 2392.87 533.55 2354.23 470.325C2315.6 407.1 2253.78 361.438 2168.77 361.438ZM2153.32 577.807C2180.01 577.807 2197.58 596.775 2208.11 620.66C2218.65 643.842 2222.16 673.348 2221.46 697.935C2220.76 719.712 2214.44 751.325 2201.09 776.615C2194.06 789.962 2185.63 801.905 2175.8 810.335C2165.26 818.765 2153.32 823.682 2139.27 822.98C2113.98 822.278 2095.01 804.715 2083.07 780.83C2071.83 757.647 2066.91 727.44 2068.32 698.638C2069.72 670.537 2077.45 641.032 2091.5 617.85C2105.55 594.668 2126.62 577.807 2153.32 577.807ZM2587.57 361.438C2509.6 362.14 2473.77 374.082 2473.77 374.082L2470.96 374.785V377.595L2438.64 995.795L2638.86 1000.71L2636.05 835.625L2712.62 1000.71L2893.16 978.935L2755.47 741.49C2771.63 730.952 2864.36 667.025 2865.76 548.302C2867.17 487.887 2842.58 441.522 2797.62 410.613C2751.96 379 2686.63 363.545 2603.73 362.14C2598.11 361.438 2592.49 361.438 2587.57 361.438ZM2643.07 506.855C2655.72 506.855 2672.58 508.963 2688.03 515.285C2707.7 524.417 2725.26 541.98 2725.26 571.485C2725.26 605.205 2699.97 630.495 2675.39 648.058C2650.8 665.62 2626.91 674.753 2626.91 674.753L2620.59 676.86L2628.32 511.773V508.26L2631.83 507.558C2634.64 506.855 2638.86 506.855 2643.07 506.855ZM3306.64 378.297L2944.15 400.777C2937.83 597.478 2931.5 804.012 2925.18 1000.71L3272.92 998.605L3266.6 796.285L3097.29 844.055L3105.02 750.622L3234.98 747.11L3237.79 672.645L3114.15 678.967L3121.88 582.725L3282.05 586.237L3306.64 378.297Z" fill="white"/>
<path d="M1138.1 361.438L1138.57 343.444L1138.33 343.438H1138.1V361.438ZM1053.8 375.487L1047.85 358.498L1047.6 358.586L1047.35 358.681L1053.8 375.487ZM953.34 629.792L937.102 637.559L937.188 637.74L937.279 637.92L953.34 629.792ZM1095.95 752.73L1105.02 737.182L1104.81 737.06L1104.6 736.944L1095.95 752.73ZM1159.17 790.665L1170.42 776.609L1170.25 776.476L1170.08 776.347L1159.17 790.665ZM1173.93 806.823L1157.38 813.913L1157.79 814.859L1158.3 815.753L1173.93 806.823ZM1174.63 821.575L1158.53 813.525L1157.96 814.669L1157.55 815.883L1174.63 821.575ZM1165.5 830.005L1159.8 812.929L1158.59 813.333L1157.45 813.905L1165.5 830.005ZM1148.64 832.815L1147.69 850.79L1148.16 850.815H1148.64V832.815ZM1099.46 818.765L1107 802.422L1106.93 802.389L1106.86 802.356L1099.46 818.765ZM1003.22 750.622L1017.08 739.138L1016.98 739.022L1016.88 738.908L1003.22 750.622ZM999.003 745.705L1012.67 733.991L993.646 711.797L982.391 738.774L999.003 745.705ZM914 949.43L897.388 942.499L892.744 953.63L901.272 962.158L914 949.43ZM916.107 951.537L903.38 964.265L904.031 964.916L904.745 965.498L916.107 951.537ZM1147.23 1016.87L1146.19 998.9L1146.17 998.901L1146.15 998.902L1147.23 1016.87ZM1296.86 952.24L1284.01 939.634L1283.95 939.696L1283.89 939.759L1296.86 952.24ZM1341.12 806.12L1358.83 802.881L1358.82 802.848L1358.81 802.815L1341.12 806.12ZM1203.43 667.025L1194.22 682.492L1194.25 682.509L1194.28 682.525L1203.43 667.025ZM1128.26 618.552L1140.15 605.04L1140.02 604.924L1139.89 604.812L1128.26 618.552ZM1109.29 596.073L1126.21 589.921L1125.86 588.948L1125.39 588.023L1109.29 596.073ZM1108.59 574.997L1092.14 567.687L1091.89 568.258L1091.68 568.846L1108.59 574.997ZM1119.83 563.757L1114.89 546.45L1113.79 546.763L1112.74 547.213L1119.83 563.757ZM1138.1 563.055L1134.57 580.705L1134.65 580.722L1134.73 580.737L1138.1 563.055ZM1188.68 584.13L1197.71 568.559L1197.59 568.491L1197.47 568.425L1188.68 584.13ZM1256.82 631.9L1245.33 645.752L1245.83 646.168L1246.36 646.547L1256.82 631.9ZM1261.74 635.412L1251.28 650.06L1272.79 665.426L1279.2 639.778L1261.74 635.412ZM1263.14 629.792L1245.85 624.799L1245.76 625.112L1245.68 625.427L1263.14 629.792ZM1320.75 430.282L1338.04 435.276L1340.99 425.068L1333.48 417.555L1320.75 430.282ZM1318.64 428.175L1331.37 415.447H1331.37L1318.64 428.175ZM1214.67 373.38L1209.45 390.606L1209.64 390.663L1209.83 390.716L1214.67 373.38ZM1138.1 343.438C1108.88 343.438 1078.05 347.93 1047.85 358.498L1059.74 392.477C1085.75 383.375 1112.52 379.438 1138.1 379.438V343.438ZM1047.35 358.681C934.696 401.892 886.334 531.407 937.102 637.559L969.578 622.026C927.616 534.288 967.769 427.763 1060.24 392.294L1047.35 358.681ZM937.279 637.92C969.646 701.882 1036.58 740.724 1087.3 768.516L1104.6 736.944C1052.75 708.536 996.044 674.318 969.401 621.665L937.279 637.92ZM1086.88 768.278C1113.64 783.888 1134.68 794.636 1148.26 804.983L1170.08 776.347C1154.16 764.214 1128.84 751.077 1105.02 737.182L1086.88 768.278ZM1147.93 804.721C1151.04 807.213 1153.49 809.428 1155.25 811.304C1157.15 813.333 1157.5 814.198 1157.38 813.913L1190.47 799.732C1186.41 790.253 1177.4 782.194 1170.42 776.609L1147.93 804.721ZM1158.3 815.753C1158.97 816.932 1158.53 816.557 1158.43 815.265C1158.38 814.617 1158.45 814.039 1158.54 813.621C1158.63 813.242 1158.7 813.189 1158.53 813.525L1190.73 829.625C1193.26 824.555 1194.8 818.861 1194.33 812.606C1193.89 806.571 1191.69 801.631 1189.55 797.892L1158.3 815.753ZM1157.55 815.883C1157.93 814.75 1158.59 813.898 1159.16 813.39C1159.66 812.939 1159.96 812.876 1159.8 812.929L1171.19 847.081C1179.19 844.412 1188.04 838.264 1191.7 827.267L1157.55 815.883ZM1157.45 813.905C1157.46 813.9 1156.9 814.172 1155.34 814.416C1153.77 814.661 1151.62 814.815 1148.64 814.815V850.815C1156.25 850.815 1165.41 850.171 1173.54 846.105L1157.45 813.905ZM1149.58 814.84C1139.28 814.298 1124.02 810.278 1107 802.422L1091.92 835.108C1111.43 844.112 1131.29 849.927 1147.69 850.79L1149.58 814.84ZM1106.86 802.356C1072.56 786.888 1035.13 760.923 1017.08 739.138L989.357 762.107C1012.05 789.497 1054.7 818.327 1092.06 835.174L1106.86 802.356ZM1016.88 738.908L1012.67 733.991L985.336 757.419L989.551 762.337L1016.88 738.908ZM982.391 738.774L897.388 942.499L930.612 956.361L1015.61 752.636L982.391 738.774ZM901.272 962.158L903.38 964.265L928.835 938.81L926.728 936.702L901.272 962.158ZM916.107 951.537C904.745 965.498 904.751 965.502 904.757 965.508C904.759 965.51 904.766 965.515 904.771 965.519C904.781 965.527 904.793 965.537 904.806 965.547C904.832 965.568 904.864 965.594 904.901 965.624C904.975 965.684 905.072 965.761 905.191 965.855C905.428 966.043 905.755 966.3 906.169 966.619C906.997 967.257 908.175 968.147 909.693 969.251C912.729 971.458 917.131 974.521 922.819 978.13C934.188 985.343 950.741 994.766 971.838 1003.89C1014.02 1022.12 1074.64 1039.26 1148.31 1034.84L1146.15 998.902C1079.32 1002.91 1024.37 987.379 986.124 970.843C967.003 962.577 952.12 954.086 942.106 947.732C937.103 944.558 933.327 941.924 930.859 940.13C929.625 939.233 928.719 938.547 928.15 938.109C927.866 937.89 927.667 937.733 927.553 937.643C927.496 937.598 927.46 937.569 927.447 937.558C927.44 937.553 927.438 937.551 927.442 937.555C927.444 937.556 927.448 937.559 927.452 937.563C927.455 937.565 927.459 937.568 927.46 937.569C927.465 937.573 927.47 937.577 916.107 951.537ZM1148.27 1034.84C1212.68 1031.1 1270.51 1005.58 1309.83 964.721L1283.89 939.759C1251.56 973.36 1202.61 995.62 1146.19 998.9L1148.27 1034.84ZM1309.71 964.846C1350.16 923.616 1370.46 866.487 1358.83 802.881L1323.41 809.359C1332.85 860.963 1316.62 906.399 1284.01 939.634L1309.71 964.846ZM1358.81 802.815C1351.81 765.297 1328.71 735.805 1301.53 711.973C1274.42 688.208 1241.53 668.613 1212.58 651.525L1194.28 682.525C1223.64 699.86 1253.62 717.848 1277.8 739.043C1301.89 760.171 1318.49 783.016 1323.43 809.425L1358.81 802.815ZM1212.64 651.558C1181.91 633.265 1156.08 619.052 1140.15 605.04L1116.37 632.065C1135.57 648.963 1165.94 665.66 1194.22 682.492L1212.64 651.558ZM1139.89 604.812C1130.54 596.904 1127.19 592.622 1126.21 589.921L1092.38 602.224C1097.02 614.978 1107.72 624.746 1116.64 632.293L1139.89 604.812ZM1125.39 588.023C1124.66 586.554 1124.58 585.792 1124.57 585.337C1124.55 584.764 1124.64 583.543 1125.51 581.149L1091.68 568.846C1087.47 580.409 1087.11 591.961 1093.2 604.122L1125.39 588.023ZM1125.04 582.308C1125.38 581.545 1125.63 581.134 1125.76 580.95C1125.87 580.784 1125.9 580.774 1125.84 580.831C1125.66 581.001 1125.73 580.813 1126.92 580.302L1112.74 547.213C1109.02 548.81 1104.87 551.08 1101.01 554.762C1097.13 558.459 1094.3 562.832 1092.14 567.687L1125.04 582.308ZM1124.78 581.065C1127.35 580.331 1130.74 579.941 1134.57 580.705L1141.63 545.405C1131.4 543.359 1122.15 544.374 1114.89 546.45L1124.78 581.065ZM1134.73 580.737C1146.48 582.975 1162.63 590.175 1179.88 599.835L1197.47 568.425C1179.6 558.415 1159.22 548.755 1141.47 545.373L1134.73 580.737ZM1179.65 599.701C1196.39 609.413 1212.82 620.918 1225.18 630.103C1231.33 634.672 1236.41 638.619 1239.94 641.41C1241.7 642.805 1243.07 643.909 1243.98 644.655C1244.44 645.029 1244.79 645.312 1245.02 645.498C1245.13 645.591 1245.21 645.659 1245.26 645.702C1245.29 645.723 1245.31 645.738 1245.32 645.746C1245.32 645.751 1245.33 645.753 1245.33 645.754C1245.33 645.755 1245.33 645.755 1245.33 645.754C1245.33 645.754 1245.33 645.754 1245.33 645.754C1245.33 645.753 1245.33 645.752 1256.82 631.9C1268.31 618.048 1268.31 618.047 1268.31 618.046C1268.31 618.045 1268.31 618.044 1268.31 618.043C1268.31 618.041 1268.3 618.039 1268.3 618.036C1268.29 618.03 1268.28 618.023 1268.27 618.014C1268.25 617.996 1268.22 617.971 1268.18 617.94C1268.11 617.878 1268 617.79 1267.86 617.677C1267.59 617.451 1267.19 617.126 1266.68 616.711C1265.66 615.879 1264.17 614.683 1262.29 613.191C1258.52 610.209 1253.15 606.033 1246.66 601.207C1233.73 591.6 1216.09 579.219 1197.71 568.559L1179.65 599.701ZM1246.36 646.547L1251.28 650.06L1272.2 620.765L1267.28 617.253L1246.36 646.547ZM1279.2 639.778L1280.61 634.158L1245.68 625.427L1244.27 631.047L1279.2 639.778ZM1280.44 634.786L1338.04 435.276L1303.45 425.289L1245.85 624.799L1280.44 634.786ZM1333.48 417.555L1331.37 415.447L1305.91 440.903L1308.02 443.01L1333.48 417.555ZM1331.37 415.447C1310.47 394.553 1269.6 370.039 1219.51 356.044L1209.83 390.716C1255.28 403.416 1290.28 425.267 1305.91 440.903L1331.37 415.447ZM1219.89 356.154C1195.05 348.627 1166.75 344.185 1138.57 343.444L1137.62 379.431C1162.83 380.095 1187.92 384.083 1209.45 390.606L1219.89 356.154ZM1868.99 378.297L1886.74 381.335L1890.56 359.014L1867.95 360.328L1868.99 378.297ZM1397.62 405.695L1396.57 387.725L1379.62 388.711V405.695H1397.62ZM1397.62 409.208L1415.49 411.371L1415.62 410.293V409.208H1397.62ZM1375.84 589.047L1357.97 586.884L1355.19 609.817L1378.11 606.904L1375.84 589.047ZM1541.63 567.972L1559.55 569.631L1561.62 547.286L1539.36 550.116L1541.63 567.972ZM1501.59 1000.71L1483.66 999.054L1481.68 1020.51L1503.15 1018.64L1501.59 1000.71ZM1703.2 983.15L1704.77 1001.08L1721.64 999.612L1721.2 982.677L1703.2 983.15ZM1691.96 555.327L1692.4 537.333L1673.47 536.878L1673.97 555.8L1691.96 555.327ZM1838.08 558.84L1837.65 576.835L1853.2 577.209L1855.83 561.878L1838.08 558.84ZM1867.95 360.328L1396.57 387.725L1398.66 423.665L1870.04 396.267L1867.95 360.328ZM1379.62 405.695V409.208H1415.62V405.695H1379.62ZM1379.75 407.044L1357.97 586.884L1393.71 591.211L1415.49 411.371L1379.75 407.044ZM1378.11 606.904L1543.9 585.829L1539.36 550.116L1373.57 571.191L1378.11 606.904ZM1523.71 566.314L1483.66 999.054L1519.51 1002.37L1559.55 569.631L1523.71 566.314ZM1503.15 1018.64L1704.77 1001.08L1701.64 965.218L1500.02 982.78L1503.15 1018.64ZM1721.2 982.677L1709.96 554.855L1673.97 555.8L1685.21 983.623L1721.2 982.677ZM1691.53 573.322L1837.65 576.835L1838.52 540.845L1692.4 537.333L1691.53 573.322ZM1855.83 561.878L1886.74 381.335L1851.25 375.26L1820.34 555.802L1855.83 561.878ZM1965.75 463.3L1951.49 452.317L1965.75 463.3ZM1887.77 690.207L1905.74 691.247L1905.75 691.18L1905.75 691.114L1887.77 690.207ZM1937.65 915.71L1922.49 925.408L1922.55 925.511L1922.62 925.613L1937.65 915.71ZM2120.3 1017.57L2119.69 1035.56L2119.71 1035.56L2119.74 1035.56L2120.3 1017.57ZM2328.24 912.9L2313.9 902.024L2313.86 902.075L2313.82 902.125L2328.24 912.9ZM2406.92 687.397L2424.9 688.207L2424.91 688.148L2424.91 688.089L2406.92 687.397ZM2208.11 620.66L2191.65 627.926L2191.69 628.017L2191.73 628.108L2208.11 620.66ZM2221.46 697.935L2239.45 698.515L2239.45 698.482L2239.45 698.449L2221.46 697.935ZM2201.09 776.615L2185.17 768.213L2185.17 768.222L2185.16 768.232L2201.09 776.615ZM2175.8 810.335L2187.04 824.391L2187.28 824.2L2187.51 824.002L2175.8 810.335ZM2139.27 822.98L2140.17 805.002L2139.97 804.992L2139.77 804.987L2139.27 822.98ZM2083.07 780.83L2066.87 788.683L2066.92 788.782L2066.97 788.88L2083.07 780.83ZM2068.32 698.638L2050.34 697.739L2050.34 697.75L2050.34 697.76L2068.32 698.638ZM2091.5 617.85L2076.11 608.521L2091.5 617.85ZM2168.77 343.438C2074.68 343.438 2001.52 387.36 1951.49 452.317L1980.01 474.283C2024.12 417.005 2087.25 379.438 2168.77 379.438V343.438ZM1951.49 452.317C1901.79 516.848 1874.16 602.747 1869.8 689.301L1905.75 691.114C1909.82 610.473 1935.57 531.987 1980.01 474.283L1951.49 452.317ZM1869.8 689.168C1864.73 776.808 1881.26 860.95 1922.49 925.408L1952.82 906.012C1916.76 849.64 1900.98 773.612 1905.74 691.247L1869.8 689.168ZM1922.62 925.613C1964.94 989.852 2030.56 1032.54 2119.69 1035.56L2120.91 999.583C2044.26 996.984 1989.04 960.993 1952.68 905.807L1922.62 925.613ZM2119.74 1035.56C2215.86 1038.59 2292.04 991.416 2342.66 923.675L2313.82 902.125C2268.9 962.239 2203.18 1002.17 2120.87 999.581L2119.74 1035.56ZM2342.59 923.776C2393.53 856.583 2421.25 769.358 2424.9 688.207L2388.94 686.588C2385.57 761.392 2359.9 841.362 2313.9 902.024L2342.59 923.776ZM2424.91 688.089C2427.83 612.155 2410.4 527.717 2369.59 460.939L2338.88 479.711C2375.34 539.383 2391.64 616.52 2388.94 686.706L2424.91 688.089ZM2369.59 460.939C2328.4 393.525 2261.3 343.438 2168.77 343.438V379.438C2246.26 379.438 2302.8 420.675 2338.88 479.711L2369.59 460.939ZM2153.32 595.807C2169.55 595.807 2182.35 606.847 2191.65 627.926L2224.58 613.394C2212.81 586.703 2190.47 559.807 2153.32 559.807V595.807ZM2191.73 628.108C2200.74 647.93 2204.13 674.435 2203.47 697.421L2239.45 698.449C2240.2 672.26 2236.57 639.755 2224.5 613.212L2191.73 628.108ZM2203.47 697.355C2202.84 716.955 2197.01 745.785 2185.17 768.213L2217.01 785.017C2231.87 756.865 2238.68 722.47 2239.45 698.515L2203.47 697.355ZM2185.16 768.232C2178.73 780.451 2171.57 790.252 2164.09 796.668L2187.51 824.002C2199.7 813.558 2209.4 799.474 2217.02 784.998L2185.16 768.232ZM2164.56 796.279C2156.71 802.554 2148.97 805.442 2140.17 805.002L2138.37 840.958C2157.67 841.923 2173.81 834.976 2187.04 824.391L2164.56 796.279ZM2139.77 804.987C2123.76 804.542 2109.55 793.547 2099.17 772.78L2066.97 788.88C2080.47 815.883 2104.2 840.013 2138.77 840.973L2139.77 804.987ZM2099.27 772.977C2089.63 753.101 2085 726.037 2086.3 699.515L2050.34 697.76C2048.82 728.843 2054.03 762.194 2066.87 788.683L2099.27 772.977ZM2086.29 699.536C2087.58 673.791 2094.69 647.322 2106.89 627.179L2076.11 608.521C2060.21 634.743 2051.86 667.284 2050.34 697.739L2086.29 699.536ZM2106.89 627.179C2119.04 607.131 2135.16 595.807 2153.32 595.807V559.807C2118.08 559.807 2092.06 582.204 2076.11 608.521L2106.89 627.179ZM2587.57 361.438V343.438H2587.49L2587.41 343.438L2587.57 361.438ZM2473.77 374.082L2478.14 391.545L2478.81 391.377L2479.46 391.159L2473.77 374.082ZM2470.96 374.785L2466.59 357.322L2452.96 360.731V374.785H2470.96ZM2470.96 377.595L2488.93 378.535L2488.96 378.065V377.595H2470.96ZM2438.64 995.795L2420.67 994.855L2419.7 1013.34L2438.2 1013.79L2438.64 995.795ZM2638.86 1000.71L2638.42 1018.71L2657.17 1019.17L2656.85 1000.41L2638.86 1000.71ZM2636.05 835.625L2652.38 828.051L2618.05 835.931L2636.05 835.625ZM2712.62 1000.71L2696.29 1008.29L2701.79 1020.15L2714.78 1018.58L2712.62 1000.71ZM2893.16 978.935L2895.32 996.805L2922.44 993.534L2908.73 969.905L2893.16 978.935ZM2755.47 741.49L2745.64 726.413L2731.33 735.744L2739.9 750.52L2755.47 741.49ZM2865.76 548.302L2847.77 547.884L2847.77 547.987L2847.77 548.09L2865.76 548.302ZM2797.62 410.613L2787.38 425.412L2787.4 425.429L2787.42 425.445L2797.62 410.613ZM2603.73 362.14L2601.5 380.001L2602.46 380.121L2603.43 380.137L2603.73 362.14ZM2688.03 515.285L2695.61 498.959L2695.23 498.783L2694.85 498.625L2688.03 515.285ZM2675.39 648.057L2685.85 662.705L2675.39 648.057ZM2626.91 674.753L2632.61 691.829L2632.98 691.705L2633.34 691.565L2626.91 674.753ZM2620.59 676.86L2602.61 676.018L2601.38 702.236L2626.28 693.936L2620.59 676.86ZM2628.32 511.773L2646.3 512.614L2646.32 512.194V511.773H2628.32ZM2628.32 508.26L2624.79 490.61L2610.32 493.504V508.26H2628.32ZM2631.83 507.558L2635.36 525.208L2635.78 525.124L2636.2 525.02L2631.83 507.558ZM2587.41 343.438C2547.53 343.798 2518.15 347.034 2498.51 350.262C2488.69 351.875 2481.31 353.485 2476.27 354.731C2473.75 355.353 2471.81 355.884 2470.45 356.279C2469.77 356.476 2469.23 356.639 2468.84 356.762C2468.64 356.824 2468.48 356.875 2468.35 356.916C2468.29 356.937 2468.23 356.954 2468.19 356.969C2468.17 356.977 2468.14 356.984 2468.13 356.99C2468.12 356.993 2468.11 356.996 2468.1 356.999C2468.1 357 2468.09 357.002 2468.09 357.003C2468.08 357.004 2468.08 357.006 2473.77 374.082C2479.46 391.159 2479.46 391.161 2479.45 391.162C2479.45 391.163 2479.45 391.164 2479.44 391.165C2479.44 391.167 2479.43 391.169 2479.43 391.171C2479.42 391.174 2479.41 391.176 2479.4 391.178C2479.39 391.182 2479.39 391.182 2479.4 391.18C2479.41 391.176 2479.46 391.16 2479.54 391.134C2479.71 391.082 2480.02 390.988 2480.47 390.857C2481.37 390.596 2482.85 390.188 2484.9 389.68C2489.02 388.664 2495.46 387.245 2504.35 385.785C2522.12 382.866 2549.65 379.78 2587.74 379.437L2587.41 343.438ZM2469.4 356.62L2466.59 357.322L2475.33 392.248L2478.14 391.545L2469.4 356.62ZM2452.96 374.785V377.595H2488.96V374.785H2452.96ZM2452.98 376.655L2420.67 994.855L2456.62 996.735L2488.93 378.535L2452.98 376.655ZM2438.2 1013.79L2638.42 1018.71L2639.3 982.718L2439.09 977.8L2438.2 1013.79ZM2656.85 1000.41L2654.04 835.319L2618.05 835.931L2620.86 1001.02L2656.85 1000.41ZM2619.72 843.199L2696.29 1008.29L2728.95 993.139L2652.38 828.051L2619.72 843.199ZM2714.78 1018.58L2895.32 996.805L2891.01 961.065L2710.46 982.842L2714.78 1018.58ZM2908.73 969.905L2771.04 732.46L2739.9 750.52L2877.59 987.965L2908.73 969.905ZM2765.3 756.567C2782.14 745.587 2882.24 677.04 2883.76 548.516L2847.77 548.09C2846.48 657.01 2761.12 716.318 2745.64 726.413L2765.3 756.567ZM2883.76 548.721C2885.3 482.395 2857.92 430.223 2807.82 395.78L2787.42 425.445C2827.25 452.822 2849.04 493.38 2847.77 547.884L2883.76 548.721ZM2807.87 395.813C2758.01 361.299 2688.55 345.575 2604.04 344.143L2603.43 380.137C2684.7 381.515 2745.91 396.701 2787.38 425.412L2807.87 395.813ZM2605.96 344.279C2599.06 343.416 2592.35 343.438 2587.57 343.438V379.438C2592.64 379.438 2597.16 379.459 2601.5 380.001L2605.96 344.279ZM2643.07 524.855C2654.04 524.855 2668.46 526.727 2681.22 531.945L2694.85 498.625C2676.69 491.198 2657.39 488.855 2643.07 488.855V524.855ZM2680.45 531.611C2695.7 538.689 2707.26 550.89 2707.26 571.485H2743.26C2743.26 533.07 2719.71 510.146 2695.61 498.959L2680.45 531.611ZM2707.26 571.485C2707.26 595.753 2688.84 616.328 2664.92 633.41L2685.85 662.705C2711.11 644.662 2743.26 614.657 2743.26 571.485H2707.26ZM2664.92 633.41C2653.63 641.481 2642.39 647.677 2633.94 651.86C2629.74 653.942 2626.28 655.5 2623.91 656.521C2622.72 657.031 2621.82 657.405 2621.23 657.643C2620.94 657.761 2620.73 657.845 2620.6 657.895C2620.54 657.92 2620.5 657.936 2620.48 657.943C2620.47 657.947 2620.46 657.949 2620.46 657.948C2620.46 657.948 2620.47 657.947 2620.47 657.945C2620.47 657.945 2620.47 657.944 2620.48 657.943C2620.48 657.942 2620.48 657.942 2620.48 657.941C2620.48 657.94 2620.49 657.94 2626.91 674.753C2633.34 691.565 2633.35 691.564 2633.35 691.563C2633.35 691.563 2633.35 691.562 2633.35 691.561C2633.36 691.56 2633.36 691.558 2633.37 691.556C2633.38 691.553 2633.39 691.548 2633.4 691.544C2633.42 691.534 2633.46 691.522 2633.49 691.508C2633.56 691.48 2633.66 691.443 2633.78 691.396C2634.01 691.304 2634.34 691.174 2634.75 691.009C2635.56 690.678 2636.71 690.202 2638.15 689.581C2641.03 688.341 2645.08 686.519 2649.92 684.122C2659.56 679.348 2672.56 672.196 2685.85 662.705L2664.92 633.41ZM2621.22 657.676L2614.9 659.784L2626.28 693.936L2632.61 691.829L2621.22 657.676ZM2638.57 677.702L2646.3 512.614L2610.34 510.931L2602.61 676.018L2638.57 677.702ZM2646.32 511.773V508.26H2610.32V511.773H2646.32ZM2631.85 525.91L2635.36 525.208L2628.3 489.907L2624.79 490.61L2631.85 525.91ZM2636.2 525.02C2635.84 525.11 2636.17 524.996 2637.74 524.924C2639.19 524.858 2640.87 524.855 2643.07 524.855V488.855C2639.83 488.855 2632.94 488.725 2627.47 490.095L2636.2 525.02ZM3306.64 378.297L3324.51 380.411L3327.05 358.997L3305.52 360.332L3306.64 378.297ZM2944.15 400.777L2943.03 382.812L2926.68 383.826L2926.16 400.199L2944.15 400.777ZM2925.18 1000.71L2907.19 1000.13L2906.59 1018.83L2925.29 1018.71L2925.18 1000.71ZM3272.92 998.605L3273.03 1016.6L3291.49 1016.49L3290.91 998.043L3272.92 998.605ZM3266.6 796.285L3284.59 795.723L3283.87 772.709L3261.71 778.961L3266.6 796.285ZM3097.29 844.055L3079.35 842.571L3077.22 868.423L3102.18 861.379L3097.29 844.055ZM3105.02 750.622L3104.53 732.629L3088.41 733.065L3087.08 749.139L3105.02 750.622ZM3234.98 747.11L3235.47 765.103L3252.33 764.648L3252.97 747.789L3234.98 747.11ZM3237.79 672.645L3255.78 673.324L3256.52 653.664L3236.87 654.669L3237.79 672.645ZM3114.15 678.967L3096.21 677.527L3094.57 697.993L3115.07 696.944L3114.15 678.967ZM3121.88 582.725L3122.28 564.729L3105.3 564.357L3103.94 581.284L3121.88 582.725ZM3282.05 586.237L3281.66 604.233L3298.01 604.592L3299.93 588.351L3282.05 586.237ZM3305.52 360.332L2943.03 382.812L2945.26 418.743L3307.75 396.263L3305.52 360.332ZM2926.16 400.199C2923 498.557 2919.83 599.373 2916.67 700.181C2913.51 800.991 2910.35 901.792 2907.19 1000.13L2943.17 1001.29C2946.33 902.932 2949.49 802.117 2952.66 701.309C2955.82 600.499 2958.98 499.697 2962.14 401.356L2926.16 400.199ZM2925.29 1018.71L3273.03 1016.6L3272.81 980.605L2925.07 982.713L2925.29 1018.71ZM3290.91 998.043L3284.59 795.723L3248.6 796.847L3254.93 999.167L3290.91 998.043ZM3261.71 778.961L3092.41 826.731L3102.18 861.379L3271.48 813.609L3261.71 778.961ZM3115.23 845.539L3122.96 752.106L3087.08 749.139L3079.35 842.571L3115.23 845.539ZM3105.51 768.616L3235.47 765.103L3234.5 729.117L3104.53 732.629L3105.51 768.616ZM3252.97 747.789L3255.78 673.324L3219.81 671.966L3217 746.431L3252.97 747.789ZM3236.87 654.669L3113.23 660.991L3115.07 696.944L3238.71 690.622L3236.87 654.669ZM3132.1 680.408L3139.82 584.166L3103.94 581.284L3096.21 677.527L3132.1 680.408ZM3121.49 600.721L3281.66 604.233L3282.45 568.242L3122.28 564.729L3121.49 600.721ZM3299.93 588.351L3324.51 380.411L3288.76 376.184L3264.18 584.124L3299.93 588.351Z" fill="#E56B1E"/>
<defs>
<filter id="filter0_d_5_412" x="0" y="0" width="4129.41" height="1580.33" filterUnits="userSpaceOnUse" color-interpolation-filters="sRGB">
<feFlood flood-opacity="0" result="BackgroundImageFix"/>
<feColorMatrix in="SourceAlpha" type="matrix" values="0 0 0 0 0 0 0 0 0 0 0 0 0 0 0 0 0 0 127 0" result="hardAlpha"/>
<feOffset dx="11" dy="64"/>
<feGaussianBlur stdDeviation="2"/>
<feComposite in2="hardAlpha" operator="out"/>
<feColorMatrix type="matrix" values="0 0 0 0 0.808333 0 0 0 0 0.767917 0 0 0 0 0.740972 0 0 0 1 0"/>
<feBlend mode="normal" in2="BackgroundImageFix" result="effect1_dropShadow_5_412"/>
<feBlend mode="normal" in="SourceGraphic" in2="effect1_dropShadow_5_412" result="shape"/>
</filter>
<filter id="filter1_i_5_412" x="216.539" y="173.428" width="3681.33" height="1190.34" filterUnits="userSpaceOnUse" color-interpolation-filters="sRGB">
<feFlood flood-opacity="0" result="BackgroundImageFix"/>
<feBlend mode="normal" in="SourceGraphic" in2="BackgroundImageFix" result="shape"/>
<feColorMatrix in="SourceAlpha" type="matrix" values="0 0 0 0 0 0 0 0 0 0 0 0 0 0 0 0 0 0 127 0" result="hardAlpha"/>
<feOffset dx="10" dy="-139"/>
<feComposite in2="hardAlpha" operator="arithmetic" k2="-1" k3="1"/>
<feColorMatrix type="matrix" values="0 0 0 0 0.976471 0 0 0 0 0.360784 0 0 0 0 0.0313726 0 0 0 1 0"/>
<feBlend mode="normal" in2="shape" result="effect1_innerShadow_5_412"/>
</filter>
<linearGradient id="paint0_linear_5_412" x1="309.701" y1="173.428" x2="3897.86" y2="1077.93" gradientUnits="userSpaceOnUse">
<stop stop-color="#FEB92F"/>
<stop offset="1" stop-color="#FA8841"/>
</linearGradient>
</defs>
</svg>
