<svg width="1770" height="1770" viewBox="0 0 1770 1770" fill="none" xmlns="http://www.w3.org/2000/svg">
<g filter="url(#filter0_i_107_2)">
<circle cx="884.857" cy="884.857" r="884.857" fill="#FEF2EA"/>
</g>
<ellipse cx="884.857" cy="816.176" rx="723.537" ry="683.481" fill="#FDD868"/>
<g filter="url(#filter1_i_107_2)">
<circle cx="851.727" cy="884.856" r="690.406" fill="url(#paint0_linear_107_2)"/>
</g>
<path d="M329.295 1037.06L203.029 1085.54L218.278 1125.26L351.672 1074.04L401.772 967.168L329.295 1037.06Z" fill="#FB5F09"/>
<path d="M351.198 1073.06L236.348 1117.8L244.586 1137.47L370.964 1085.11L401.799 967.234L351.198 1073.06Z" fill="#FFF0C6"/>
<path d="M1108.81 338.464C1120.03 313.822 1152.69 258.767 1193.56 235.688C1193.36 255.922 1176.13 304.806 1108.81 338.464Z" fill="#F76409"/>
<path d="M1109.34 338.354C1148.62 320.182 1188.31 252.924 1192.84 246.133C1194.31 273.652 1143.58 324.803 1109.34 338.354Z" fill="#FFF4C1"/>
<ellipse cx="94.0809" cy="66.2621" rx="94.0809" ry="66.2621" transform="matrix(0.621016 0.783798 -0.781139 0.624358 1387.72 385.594)" fill="white"/>
<ellipse cx="31.7644" cy="13.919" rx="31.7644" ry="13.919" transform="matrix(0.65471 0.75588 -0.752127 0.659018 1314.69 352.41)" fill="white"/>
<g filter="url(#filter2_d_107_2)">
<path d="M940.428 1140.8C929.036 1147.31 918.864 1146.31 909.913 1137.78C900.961 1129.22 899.741 1119.24 906.251 1107.85L1024.65 900.341H466.825C452.991 900.341 441.403 895.654 432.062 886.279C422.687 876.937 418 865.35 418 851.516C418 837.682 422.687 826.078 432.062 816.703C441.403 807.362 452.991 802.691 466.825 802.691H1024.65L906.251 595.184C899.741 583.792 900.961 573.815 909.913 565.254C918.864 556.726 929.036 555.717 940.428 562.227L1329.81 810.014C1345.27 819.779 1353 833.613 1353 851.516C1353 869.418 1345.27 883.252 1329.81 893.017L940.428 1140.8Z" fill="white"/>
</g>
<defs>
<filter id="filter0_i_107_2" x="-4" y="-4" width="1773.71" height="1773.71" filterUnits="userSpaceOnUse" color-interpolation-filters="sRGB">
<feFlood flood-opacity="0" result="BackgroundImageFix"/>
<feBlend mode="normal" in="SourceGraphic" in2="BackgroundImageFix" result="shape"/>
<feColorMatrix in="SourceAlpha" type="matrix" values="0 0 0 0 0 0 0 0 0 0 0 0 0 0 0 0 0 0 127 0" result="hardAlpha"/>
<feOffset dx="-34" dy="-63"/>
<feGaussianBlur stdDeviation="2"/>
<feComposite in2="hardAlpha" operator="arithmetic" k2="-1" k3="1"/>
<feColorMatrix type="matrix" values="0 0 0 0 0.956863 0 0 0 0 0.74902 0 0 0 0 0.603922 0 0 0 1 0"/>
<feBlend mode="normal" in2="shape" result="effect1_innerShadow_107_2"/>
</filter>
<filter id="filter1_i_107_2" x="157.32" y="190.449" width="1384.81" height="1384.81" filterUnits="userSpaceOnUse" color-interpolation-filters="sRGB">
<feFlood flood-opacity="0" result="BackgroundImageFix"/>
<feBlend mode="normal" in="SourceGraphic" in2="BackgroundImageFix" result="shape"/>
<feColorMatrix in="SourceAlpha" type="matrix" values="0 0 0 0 0 0 0 0 0 0 0 0 0 0 0 0 0 0 127 0" result="hardAlpha"/>
<feOffset dx="-11" dy="-100"/>
<feGaussianBlur stdDeviation="2"/>
<feComposite in2="hardAlpha" operator="arithmetic" k2="-1" k3="1"/>
<feColorMatrix type="matrix" values="0 0 0 0 0.976471 0 0 0 0 0.360784 0 0 0 0 0.0313726 0 0 0 1 0"/>
<feBlend mode="normal" in2="shape" result="effect1_innerShadow_107_2"/>
</filter>
<filter id="filter2_d_107_2" x="418" y="558" width="959" height="630.031" filterUnits="userSpaceOnUse" color-interpolation-filters="sRGB">
<feFlood flood-opacity="0" result="BackgroundImageFix"/>
<feColorMatrix in="SourceAlpha" type="matrix" values="0 0 0 0 0 0 0 0 0 0 0 0 0 0 0 0 0 0 127 0" result="hardAlpha"/>
<feOffset dx="20" dy="39"/>
<feGaussianBlur stdDeviation="2"/>
<feComposite in2="hardAlpha" operator="out"/>
<feColorMatrix type="matrix" values="0 0 0 0 0 0 0 0 0 0 0 0 0 0 0 0 0 0 0.25 0"/>
<feBlend mode="normal" in2="BackgroundImageFix" result="effect1_dropShadow_107_2"/>
<feBlend mode="normal" in="SourceGraphic" in2="effect1_dropShadow_107_2" result="shape"/>
</filter>
<linearGradient id="paint0_linear_107_2" x1="161.32" y1="243.763" x2="1440.99" y2="1575.26" gradientUnits="userSpaceOnUse">
<stop stop-color="#FEB830"/>
<stop offset="1" stop-color="#FB8D40"/>
</linearGradient>
</defs>
</svg>
