<svg width="4130" height="1581" viewBox="0 0 4130 1581" fill="none" xmlns="http://www.w3.org/2000/svg">
<g filter="url(#filter0_d_101_29)">
<path d="M0.0200893 262.833C-2.50353 -9.70126 233.313 -8.43605 381.694 4.17778C1294.84 20.3205 3229.55 55.5225 3663.16 67.1892C4096.77 78.8559 4138.74 281.079 4105.52 380.732L3937.81 1080.73C3898.93 1240.18 3699.11 1306.67 3604.07 1319.98L561.491 1511.95C314.191 1519.52 172.457 1412.06 132.502 1357.38C56.7982 1329.63 12.6375 616.117 0.0200893 262.833Z" fill="#FEF2EA"/>
</g>
<path d="M216.557 325.561C214.299 92.3002 425.294 93.3831 558.056 104.179C1375.09 117.996 3106.15 148.125 3494.12 158.111C3882.09 168.096 3919.64 341.178 3889.92 426.471L3739.86 1025.6C3705.07 1162.07 3526.29 1218.98 3441.25 1230.37L718.928 1394.67C497.659 1401.15 370.843 1309.18 335.094 1262.38C267.359 1238.63 227.846 627.936 216.557 325.561Z" fill="#FDD868"/>
<path d="M437.95 1509.83L319.227 1222.39C397.249 1317.52 580.827 1296.5 645.045 1300.49C1278.73 1263.31 2632.96 1234.02 3106.28 1213.71C3697.94 1188.32 3565.22 1094.16 3652.51 968.067C3722.35 867.194 3874.78 553.189 3897.42 368.902L4068.44 547.151L3998.6 830.938C3916.89 1145.93 3970.37 1190.5 3652.51 1315.58C3652.51 1315.58 512.775 1538.11 437.95 1509.83Z" fill="#F4BF9A"/>
<g filter="url(#filter1_i_101_29)">
<path d="M216.557 380.302C214.299 165.792 425.294 166.788 558.056 176.716C1375.09 189.422 3106.15 217.129 3494.12 226.312C3882.09 235.495 3919.64 394.663 3889.92 473.099L3739.86 1024.07C3705.07 1149.56 3526.29 1201.9 3441.25 1212.38L718.928 1363.47C497.659 1369.43 370.843 1284.85 335.094 1241.82C267.359 1219.97 227.846 658.37 216.557 380.302Z" fill="url(#paint0_linear_101_29)"/>
</g>
<path d="M605.735 1057.82L571.056 1238.04L625.757 1248.47L662.394 1058.07L579.014 924.658L605.735 1057.82Z" fill="#FB5F09"/>
<path d="M659.334 1055.66L626.693 1221.95L644.625 1223L679.064 1046.47L578.935 925.013L659.334 1055.66Z" fill="#FFF0C6"/>
<ellipse cx="742.478" cy="179.525" rx="82.6808" ry="36.8002" fill="white"/>
<ellipse cx="583.334" cy="179.524" rx="31.2633" ry="13.9149" fill="white"/>
<path d="M3650 466.924C3665.82 432.176 3711.87 354.544 3769.5 322C3769.22 350.533 3744.92 419.463 3650 466.924Z" fill="#F76409"/>
<path d="M3650.74 466.768C3706.14 441.144 3762.1 346.305 3768.49 336.729C3770.56 375.533 3699.03 447.661 3650.74 466.768Z" fill="#FFF4C1"/>
<path d="M1266.13 352.438C1261.92 352.438 1258.41 352.438 1254.19 353.14C1167.78 357.355 1100.34 399.505 1053.98 459.92C1006.91 519.632 980.918 598.312 976.703 676.992C971.785 756.375 987.943 835.055 1027.28 896.875C1065.92 957.993 1127.74 1000.85 1212.04 1007.87C1339.9 1017.7 1436.84 940.43 1436.84 940.43L1439.65 939.025L1360.27 717.738L1356.05 725.465C1356.05 725.465 1338.49 754.267 1311.09 780.962C1284.4 807.657 1247.17 830.137 1207.83 819.6C1186.05 813.98 1170.59 796.417 1160.76 772.533C1150.92 748.647 1147.41 717.738 1150.22 687.53C1152.33 657.322 1161.46 627.115 1175.51 602.527C1189.56 578.642 1208.53 561.08 1233.12 554.757C1264.03 547.732 1296.34 561.08 1320.22 577.237C1344.81 593.395 1360.97 611.66 1360.97 611.66L1365.19 616.577L1368 610.958L1448.78 424.092L1446.68 421.985C1446.68 421.985 1383.45 353.14 1266.13 352.438ZM1735.18 352.438C1647.37 352.438 1579.23 393.183 1532.16 454.3C1485.09 515.417 1458.4 597.61 1454.18 681.207C1449.27 766.21 1465.42 846.295 1504.06 906.71C1543.4 966.423 1603.82 1005.76 1686.71 1008.57C1775.93 1011.38 1846.88 967.828 1894.65 903.9C1943.12 839.972 1969.82 756.375 1973.33 678.397C1976.14 605.337 1959.28 524.55 1920.64 461.325C1882.01 398.1 1820.19 352.438 1735.18 352.438ZM1719.73 568.807C1746.42 568.807 1763.99 587.775 1774.52 611.66C1785.06 634.842 1788.57 664.348 1787.87 688.935C1787.17 710.712 1780.85 742.325 1767.5 767.615C1760.47 780.962 1752.04 792.905 1742.21 801.335C1731.67 809.765 1719.73 814.682 1705.68 813.98C1680.39 813.278 1661.42 795.715 1649.48 771.83C1638.24 748.647 1633.32 718.44 1634.73 689.638C1636.13 661.537 1643.86 632.032 1657.91 608.85C1671.96 585.668 1693.03 568.807 1719.73 568.807ZM2286.76 352.438C2198.94 352.438 2130.8 393.183 2083.73 454.3C2036.67 515.417 2009.97 597.61 2005.76 681.207C2000.84 766.21 2017 846.295 2055.63 906.71C2094.97 966.423 2155.39 1005.76 2238.28 1008.57C2327.5 1011.38 2398.45 967.828 2446.22 903.9C2494.7 839.972 2521.39 756.375 2524.9 678.397C2527.71 605.337 2510.85 524.55 2472.22 461.325C2433.58 398.1 2371.76 352.438 2286.76 352.438ZM2271.3 568.807C2298 568.807 2315.56 587.775 2326.1 611.66C2336.63 634.842 2340.15 664.348 2339.44 688.935C2338.74 710.712 2332.42 742.325 2319.07 767.615C2312.05 780.962 2303.62 792.905 2293.78 801.335C2283.24 809.765 2271.3 814.682 2257.25 813.98C2231.96 813.278 2212.99 795.715 2201.05 771.83C2189.81 748.647 2184.89 718.44 2186.3 689.638C2187.7 661.537 2195.43 632.032 2209.48 608.85C2223.53 585.668 2244.61 568.807 2271.3 568.807ZM2770.18 369.297L2556.62 381.942V385.455L2558.73 981.175L2723.82 976.96L2732.95 804.145L2902.25 991.712L3078.58 877.908L2850.27 687.53L3105.98 409.34L2868.54 397.398L2737.87 601.825L2770.18 369.297Z" fill="white"/>
<path d="M1266.13 352.438L1266.24 334.438L1266.19 334.438H1266.13V352.438ZM1254.19 353.14L1255.07 371.119L1256.11 371.068L1257.15 370.895L1254.19 353.14ZM1053.98 459.92L1068.11 471.063L1068.19 470.971L1068.26 470.879L1053.98 459.92ZM976.703 676.992L994.668 678.105L994.673 678.03L994.677 677.955L976.703 676.992ZM1027.28 896.875L1042.5 887.257L1042.48 887.234L1042.47 887.211L1027.28 896.875ZM1212.04 1007.87L1210.55 1025.81L1210.6 1025.81L1210.66 1025.82L1212.04 1007.87ZM1436.84 940.43L1428.79 924.33L1427.1 925.176L1425.62 926.354L1436.84 940.43ZM1439.65 939.025L1447.7 955.125L1461.99 947.982L1456.59 932.947L1439.65 939.025ZM1360.27 717.737L1377.21 711.66L1363.67 673.912L1344.47 709.118L1360.27 717.737ZM1356.05 725.465L1371.42 734.836L1371.65 734.465L1371.85 734.084L1356.05 725.465ZM1311.09 780.962L1298.53 768.07L1298.45 768.152L1298.36 768.235L1311.09 780.962ZM1207.83 819.6L1212.48 802.213L1212.4 802.192L1212.32 802.171L1207.83 819.6ZM1160.76 772.533L1144.11 779.386L1160.76 772.533ZM1150.22 687.53L1168.14 689.197L1168.16 688.99L1168.18 688.783L1150.22 687.53ZM1175.51 602.527L1160 593.401L1159.94 593.499L1159.88 593.597L1175.51 602.527ZM1233.12 554.757L1229.13 537.205L1228.88 537.261L1228.63 537.325L1233.12 554.757ZM1320.23 577.237L1310.14 592.147L1310.24 592.214L1310.34 592.28L1320.23 577.237ZM1360.97 611.66L1374.64 599.946L1374.55 599.839L1374.45 599.734L1360.97 611.66ZM1365.18 616.578L1351.52 628.292L1369.16 648.875L1381.28 624.627L1365.18 616.578ZM1367.99 610.958L1384.09 619.007L1384.32 618.56L1384.52 618.1L1367.99 610.958ZM1448.78 424.092L1465.3 431.235L1470.16 420.011L1461.51 411.365L1448.78 424.092ZM1446.68 421.985L1433.42 434.16L1433.68 434.442L1433.95 434.713L1446.68 421.985ZM1266.13 334.438C1262.02 334.438 1257.11 334.405 1251.23 335.385L1257.15 370.895C1259.7 370.47 1261.81 370.438 1266.13 370.438V334.438ZM1253.31 335.161C1160.97 339.666 1088.86 384.896 1039.7 448.961L1068.26 470.879C1111.82 414.114 1174.59 375.044 1255.07 371.119L1253.31 335.161ZM1039.84 448.777C990.107 511.873 963.108 594.284 958.728 676.03L994.677 677.955C998.727 602.341 1023.71 527.392 1068.11 471.063L1039.84 448.777ZM958.737 675.88C953.638 758.198 970.296 840.853 1012.1 906.539L1042.47 887.211C1005.59 829.257 989.932 754.552 994.668 678.105L958.737 675.88ZM1012.07 906.493C1053.54 972.089 1120.28 1018.29 1210.55 1025.81L1213.53 989.932C1135.2 983.404 1078.3 943.896 1042.5 887.257L1012.07 906.493ZM1210.66 1025.82C1278.51 1031.04 1337.79 1013.14 1379.77 994.254C1400.82 984.788 1417.7 974.991 1429.39 967.514C1435.24 963.772 1439.81 960.6 1442.96 958.326C1444.54 957.188 1445.76 956.274 1446.61 955.624C1447.04 955.299 1447.38 955.04 1447.62 954.852C1447.74 954.758 1447.84 954.682 1447.91 954.624C1447.95 954.595 1447.98 954.57 1448 954.551C1448.02 954.541 1448.03 954.532 1448.04 954.525C1448.04 954.521 1448.05 954.516 1448.05 954.514C1448.05 954.51 1448.06 954.505 1436.84 940.43C1425.62 926.354 1425.62 926.351 1425.63 926.348C1425.63 926.347 1425.63 926.344 1425.64 926.343C1425.64 926.34 1425.64 926.338 1425.64 926.338C1425.64 926.337 1425.64 926.34 1425.63 926.348C1425.61 926.365 1425.56 926.399 1425.5 926.451C1425.36 926.554 1425.14 926.728 1424.83 926.967C1424.2 927.444 1423.21 928.18 1421.89 929.136C1419.24 931.05 1415.23 933.838 1410 937.187C1399.51 943.892 1384.17 952.799 1365 961.422C1326.55 978.718 1273.43 994.539 1213.42 989.923L1210.66 1025.82ZM1444.89 956.53L1447.7 955.125L1431.6 922.925L1428.79 924.33L1444.89 956.53ZM1456.59 932.947L1377.21 711.66L1343.32 723.815L1422.71 945.103L1456.59 932.947ZM1344.47 709.118L1340.25 716.846L1371.85 734.084L1376.07 726.357L1344.47 709.118ZM1356.05 725.465C1340.68 716.094 1340.69 716.092 1340.69 716.09C1340.69 716.09 1340.69 716.088 1340.69 716.087C1340.69 716.085 1340.69 716.083 1340.69 716.082C1340.69 716.08 1340.69 716.08 1340.69 716.081C1340.69 716.084 1340.68 716.093 1340.67 716.109C1340.66 716.141 1340.62 716.2 1340.57 716.285C1340.46 716.455 1340.29 716.729 1340.05 717.099C1339.58 717.839 1338.86 718.963 1337.9 720.41C1335.97 723.308 1333.09 727.489 1329.39 732.48C1321.95 742.508 1311.34 755.589 1298.53 768.07L1323.65 793.855C1338.24 779.641 1350.11 764.974 1358.3 753.926C1362.42 748.38 1365.64 743.692 1367.87 740.355C1368.98 738.685 1369.84 737.35 1370.44 736.41C1370.73 735.941 1370.97 735.569 1371.13 735.305C1371.21 735.172 1371.28 735.066 1371.33 734.988C1371.35 734.949 1371.37 734.916 1371.39 734.891C1371.39 734.878 1371.4 734.867 1371.41 734.858C1371.41 734.854 1371.41 734.849 1371.41 734.846C1371.42 734.844 1371.42 734.841 1371.42 734.841C1371.42 734.838 1371.42 734.836 1356.05 725.465ZM1298.36 768.235C1272.94 793.655 1242.16 810.163 1212.48 802.213L1203.17 836.987C1252.17 850.112 1295.85 821.66 1323.82 793.69L1298.36 768.235ZM1212.32 802.171C1198.06 798.491 1186.03 786.626 1177.4 765.679L1144.11 779.386C1155.16 806.209 1174.03 829.469 1203.33 837.029L1212.32 802.171ZM1177.4 765.679C1168.93 745.099 1165.53 717.239 1168.14 689.197L1132.3 685.863C1129.29 718.236 1132.92 752.196 1144.11 779.386L1177.4 765.679ZM1168.18 688.783C1170.1 661.176 1178.48 633.608 1191.14 611.458L1159.88 593.597C1144.44 620.622 1134.55 653.469 1132.26 686.277L1168.18 688.783ZM1191.02 611.654C1203.51 590.429 1219.07 576.955 1237.6 572.19L1228.63 537.325C1197.99 545.205 1175.61 566.856 1160 593.401L1191.02 611.654ZM1237.1 572.31C1260.79 566.926 1287.81 577.042 1310.14 592.147L1330.31 562.328C1304.87 545.118 1267.26 528.539 1229.13 537.205L1237.1 572.31ZM1310.34 592.28C1321.59 599.673 1330.99 607.606 1337.59 613.716C1340.87 616.756 1343.42 619.308 1345.12 621.063C1345.97 621.939 1346.6 622.614 1347 623.048C1347.2 623.265 1347.34 623.422 1347.42 623.513C1347.46 623.559 1347.49 623.588 1347.5 623.601C1347.51 623.607 1347.51 623.609 1347.51 623.607C1347.5 623.605 1347.5 623.603 1347.5 623.6C1347.5 623.598 1347.5 623.596 1347.49 623.594C1347.49 623.593 1347.49 623.591 1347.49 623.59C1347.49 623.588 1347.49 623.586 1360.97 611.66C1374.45 599.734 1374.45 599.732 1374.45 599.729C1374.45 599.728 1374.45 599.726 1374.44 599.724C1374.44 599.721 1374.44 599.718 1374.43 599.714C1374.43 599.706 1374.42 599.697 1374.41 599.687C1374.39 599.667 1374.37 599.642 1374.34 599.613C1374.29 599.556 1374.23 599.48 1374.14 599.388C1373.98 599.204 1373.75 598.953 1373.46 598.639C1372.88 598.011 1372.06 597.133 1371 596.044C1368.9 593.87 1365.88 590.846 1362.05 587.3C1354.42 580.238 1343.45 570.96 1330.11 562.195L1310.34 592.28ZM1347.3 623.374L1351.52 628.292L1378.85 604.863L1374.64 599.946L1347.3 623.374ZM1381.28 624.627L1384.09 619.007L1351.9 602.908L1349.09 608.528L1381.28 624.627ZM1384.52 618.1L1465.3 431.235L1432.26 416.949L1351.47 603.815L1384.52 618.1ZM1461.51 411.365L1459.4 409.257L1433.95 434.713L1436.05 436.82L1461.51 411.365ZM1446.68 421.985C1459.93 409.81 1459.93 409.803 1459.92 409.797C1459.92 409.794 1459.91 409.788 1459.91 409.783C1459.9 409.773 1459.89 409.762 1459.88 409.749C1459.85 409.725 1459.83 409.697 1459.8 409.664C1459.74 409.599 1459.66 409.517 1459.57 409.42C1459.38 409.224 1459.14 408.965 1458.83 408.647C1458.2 408.01 1457.33 407.134 1456.21 406.054C1453.97 403.895 1450.72 400.914 1446.48 397.387C1438.02 390.339 1425.58 381.072 1409.28 371.821C1376.66 353.298 1328.53 334.811 1266.24 334.438L1266.02 370.437C1321.06 370.767 1363.2 387.053 1391.51 403.128C1405.69 411.176 1416.38 419.165 1423.44 425.047C1426.97 427.985 1429.58 430.388 1431.25 431.996C1432.08 432.8 1432.68 433.405 1433.05 433.776C1433.23 433.962 1433.35 434.09 1433.41 434.155C1433.44 434.188 1433.46 434.205 1433.46 434.206C1433.46 434.207 1433.46 434.203 1433.45 434.195C1433.45 434.192 1433.44 434.187 1433.44 434.181C1433.43 434.178 1433.43 434.173 1433.43 434.171C1433.42 434.166 1433.42 434.16 1446.68 421.985ZM1532.16 454.3L1517.9 443.317L1532.16 454.3ZM1454.18 681.207L1472.15 682.247L1472.16 682.18L1472.16 682.114L1454.18 681.207ZM1504.06 906.71L1488.9 916.408L1488.96 916.511L1489.03 916.613L1504.06 906.71ZM1686.71 1008.57L1686.1 1026.56L1686.12 1026.56L1686.14 1026.56L1686.71 1008.57ZM1894.65 903.9L1880.31 893.024L1880.27 893.075L1880.23 893.125L1894.65 903.9ZM1973.33 678.397L1991.31 679.207L1991.31 679.148L1991.32 679.089L1973.33 678.397ZM1774.52 611.66L1758.05 618.926L1758.09 619.017L1758.14 619.108L1774.52 611.66ZM1787.87 688.935L1805.86 689.515L1805.86 689.482L1805.86 689.449L1787.87 688.935ZM1767.5 767.615L1751.58 759.213L1751.57 759.222L1751.57 759.232L1767.5 767.615ZM1742.21 801.335L1753.45 815.391L1753.69 815.2L1753.92 815.002L1742.21 801.335ZM1705.68 813.98L1706.58 796.002L1706.38 795.992L1706.18 795.987L1705.68 813.98ZM1649.48 771.83L1633.28 779.683L1633.33 779.782L1633.38 779.88L1649.48 771.83ZM1634.73 689.638L1616.75 688.739L1616.75 688.75L1616.75 688.76L1634.73 689.638ZM1657.91 608.85L1642.51 599.521L1657.91 608.85ZM1735.18 334.438C1641.09 334.438 1567.92 378.36 1517.9 443.317L1546.42 465.283C1590.53 408.005 1653.65 370.438 1735.18 370.438V334.438ZM1517.9 443.317C1468.2 507.848 1440.57 593.747 1436.21 680.301L1472.16 682.114C1476.23 601.473 1501.98 522.987 1546.42 465.283L1517.9 443.317ZM1436.21 680.168C1431.14 767.808 1447.67 851.95 1488.9 916.408L1519.22 897.012C1483.17 840.64 1467.39 764.612 1472.15 682.247L1436.21 680.168ZM1489.03 916.613C1531.35 980.852 1596.97 1023.54 1686.1 1026.56L1687.32 990.583C1610.66 987.984 1555.45 951.993 1519.09 896.807L1489.03 916.613ZM1686.14 1026.56C1782.27 1029.59 1858.45 982.416 1909.07 914.675L1880.23 893.125C1835.31 953.239 1769.59 993.174 1687.28 990.581L1686.14 1026.56ZM1908.99 914.776C1959.94 847.583 1987.66 760.358 1991.31 679.207L1955.35 677.588C1951.98 752.392 1926.3 832.362 1880.31 893.024L1908.99 914.776ZM1991.32 679.089C1994.24 603.155 1976.81 518.717 1936 451.939L1905.28 470.711C1941.75 530.383 1958.04 607.52 1955.34 677.706L1991.32 679.089ZM1936 451.939C1894.8 384.525 1827.71 334.438 1735.18 334.438V370.438C1812.66 370.438 1869.21 411.675 1905.28 470.711L1936 451.939ZM1719.73 586.807C1735.96 586.807 1748.76 597.847 1758.05 618.926L1790.99 604.394C1779.22 577.703 1756.88 550.807 1719.73 550.807V586.807ZM1758.14 619.108C1767.15 638.93 1770.53 665.435 1769.88 688.421L1805.86 689.449C1806.61 663.26 1802.97 630.755 1790.91 604.212L1758.14 619.108ZM1769.88 688.355C1769.25 707.955 1763.42 736.785 1751.58 759.213L1783.42 776.017C1798.27 747.865 1805.09 713.47 1805.86 689.515L1769.88 688.355ZM1751.57 759.232C1745.14 771.451 1737.98 781.252 1730.49 787.668L1753.92 815.002C1766.11 804.558 1775.81 790.474 1783.43 775.998L1751.57 759.232ZM1730.96 787.279C1723.12 793.554 1715.38 796.442 1706.58 796.002L1704.78 831.958C1724.08 832.923 1740.22 825.976 1753.45 815.391L1730.96 787.279ZM1706.18 795.987C1690.17 795.542 1675.96 784.547 1665.58 763.78L1633.38 779.88C1646.88 806.883 1670.61 831.013 1705.18 831.973L1706.18 795.987ZM1665.67 763.977C1656.04 744.101 1651.41 717.037 1652.7 690.515L1616.75 688.76C1615.23 719.843 1620.44 753.194 1633.28 779.683L1665.67 763.977ZM1652.7 690.536C1653.99 664.791 1661.09 638.322 1673.3 618.179L1642.51 599.521C1626.62 625.743 1618.27 658.284 1616.75 688.739L1652.7 690.536ZM1673.3 618.179C1685.45 598.131 1701.57 586.807 1719.73 586.807V550.807C1684.49 550.807 1658.46 573.204 1642.51 599.521L1673.3 618.179ZM2083.73 454.3L2069.47 443.317L2083.73 454.3ZM2005.76 681.207L2023.73 682.247L2023.73 682.18L2023.73 682.114L2005.76 681.207ZM2055.63 906.71L2040.47 916.408L2040.53 916.511L2040.6 916.613L2055.63 906.71ZM2238.28 1008.57L2237.67 1026.56L2237.69 1026.56L2237.72 1026.56L2238.28 1008.57ZM2446.22 903.9L2431.88 893.024L2431.84 893.075L2431.8 893.125L2446.22 903.9ZM2524.9 678.397L2542.88 679.207L2542.89 679.148L2542.89 679.089L2524.9 678.397ZM2326.1 611.66L2309.63 618.926L2309.67 619.017L2309.71 619.108L2326.1 611.66ZM2339.44 688.935L2357.43 689.515L2357.43 689.482L2357.44 689.449L2339.44 688.935ZM2319.07 767.615L2303.15 759.213L2303.15 759.222L2303.14 759.232L2319.07 767.615ZM2293.78 801.335L2305.02 815.391L2305.26 815.2L2305.49 815.002L2293.78 801.335ZM2257.25 813.98L2258.15 796.002L2257.95 795.992L2257.75 795.987L2257.25 813.98ZM2201.05 771.83L2184.85 779.683L2184.9 779.782L2184.95 779.88L2201.05 771.83ZM2186.3 689.638L2168.32 688.739L2168.32 688.75L2168.32 688.76L2186.3 689.638ZM2209.48 608.85L2194.09 599.521L2209.48 608.85ZM2286.76 334.438C2192.66 334.438 2119.5 378.36 2069.47 443.317L2097.99 465.283C2142.1 408.005 2205.23 370.438 2286.76 370.438V334.438ZM2069.47 443.317C2019.78 507.848 1992.14 593.747 1987.78 680.301L2023.73 682.114C2027.8 601.473 2053.56 522.987 2097.99 465.283L2069.47 443.317ZM1987.79 680.168C1982.72 767.808 1999.25 851.95 2040.47 916.408L2070.8 897.012C2034.75 840.64 2018.96 764.612 2023.73 682.247L1987.79 680.168ZM2040.6 916.613C2082.92 980.852 2148.54 1023.54 2237.67 1026.56L2238.89 990.583C2162.24 987.984 2107.02 951.993 2070.66 896.807L2040.6 916.613ZM2237.72 1026.56C2333.84 1029.59 2410.02 982.416 2460.64 914.675L2431.8 893.125C2386.88 953.239 2321.16 993.174 2238.85 990.581L2237.72 1026.56ZM2460.57 914.776C2511.51 847.583 2539.23 760.358 2542.88 679.207L2506.92 677.588C2503.55 752.392 2477.88 832.362 2431.88 893.024L2460.57 914.776ZM2542.89 679.089C2545.81 603.155 2528.38 518.717 2487.57 451.939L2456.86 470.711C2493.32 530.383 2509.62 607.52 2506.92 677.706L2542.89 679.089ZM2487.57 451.939C2446.38 384.525 2379.28 334.438 2286.76 334.438V370.438C2364.24 370.438 2420.78 411.675 2456.86 470.711L2487.57 451.939ZM2271.3 586.807C2287.54 586.807 2300.33 597.847 2309.63 618.926L2342.56 604.394C2330.79 577.703 2308.46 550.807 2271.3 550.807V586.807ZM2309.71 619.108C2318.72 638.93 2322.11 665.435 2321.45 688.421L2357.44 689.449C2358.18 663.26 2354.55 630.755 2342.48 604.212L2309.71 619.108ZM2321.45 688.355C2320.82 707.955 2314.99 736.785 2303.15 759.213L2334.99 776.017C2349.85 747.865 2356.66 713.47 2357.43 689.515L2321.45 688.355ZM2303.14 759.232C2296.71 771.451 2289.55 781.252 2282.07 787.668L2305.49 815.002C2317.68 804.558 2327.38 790.474 2335 775.998L2303.14 759.232ZM2282.54 787.279C2274.69 793.554 2266.95 796.442 2258.15 796.002L2256.35 831.958C2275.65 832.923 2291.79 825.976 2305.02 815.391L2282.54 787.279ZM2257.75 795.987C2241.74 795.542 2227.53 784.547 2217.15 763.78L2184.95 779.88C2198.45 806.883 2222.18 831.013 2256.75 831.973L2257.75 795.987ZM2217.25 763.977C2207.61 744.101 2202.98 717.037 2204.28 690.515L2168.32 688.76C2166.8 719.843 2172.01 753.194 2184.85 779.683L2217.25 763.977ZM2204.28 690.536C2205.56 664.791 2212.67 638.322 2224.87 618.179L2194.09 599.521C2178.19 625.743 2169.84 658.284 2168.32 688.739L2204.28 690.536ZM2224.87 618.179C2237.02 598.131 2253.15 586.807 2271.3 586.807V550.807C2236.07 550.807 2210.04 573.204 2194.09 599.521L2224.87 618.179ZM2770.18 369.297L2788.01 371.775L2791.04 350.031L2769.12 351.329L2770.18 369.297ZM2556.62 381.942L2555.56 363.974L2538.62 364.977V381.942H2556.62ZM2556.62 385.455H2538.62V385.487L2538.63 385.519L2556.62 385.455ZM2558.73 981.175L2540.73 981.239L2540.8 999.639L2559.19 999.169L2558.73 981.175ZM2723.82 976.96L2724.28 994.954L2740.92 994.529L2741.79 977.91L2723.82 976.96ZM2732.95 804.145L2746.31 792.084L2717.27 759.901L2714.98 803.195L2732.95 804.145ZM2902.26 991.713L2888.89 1003.77L2899.15 1015.14L2912.02 1006.84L2902.26 991.713ZM3078.58 877.908L3088.34 893.031L3108.91 879.758L3090.11 864.083L3078.58 877.908ZM2850.27 687.53L2837.02 675.349L2824.23 689.257L2838.74 701.354L2850.27 687.53ZM3105.98 409.34L3119.23 421.521L3145.18 393.289L3106.88 391.363L3105.98 409.34ZM2868.54 397.398L2869.44 379.42L2859 378.895L2853.37 387.703L2868.54 397.398ZM2737.87 601.825L2720.04 599.347L2753.04 611.519L2737.87 601.825ZM2769.12 351.329L2555.56 363.974L2557.69 399.911L2771.25 387.266L2769.12 351.329ZM2538.62 381.942V385.455H2574.62V381.942H2538.62ZM2538.63 385.519L2540.73 981.239L2576.73 981.111L2574.62 385.391L2538.63 385.519ZM2559.19 999.169L2724.28 994.954L2723.36 958.966L2558.27 963.181L2559.19 999.169ZM2741.79 977.91L2750.93 805.095L2714.98 803.195L2705.85 976.01L2741.79 977.91ZM2719.59 816.206L2888.89 1003.77L2915.62 979.652L2746.31 792.084L2719.59 816.206ZM2912.02 1006.84L3088.34 893.031L3068.82 862.784L2892.49 976.589L2912.02 1006.84ZM3090.11 864.083L2861.8 673.706L2838.74 701.354L3067.05 891.732L3090.11 864.083ZM2863.52 699.711L3119.23 421.521L3092.73 397.159L2837.02 675.349L2863.52 699.711ZM3106.88 391.363L2869.44 379.42L2867.63 415.375L3105.08 427.317L3106.88 391.363ZM2853.37 387.703L2722.7 592.131L2753.04 611.519L2883.7 407.092L2853.37 387.703ZM2755.7 604.303L2788.01 371.775L2752.36 366.82L2720.04 599.347L2755.7 604.303Z" fill="#E56B1E"/>
<defs>
<filter id="filter0_d_101_29" x="0" y="0" width="4129.4" height="1580.33" filterUnits="userSpaceOnUse" color-interpolation-filters="sRGB">
<feFlood flood-opacity="0" result="BackgroundImageFix"/>
<feColorMatrix in="SourceAlpha" type="matrix" values="0 0 0 0 0 0 0 0 0 0 0 0 0 0 0 0 0 0 127 0" result="hardAlpha"/>
<feOffset dx="11" dy="64"/>
<feGaussianBlur stdDeviation="2"/>
<feComposite in2="hardAlpha" operator="out"/>
<feColorMatrix type="matrix" values="0 0 0 0 0.808333 0 0 0 0 0.767917 0 0 0 0 0.740972 0 0 0 1 0"/>
<feBlend mode="normal" in2="BackgroundImageFix" result="effect1_dropShadow_101_29"/>
<feBlend mode="normal" in="SourceGraphic" in2="effect1_dropShadow_101_29" result="shape"/>
</filter>
<filter id="filter1_i_101_29" x="216.539" y="173.428" width="3681.32" height="1190.34" filterUnits="userSpaceOnUse" color-interpolation-filters="sRGB">
<feFlood flood-opacity="0" result="BackgroundImageFix"/>
<feBlend mode="normal" in="SourceGraphic" in2="BackgroundImageFix" result="shape"/>
<feColorMatrix in="SourceAlpha" type="matrix" values="0 0 0 0 0 0 0 0 0 0 0 0 0 0 0 0 0 0 127 0" result="hardAlpha"/>
<feOffset dx="10" dy="-139"/>
<feComposite in2="hardAlpha" operator="arithmetic" k2="-1" k3="1"/>
<feColorMatrix type="matrix" values="0 0 0 0 0.976471 0 0 0 0 0.360784 0 0 0 0 0.0313726 0 0 0 1 0"/>
<feBlend mode="normal" in2="shape" result="effect1_innerShadow_101_29"/>
</filter>
<linearGradient id="paint0_linear_101_29" x1="309.701" y1="173.428" x2="3897.86" y2="1077.93" gradientUnits="userSpaceOnUse">
<stop stop-color="#FEB92F"/>
<stop offset="1" stop-color="#FA8841"/>
</linearGradient>
</defs>
</svg>
