<svg width="1770" height="1770" viewBox="0 0 1770 1770" fill="none" xmlns="http://www.w3.org/2000/svg">
<g filter="url(#filter0_i_101_165)">
<circle cx="884.857" cy="884.857" r="884.857" fill="#FEF2EA"/>
</g>
<ellipse cx="884.857" cy="816.176" rx="723.537" ry="683.481" fill="#FDD868"/>
<g filter="url(#filter1_i_101_165)">
<circle cx="851.727" cy="884.856" r="690.406" fill="url(#paint0_linear_101_165)"/>
</g>
<path d="M329.287 1037.06L203.021 1085.54L218.27 1125.26L351.664 1074.04L401.764 967.168L329.287 1037.06Z" fill="#FB5F09"/>
<path d="M351.198 1073.06L236.348 1117.8L244.586 1137.47L370.964 1085.11L401.799 967.234L351.198 1073.06Z" fill="#FFF0C6"/>
<path d="M1108.8 338.464C1120.02 313.822 1152.68 258.767 1193.55 235.688C1193.35 255.922 1176.12 304.806 1108.8 338.464Z" fill="#F76409"/>
<path d="M1109.34 338.354C1148.62 320.182 1188.31 252.924 1192.84 246.133C1194.31 273.652 1143.58 324.803 1109.34 338.354Z" fill="#FFF4C1"/>
<ellipse cx="94.0809" cy="66.2621" rx="94.0809" ry="66.2621" transform="matrix(0.621016 0.783798 -0.781139 0.624358 1387.71 385.594)" fill="white"/>
<ellipse cx="31.7644" cy="13.919" rx="31.7644" ry="13.919" transform="matrix(0.65471 0.75588 -0.752127 0.659018 1314.68 352.41)" fill="white"/>
<path d="M834.635 830.093C712.36 716.459 583.368 608.705 493 537.5C525 516.667 493 452.4 493 396C630.209 487.698 771.747 613.786 896.973 740.623C980.794 615.454 1054.21 486.584 1101 396C1101 440.333 1097.4 498.5 1185 498.5C1167.21 569.299 1079.5 689.727 970.253 816.831C1107.37 963.181 1216.79 1101.4 1266 1178.5C1236.17 1183.67 1201 1181.1 1185 1261.5C1170.13 1176.96 1047.59 1035.39 902.038 894.071C783.222 1025.28 652.025 1154.42 560.5 1235.28C569.667 1218.45 574.6 1189.4 505 1137C603.736 1111.86 724.3 981.884 834.635 830.093Z" fill="#F4BF9A"/>
<path d="M792.635 829.593C670.36 715.959 541.368 608.205 451 537C483 516.167 463 489.4 463 433C596.402 522.154 731.782 633.539 851.909 744.69C937.003 618.096 1011.64 487.186 1059 395.5C1059 439.833 1055.4 498 1143 498C1125.19 568.892 1037.27 689.542 927.824 816.83C1064.7 950.426 1173.55 1076.48 1223.5 1154.73C1193.67 1159.9 1159 1180.6 1143 1261C1128.13 1176.46 1005.59 1034.89 860.038 893.571C741.222 1024.78 610.025 1153.92 518.5 1234.78C527.667 1217.95 532.6 1188.9 463 1136.5C561.736 1111.36 682.3 981.384 792.635 829.593Z" fill="#FEF2EA"/>
<defs>
<filter id="filter0_i_101_165" x="-4" y="-4" width="1773.71" height="1773.71" filterUnits="userSpaceOnUse" color-interpolation-filters="sRGB">
<feFlood flood-opacity="0" result="BackgroundImageFix"/>
<feBlend mode="normal" in="SourceGraphic" in2="BackgroundImageFix" result="shape"/>
<feColorMatrix in="SourceAlpha" type="matrix" values="0 0 0 0 0 0 0 0 0 0 0 0 0 0 0 0 0 0 127 0" result="hardAlpha"/>
<feOffset dx="-34" dy="-63"/>
<feGaussianBlur stdDeviation="2"/>
<feComposite in2="hardAlpha" operator="arithmetic" k2="-1" k3="1"/>
<feColorMatrix type="matrix" values="0 0 0 0 0.956863 0 0 0 0 0.74902 0 0 0 0 0.603922 0 0 0 1 0"/>
<feBlend mode="normal" in2="shape" result="effect1_innerShadow_101_165"/>
</filter>
<filter id="filter1_i_101_165" x="157.32" y="190.449" width="1384.81" height="1384.81" filterUnits="userSpaceOnUse" color-interpolation-filters="sRGB">
<feFlood flood-opacity="0" result="BackgroundImageFix"/>
<feBlend mode="normal" in="SourceGraphic" in2="BackgroundImageFix" result="shape"/>
<feColorMatrix in="SourceAlpha" type="matrix" values="0 0 0 0 0 0 0 0 0 0 0 0 0 0 0 0 0 0 127 0" result="hardAlpha"/>
<feOffset dx="-11" dy="-100"/>
<feGaussianBlur stdDeviation="2"/>
<feComposite in2="hardAlpha" operator="arithmetic" k2="-1" k3="1"/>
<feColorMatrix type="matrix" values="0 0 0 0 0.976471 0 0 0 0 0.360784 0 0 0 0 0.0313726 0 0 0 1 0"/>
<feBlend mode="normal" in2="shape" result="effect1_innerShadow_101_165"/>
</filter>
<linearGradient id="paint0_linear_101_165" x1="161.32" y1="243.763" x2="1440.99" y2="1575.26" gradientUnits="userSpaceOnUse">
<stop stop-color="#FEB830"/>
<stop offset="1" stop-color="#FB8D40"/>
</linearGradient>
</defs>
</svg>
