<svg width="4576" height="1581" viewBox="0 0 4576 1581" fill="none" xmlns="http://www.w3.org/2000/svg">
<g filter="url(#filter0_d_101_74)">
<path d="M0.897262 262.86C-1.8993 -9.67392 259.422 -8.40871 423.851 4.20512C1435.76 20.3478 3579.71 55.5498 4060.22 67.2165C4540.73 78.8832 4587.24 281.106 4550.43 380.759L4364.58 1080.76C4321.49 1240.21 4100.06 1306.7 3994.74 1320.01L623.093 1511.97C349.048 1519.54 191.984 1412.09 147.708 1357.41C63.8162 1329.65 14.8793 616.145 0.897262 262.86Z" fill="#FEF2EA"/>
</g>
<path d="M240.856 325.588C238.354 92.3276 472.168 93.4105 619.289 104.207C1524.69 118.023 3442.97 148.152 3872.9 158.138C4302.83 168.123 4344.44 341.205 4311.51 426.498L4145.22 1025.63C4106.66 1162.1 3908.55 1219 3814.31 1230.4L797.56 1394.7C552.36 1401.18 411.829 1309.21 372.213 1262.41C297.152 1238.65 253.366 627.964 240.856 325.588Z" fill="#FDD868"/>
<path d="M486.189 1509.86L354.625 1222.42C441.086 1317.55 644.519 1296.52 715.682 1300.52C1417.91 1263.34 2918.6 1234.05 3443.12 1213.74C4098.76 1188.34 3951.69 1094.19 4048.42 968.095C4125.81 867.222 4294.73 553.217 4319.81 368.93L4509.33 547.178L4431.94 830.965C4341.39 1145.95 4400.66 1190.53 4048.42 1315.61C4048.42 1315.61 569.106 1538.14 486.189 1509.86Z" fill="#F4BF9A"/>
<g filter="url(#filter1_i_101_74)">
<path d="M240.856 380.329C238.354 165.819 472.168 166.815 619.289 176.743C1524.69 189.449 3442.97 217.156 3872.9 226.339C4302.83 235.522 4344.44 394.69 4311.51 473.127L4145.22 1024.09C4106.66 1149.59 3908.55 1201.92 3814.31 1212.4L797.56 1363.5C552.36 1369.46 411.829 1284.88 372.213 1241.84C297.152 1220 253.366 658.397 240.856 380.329Z" fill="url(#paint0_linear_101_74)"/>
</g>
<path d="M4038.79 636.553L4218.09 676.524L4205.98 730.859L4016.56 688.632L3927.06 558.999L4038.79 636.553Z" fill="#FB5F09"/>
<path d="M4025.01 690.931L4201.91 729.722L4195.62 746.559L4007.9 705.184L3929.38 563.466L4025.01 690.931Z" fill="#FFF0C6"/>
<ellipse cx="823.662" cy="179.552" rx="91.6231" ry="36.8002" fill="white"/>
<ellipse cx="647.301" cy="179.552" rx="34.6446" ry="13.9149" fill="white"/>
<ellipse cx="1017" cy="180.5" rx="60" ry="25.5" fill="white"/>
<path d="M3396 317.924C3413.53 283.176 3464.56 205.544 3528.42 173C3528.11 201.533 3501.19 270.463 3396 317.924Z" fill="#F76409"/>
<path d="M3650.63 1140.96C3639.14 1125.51 3614.9 1084.5 3609.81 1044C3620.92 1048.96 3644.64 1075.29 3650.63 1140.96Z" fill="#F76409"/>
<path d="M3396.82 317.768C3458.21 292.144 3520.23 197.305 3527.3 187.729C3529.6 226.533 3450.33 298.661 3396.82 317.768Z" fill="#FFF4C1"/>
<path d="M3650.66 1140.48C3647.98 1102.5 3618.33 1052.57 3615.43 1047.08C3630.87 1052.33 3649.58 1107.92 3650.66 1140.48Z" fill="#FFF4C1"/>
<path d="M1708.14 373.375C1682.61 373.375 1655.8 377.843 1627.71 387.418C1520.47 426.357 1459.19 551.47 1456 678.498C1454.09 749.992 1468.13 821.485 1502.6 875.743C1537.07 930.002 1591.33 967.663 1667.29 969.578C1711.97 970.855 1760.49 955.535 1797.51 921.065C1833.89 886.595 1859.43 833.613 1860.07 760.205L1898.36 758.928L1896.45 693.818L1737.51 705.308V709.138C1737.51 709.138 1740.7 737.863 1735.59 766.588C1733.04 781.27 1728.57 795.313 1720.91 805.527C1713.25 816.378 1703.04 822.762 1687.72 822.762C1666.01 822.123 1649.41 809.995 1636.65 790.845C1623.88 771.057 1615.58 743.608 1613.03 715.522C1610.48 686.797 1613.67 657.433 1622.61 632.538C1631.54 607.643 1646.22 587.217 1667.29 577.003C1704.31 559.768 1743.89 576.365 1775.17 597.43C1806.45 619.133 1828.15 644.667 1828.15 644.667L1831.98 649.773L1834.53 643.39L1892.62 465.295L1891.98 463.38C1876.02 441.038 1842.19 411.037 1796.23 391.887C1770.06 381.035 1740.7 374.013 1708.14 373.375ZM2155.69 388.695L1952.7 426.357V429.548L1957.81 954.258L2104.63 949.152L2155.69 388.695ZM2512.7 388.695L2429.72 773.61L2387.59 393.163L2184.6 412.952L2185.24 417.42L2337.16 954.258L2508.87 945.96L2702.92 426.357L2512.7 388.695ZM3078.03 388.695L2748.65 409.122C2742.91 587.855 2737.16 775.525 2731.42 954.258L3047.39 952.343L3041.65 768.503L2887.81 811.91L2894.83 727.012L3012.92 723.82L3015.48 656.157L2903.13 661.902L2910.15 574.45L3055.69 577.642L3078.03 388.695Z" fill="white"/>
<path d="M1708.14 373.375L1708.49 355.378L1708.32 355.375H1708.14V373.375ZM1627.71 387.418L1621.9 370.381L1621.74 370.438L1621.57 370.499L1627.71 387.418ZM1456 678.498L1473.99 678.98L1473.99 678.965L1473.99 678.95L1456 678.498ZM1667.29 969.578L1667.8 951.586L1667.77 951.585L1667.74 951.584L1667.29 969.578ZM1797.51 921.065L1809.77 934.239L1809.83 934.186L1809.89 934.132L1797.51 921.065ZM1860.07 760.205L1859.47 742.215L1842.22 742.79L1842.07 760.048L1860.07 760.205ZM1898.36 758.928L1898.96 776.918L1916.88 776.321L1916.36 758.399L1898.36 758.928ZM1896.45 693.818L1914.44 693.289L1913.89 674.511L1895.15 675.865L1896.45 693.818ZM1737.51 705.308L1736.21 687.355L1719.51 688.563V705.308H1737.51ZM1737.51 709.138H1719.51V710.135L1719.62 711.126L1737.51 709.138ZM1735.59 766.588L1717.87 763.438L1717.86 763.471L1717.86 763.504L1735.59 766.588ZM1720.91 805.527L1706.51 794.727L1706.35 794.934L1706.2 795.146L1720.91 805.527ZM1687.72 822.762L1687.19 840.754L1687.45 840.762H1687.72V822.762ZM1636.65 790.845L1621.52 800.603L1621.6 800.717L1621.67 800.83L1636.65 790.845ZM1613.03 715.522L1595.1 717.115L1595.1 717.133L1595.1 717.151L1613.03 715.522ZM1622.6 632.538L1605.66 626.457L1622.6 632.538ZM1667.29 577.003L1659.69 560.685L1659.56 560.745L1659.44 560.807L1667.29 577.003ZM1775.17 597.43L1785.43 582.641L1785.33 582.57L1785.22 582.5L1775.17 597.43ZM1828.15 644.667L1842.55 633.867L1842.22 633.427L1841.86 633.009L1828.15 644.667ZM1831.98 649.773L1817.58 660.573L1836.8 686.196L1848.69 656.458L1831.98 649.773ZM1834.53 643.39L1851.24 650.075L1851.46 649.53L1851.64 648.972L1834.53 643.39ZM1892.62 465.295L1909.73 470.877L1911.57 465.234L1909.7 459.603L1892.62 465.295ZM1891.98 463.38L1909.06 457.688L1908.2 455.12L1906.63 452.918L1891.98 463.38ZM1796.23 391.887L1803.15 375.271L1803.14 375.265L1803.13 375.259L1796.23 391.887ZM1708.14 355.375C1680.47 355.375 1651.7 360.222 1621.9 370.381L1633.52 404.456C1659.89 395.465 1684.74 391.375 1708.14 391.375V355.375ZM1621.57 370.499C1504.53 412.995 1441.29 547.175 1438.01 678.046L1473.99 678.95C1477.09 555.765 1536.41 439.719 1633.85 404.338L1621.57 370.499ZM1438.01 678.016C1436.03 751.803 1450.42 827.183 1487.41 885.396L1517.79 866.091C1485.83 815.787 1472.14 748.18 1473.99 678.98L1438.01 678.016ZM1487.41 885.396C1524.71 944.109 1584.19 985.489 1666.83 987.573L1667.74 951.584C1598.46 949.838 1549.43 915.894 1517.79 866.091L1487.41 885.396ZM1666.77 987.571C1715.72 988.969 1768.96 972.235 1809.77 934.239L1785.24 907.891C1752.01 938.835 1708.22 952.741 1667.8 951.586L1666.77 987.571ZM1809.89 934.132C1850.19 895.953 1877.39 838.13 1878.06 760.362L1842.07 760.048C1841.47 829.097 1817.6 877.237 1785.13 907.998L1809.89 934.132ZM1860.66 778.195L1898.96 776.918L1897.77 740.938L1859.47 742.215L1860.66 778.195ZM1916.36 758.399L1914.44 693.289L1878.46 694.348L1880.37 759.458L1916.36 758.399ZM1895.15 675.865L1736.21 687.355L1738.8 723.261L1897.75 711.771L1895.15 675.865ZM1719.51 705.308V709.138H1755.51V705.308H1719.51ZM1737.51 709.138C1719.62 711.126 1719.61 711.124 1719.61 711.121C1719.61 711.121 1719.61 711.119 1719.61 711.117C1719.61 711.115 1719.61 711.113 1719.61 711.111C1719.61 711.108 1719.61 711.107 1719.61 711.107C1719.61 711.107 1719.61 711.114 1719.62 711.128C1719.62 711.156 1719.62 711.211 1719.63 711.291C1719.65 711.451 1719.67 711.715 1719.71 712.075C1719.77 712.795 1719.87 713.899 1719.97 715.33C1720.17 718.196 1720.39 722.351 1720.46 727.358C1720.61 737.471 1720.15 750.598 1717.87 763.438L1753.31 769.739C1756.14 753.854 1756.63 738.255 1756.46 726.825C1756.38 721.06 1756.12 716.238 1755.88 712.821C1755.76 711.11 1755.65 709.745 1755.56 708.782C1755.51 708.301 1755.47 707.919 1755.45 707.645C1755.43 707.508 1755.42 707.398 1755.41 707.315C1755.41 707.274 1755.4 707.239 1755.4 707.212C1755.4 707.198 1755.4 707.186 1755.4 707.176C1755.4 707.171 1755.4 707.166 1755.4 707.162C1755.4 707.16 1755.4 707.157 1755.4 707.156C1755.4 707.153 1755.39 707.151 1737.51 709.138ZM1717.86 763.504C1715.5 777.058 1711.68 787.837 1706.51 794.727L1735.31 816.327C1745.46 802.79 1750.57 785.482 1753.32 769.672L1717.86 763.504ZM1706.2 795.146C1701.59 801.676 1696.65 804.762 1687.72 804.762V840.762C1709.42 840.762 1724.9 831.081 1735.61 815.907L1706.2 795.146ZM1688.24 804.769C1674.15 804.355 1662.29 796.861 1651.63 780.86L1621.67 800.83C1636.54 823.129 1657.87 839.892 1687.19 840.754L1688.24 804.769ZM1651.77 781.087C1640.97 764.34 1633.32 739.885 1630.96 713.892L1595.1 717.151C1597.85 747.331 1606.79 777.774 1621.52 800.603L1651.77 781.087ZM1630.96 713.928C1628.6 687.427 1631.61 660.727 1639.55 638.62L1605.66 626.457C1595.73 654.14 1592.35 686.166 1595.1 717.115L1630.96 713.928ZM1639.55 638.62C1647.54 616.342 1659.78 600.649 1675.14 593.2L1659.44 560.807C1632.67 573.784 1615.54 598.945 1605.66 626.457L1639.55 638.62ZM1674.88 593.322C1702.64 580.401 1734.69 591.871 1765.11 612.36L1785.22 582.5C1753.09 560.859 1705.98 539.136 1659.69 560.685L1674.88 593.322ZM1764.91 612.219C1779.49 622.339 1791.96 633.443 1800.83 642.079C1805.24 646.378 1808.71 650.017 1811.04 652.549C1812.21 653.814 1813.09 654.799 1813.67 655.448C1813.95 655.772 1814.16 656.012 1814.29 656.16C1814.36 656.235 1814.4 656.286 1814.42 656.314C1814.44 656.328 1814.44 656.335 1814.44 656.337C1814.45 656.338 1814.44 656.337 1814.44 656.335C1814.44 656.334 1814.44 656.333 1814.44 656.331C1814.44 656.33 1814.44 656.328 1814.44 656.328C1814.44 656.326 1814.43 656.324 1828.15 644.667C1841.86 633.009 1841.86 633.007 1841.86 633.005C1841.86 633.004 1841.86 633.002 1841.86 633C1841.85 632.997 1841.85 632.993 1841.85 632.989C1841.84 632.98 1841.83 632.97 1841.82 632.959C1841.8 632.936 1841.78 632.907 1841.75 632.872C1841.69 632.801 1841.6 632.707 1841.5 632.589C1841.3 632.353 1841.01 632.023 1840.64 631.607C1839.91 630.774 1838.85 629.595 1837.49 628.127C1834.78 625.193 1830.87 621.092 1825.95 616.295C1816.14 606.739 1802.12 594.225 1785.43 582.641L1764.91 612.219ZM1813.75 655.467L1817.58 660.573L1846.38 638.973L1842.55 633.867L1813.75 655.467ZM1848.69 656.458L1851.24 650.075L1817.82 636.705L1815.27 643.088L1848.69 656.458ZM1851.64 648.972L1909.73 470.877L1875.51 459.713L1817.42 637.808L1851.64 648.972ZM1909.7 459.603L1909.06 457.688L1874.91 469.072L1875.54 470.987L1909.7 459.603ZM1906.63 452.918C1888.6 427.68 1852.02 395.632 1803.15 375.271L1789.31 408.502C1832.36 426.441 1863.44 454.396 1877.33 473.842L1906.63 452.918ZM1803.13 375.259C1775.06 363.621 1743.48 356.064 1708.49 355.378L1707.79 391.372C1737.91 391.962 1765.06 398.449 1789.34 408.514L1803.13 375.259ZM2155.69 388.695L2173.62 390.328L2175.78 366.662L2152.41 370.997L2155.69 388.695ZM1952.7 426.357L1949.42 408.659L1934.7 411.389V426.357H1952.7ZM1952.7 429.548H1934.7V429.636L1934.7 429.724L1952.7 429.548ZM1957.81 954.258L1939.81 954.434L1939.99 972.889L1958.44 972.247L1957.81 954.258ZM2104.63 949.152L2105.25 967.141L2121.11 966.589L2122.55 950.785L2104.63 949.152ZM2152.41 370.997L1949.42 408.659L1955.99 444.055L2158.98 406.393L2152.41 370.997ZM1934.7 426.357V429.548H1970.7V426.357H1934.7ZM1934.7 429.724L1939.81 954.434L1975.81 954.083L1970.7 429.373L1934.7 429.724ZM1958.44 972.247L2105.25 967.141L2104 931.163L1957.18 936.269L1958.44 972.247ZM2122.55 950.785L2173.62 390.328L2137.77 387.062L2086.7 947.518L2122.55 950.785ZM2512.7 388.695L2516.2 371.038L2498.84 367.6L2495.11 384.902L2512.7 388.695ZM2429.72 773.61L2411.83 775.591L2447.31 777.403L2429.72 773.61ZM2387.59 393.163L2405.48 391.182L2403.52 373.525L2385.84 375.248L2387.59 393.163ZM2184.6 412.952L2182.85 395.037L2164.12 396.863L2166.78 415.497L2184.6 412.952ZM2185.24 417.42L2167.42 419.966L2167.59 421.16L2167.92 422.321L2185.24 417.42ZM2337.16 954.258L2319.84 959.16L2323.74 972.928L2338.03 972.237L2337.16 954.258ZM2508.87 945.96L2509.74 963.939L2521.58 963.367L2525.73 952.258L2508.87 945.96ZM2702.92 426.357L2719.79 432.654L2727.2 412.813L2706.42 408.699L2702.92 426.357ZM2495.11 384.902L2412.12 769.817L2447.31 777.403L2530.3 392.488L2495.11 384.902ZM2447.61 771.629L2405.48 391.182L2369.7 395.145L2411.83 775.591L2447.61 771.629ZM2385.84 375.248L2182.85 395.037L2186.34 430.867L2389.33 411.078L2385.84 375.248ZM2166.78 415.497L2167.42 419.966L2203.06 414.874L2202.42 410.406L2166.78 415.497ZM2167.92 422.321L2319.84 959.16L2354.48 949.357L2202.56 412.519L2167.92 422.321ZM2338.03 972.237L2509.74 963.939L2508 927.981L2336.29 936.279L2338.03 972.237ZM2525.73 952.258L2719.79 432.654L2686.06 420.059L2492.01 939.662L2525.73 952.258ZM2706.42 408.699L2516.2 371.038L2509.21 406.352L2699.43 444.014L2706.42 408.699ZM3078.03 388.695L3095.91 390.809L3098.44 369.395L3076.92 370.729L3078.03 388.695ZM2748.65 409.122L2747.54 391.156L2731.19 392.17L2730.66 408.543L2748.65 409.122ZM2731.42 954.258L2713.43 953.68L2712.83 972.371L2731.53 972.258L2731.42 954.258ZM3047.39 952.343L3047.5 970.343L3065.96 970.231L3065.39 951.781L3047.39 952.343ZM3041.65 768.503L3059.64 767.941L3058.92 744.927L3036.76 751.18L3041.65 768.503ZM2887.81 811.91L2869.87 810.426L2867.73 836.278L2892.7 829.234L2887.81 811.91ZM2894.83 727.012L2894.35 709.018L2878.22 709.454L2876.89 725.528L2894.83 727.012ZM3012.92 723.82L3013.41 741.813L3030.28 741.358L3030.91 724.499L3012.92 723.82ZM3015.48 656.157L3033.47 656.835L3034.21 637.175L3014.56 638.18L3015.48 656.157ZM2903.13 661.902L2885.19 660.461L2883.55 680.927L2904.05 679.878L2903.13 661.902ZM2910.15 574.45L2910.55 556.454L2893.57 556.082L2892.21 573.009L2910.15 574.45ZM3055.69 577.642L3055.3 595.637L3071.65 595.996L3073.57 579.755L3055.69 577.642ZM3076.92 370.729L2747.54 391.156L2749.77 427.087L3079.15 406.66L3076.92 370.729ZM2730.66 408.543C2727.79 497.918 2724.92 589.526 2722.05 681.126C2719.17 772.728 2716.3 864.322 2713.43 953.68L2749.41 954.837C2752.28 865.462 2755.16 773.854 2758.03 682.254C2760.9 590.652 2763.77 499.058 2766.65 409.7L2730.66 408.543ZM2731.53 972.258L3047.5 970.343L3047.29 934.344L2731.31 936.259L2731.53 972.258ZM3065.39 951.781L3059.64 767.941L3023.66 769.066L3029.4 952.906L3065.39 951.781ZM3036.76 751.18L2882.92 794.586L2892.7 829.234L3046.54 785.827L3036.76 751.18ZM2905.75 813.394L2912.77 728.495L2876.89 725.528L2869.87 810.426L2905.75 813.394ZM2895.32 745.005L3013.41 741.813L3012.44 705.827L2894.35 709.018L2895.32 745.005ZM3030.91 724.499L3033.47 656.835L2997.49 655.478L2994.94 723.141L3030.91 724.499ZM3014.56 638.18L2902.21 643.925L2904.05 679.878L3016.4 674.133L3014.56 638.18ZM2921.07 663.342L2928.1 575.891L2892.21 573.009L2885.19 660.461L2921.07 663.342ZM2909.76 592.446L3055.3 595.637L3056.09 559.646L2910.55 556.454L2909.76 592.446ZM3073.57 579.755L3095.91 390.809L3060.16 386.581L3037.82 575.528L3073.57 579.755Z" fill="#E56B1E"/>
<defs>
<filter id="filter0_d_101_74" x="0.875" y="0.0273438" width="4574.39" height="1580.33" filterUnits="userSpaceOnUse" color-interpolation-filters="sRGB">
<feFlood flood-opacity="0" result="BackgroundImageFix"/>
<feColorMatrix in="SourceAlpha" type="matrix" values="0 0 0 0 0 0 0 0 0 0 0 0 0 0 0 0 0 0 127 0" result="hardAlpha"/>
<feOffset dx="11" dy="64"/>
<feGaussianBlur stdDeviation="2"/>
<feComposite in2="hardAlpha" operator="out"/>
<feColorMatrix type="matrix" values="0 0 0 0 0.808333 0 0 0 0 0.767917 0 0 0 0 0.740972 0 0 0 1 0"/>
<feBlend mode="normal" in2="BackgroundImageFix" result="effect1_dropShadow_101_74"/>
<feBlend mode="normal" in="SourceGraphic" in2="effect1_dropShadow_101_74" result="shape"/>
</filter>
<filter id="filter1_i_101_74" x="240.836" y="173.455" width="4079.48" height="1190.34" filterUnits="userSpaceOnUse" color-interpolation-filters="sRGB">
<feFlood flood-opacity="0" result="BackgroundImageFix"/>
<feBlend mode="normal" in="SourceGraphic" in2="BackgroundImageFix" result="shape"/>
<feColorMatrix in="SourceAlpha" type="matrix" values="0 0 0 0 0 0 0 0 0 0 0 0 0 0 0 0 0 0 127 0" result="hardAlpha"/>
<feOffset dx="10" dy="-139"/>
<feComposite in2="hardAlpha" operator="arithmetic" k2="-1" k3="1"/>
<feColorMatrix type="matrix" values="0 0 0 0 0.976471 0 0 0 0 0.360784 0 0 0 0 0.0313726 0 0 0 1 0"/>
<feBlend mode="normal" in2="shape" result="effect1_innerShadow_101_74"/>
</filter>
<linearGradient id="paint0_linear_101_74" x1="344.074" y1="173.455" x2="4266.87" y2="1269.26" gradientUnits="userSpaceOnUse">
<stop stop-color="#FEB92F"/>
<stop offset="1" stop-color="#FA8841"/>
</linearGradient>
</defs>
</svg>
