<svg width="4575" height="1581" viewBox="0 0 4575 1581" fill="none" xmlns="http://www.w3.org/2000/svg">
<g filter="url(#filter0_d_5_448)">
<path d="M0.022262 262.833C-2.7743 -9.70126 258.547 -8.43605 422.976 4.17778C1434.89 20.3205 3578.84 55.5225 4059.35 67.1892C4539.86 78.8559 4586.36 281.079 4549.55 380.732L4363.71 1080.73C4320.61 1240.18 4099.19 1306.67 3993.87 1319.98L622.218 1511.95C348.173 1519.52 191.109 1412.06 146.833 1357.38C62.9412 1329.63 14.0043 616.117 0.022262 262.833Z" fill="#FEF2EA"/>
</g>
<path d="M239.981 325.561C237.479 92.3002 471.293 93.3831 618.414 104.179C1523.81 117.996 3442.09 148.125 3872.02 158.111C4301.96 168.096 4343.57 341.178 4310.63 426.471L4144.35 1025.6C4105.79 1162.07 3907.67 1218.98 3813.44 1230.37L796.685 1394.67C551.485 1401.15 410.954 1309.18 371.338 1262.38C296.277 1238.63 252.491 627.936 239.981 325.561Z" fill="#FDD868"/>
<path d="M485.314 1509.83L353.75 1222.39C440.211 1317.52 643.644 1296.5 714.807 1300.49C1417.03 1263.31 2917.72 1234.02 3442.24 1213.71C4097.89 1188.32 3950.81 1094.16 4047.55 968.067C4124.93 867.194 4293.86 553.189 4318.94 368.902L4508.45 547.151L4431.07 830.938C4340.51 1145.93 4399.79 1190.5 4047.55 1315.58C4047.55 1315.58 568.231 1538.11 485.314 1509.83Z" fill="#F4BF9A"/>
<g filter="url(#filter1_i_5_448)">
<path d="M239.981 380.302C237.479 165.792 471.293 166.788 618.414 176.716C1523.81 189.422 3442.09 217.129 3872.02 226.312C4301.96 235.495 4343.57 394.663 4310.63 473.099L4144.35 1024.07C4105.79 1149.56 3907.67 1201.9 3813.44 1212.38L796.685 1363.47C551.485 1369.43 410.954 1284.85 371.338 1241.82C296.277 1219.97 252.491 658.37 239.981 380.302Z" fill="url(#paint0_linear_5_448)"/>
</g>
<path d="M466.53 733.388H270.391V789.056H477.602L600.98 682.002L466.53 733.388Z" fill="#FB5F09"/>
<path d="M476.677 789.464L295.57 788.834L298.051 806.636L490.27 807.097L597.747 685.859L476.677 789.464Z" fill="#FFF0C6"/>
<ellipse cx="822.787" cy="179.525" rx="91.6231" ry="36.8002" fill="white"/>
<ellipse cx="646.426" cy="179.524" rx="34.6446" ry="13.9149" fill="white"/>
<path d="M2364.89 310.533C2382.42 275.785 2433.45 198.154 2497.31 165.609C2497 194.142 2470.08 263.073 2364.89 310.533Z" fill="#F76409"/>
<path d="M2365.71 310.377C2427.09 284.753 2489.12 189.914 2496.19 180.338C2498.49 219.142 2419.22 291.27 2365.71 310.377Z" fill="#FFF4C1"/>
<path d="M942.053 399.695L748 411.185V414.377L749.915 955.683L899.923 951.853L908.222 794.823L1062.06 965.258L1222.28 861.848L1014.82 688.86L1247.18 436.08L1031.42 425.228L912.69 610.983L942.053 399.695ZM1479.11 399.695L1276.12 437.357V440.548L1281.23 965.258L1428.04 960.152L1479.11 399.695ZM1956.13 399.695L1527.8 424.59V427.782L1508.02 591.195L1658.66 572.045L1622.28 965.258L1805.48 949.3L1795.27 560.555L1928.04 563.747L1956.13 399.695ZM2230.95 384.375C2227.12 384.375 2223.93 384.375 2220.1 385.013C2141.58 388.843 2080.3 427.143 2038.17 482.04C1995.4 536.298 1971.78 607.792 1967.95 679.285C1963.49 751.417 1978.17 822.91 2013.91 879.083C2049.02 934.618 2105.2 973.557 2181.8 979.94C2297.97 988.877 2386.06 918.66 2386.06 918.66L2388.62 917.383L2316.48 716.308L2312.65 723.33C2312.65 723.33 2296.7 749.502 2271.8 773.758C2247.54 798.015 2213.71 818.442 2177.97 808.867C2158.18 803.76 2144.13 787.802 2135.2 766.098C2126.26 744.395 2123.07 716.308 2125.62 688.86C2127.54 661.412 2135.84 633.963 2148.6 611.622C2161.37 589.918 2178.6 573.96 2200.95 568.215C2229.03 561.832 2258.4 573.96 2280.1 588.642C2302.44 603.323 2317.12 619.92 2317.12 619.92L2320.95 624.388L2323.51 619.282L2396.91 449.485L2395 447.57C2395 447.57 2337.55 385.013 2230.95 384.375ZM2626.94 399.695L2425.87 418.207V421.398L2442.47 953.13L2575.88 965.897L2592.47 762.268L2709.93 750.14L2708.01 965.258L2846.53 958.237L2900.15 399.695L2709.93 416.292V618.643L2607.79 619.92L2626.94 399.695ZM3275.17 399.695L2945.79 420.122C2940.05 598.855 2934.3 786.525 2928.56 965.258L3244.53 963.343L3238.79 779.503L3084.95 822.91L3091.97 738.012L3210.06 734.82L3212.61 667.157L3100.27 672.902L3107.29 585.45L3252.83 588.642L3275.17 399.695ZM3590.05 399.695L3601.54 714.393L3463.66 400.972L3329.61 415.015L3328.97 418.207L3304.08 965.258L3509.62 951.215L3471.96 661.412L3616.22 967.173L3726.65 958.237L3786.02 410.547L3590.05 399.695Z" fill="white"/>
<path d="M942.053 399.695L959.882 402.173L962.904 380.429L940.989 381.726L942.053 399.695ZM748 411.185L746.936 393.216L730 394.219V411.185H748ZM748 414.377H730V414.408L730 414.44L748 414.377ZM749.915 955.683L731.915 955.747L731.98 974.147L750.374 973.677L749.915 955.683ZM899.923 951.853L900.383 969.847L917.02 969.423L917.898 952.803L899.923 951.853ZM908.222 794.823L921.584 782.763L892.535 750.58L890.247 793.873L908.222 794.823ZM1062.06 965.258L1048.7 977.319L1058.96 988.685L1071.82 980.382L1062.06 965.258ZM1222.28 861.848L1232.04 876.972L1252.61 863.699L1233.81 848.024L1222.28 861.848ZM1014.82 688.86L1001.57 676.679L988.787 690.587L1003.3 702.685L1014.82 688.86ZM1247.18 436.08L1260.43 448.261L1286.38 420.029L1248.08 418.103L1247.18 436.08ZM1031.42 425.228L1032.32 407.251L1021.88 406.726L1016.25 415.534L1031.42 425.228ZM912.69 610.983L894.861 608.506L927.857 620.677L912.69 610.983ZM940.989 381.726L746.936 393.216L749.064 429.154L943.117 417.664L940.989 381.726ZM730 411.185V414.377H766V411.185H730ZM730 414.44L731.915 955.747L767.915 955.62L766 414.313L730 414.44ZM750.374 973.677L900.383 969.847L899.464 933.859L749.456 937.689L750.374 973.677ZM917.898 952.803L926.197 795.773L890.247 793.873L881.948 950.903L917.898 952.803ZM894.86 806.884L1048.7 977.319L1075.42 953.198L921.584 782.763L894.86 806.884ZM1071.82 980.382L1232.04 876.972L1212.52 846.725L1052.3 950.135L1071.82 980.382ZM1233.81 848.024L1026.35 675.035L1003.3 702.685L1210.75 875.673L1233.81 848.024ZM1028.08 701.041L1260.43 448.261L1233.92 423.899L1001.57 676.679L1028.08 701.041ZM1248.08 418.103L1032.32 407.251L1030.52 443.206L1246.27 454.057L1248.08 418.103ZM1016.25 415.534L897.523 601.289L927.857 620.677L1046.59 434.922L1016.25 415.534ZM930.519 613.461L959.882 402.173L924.225 397.217L894.861 608.506L930.519 613.461ZM1479.11 399.695L1497.04 401.328L1499.19 377.662L1475.83 381.997L1479.11 399.695ZM1276.12 437.357L1272.84 419.659L1258.12 422.389V437.357H1276.12ZM1276.12 440.548H1258.12V440.636L1258.12 440.724L1276.12 440.548ZM1281.23 965.258L1263.23 965.434L1263.41 983.889L1281.85 983.247L1281.23 965.258ZM1428.04 960.152L1428.67 978.141L1444.53 977.589L1445.97 961.785L1428.04 960.152ZM1475.83 381.997L1272.84 419.659L1279.4 455.055L1482.39 417.393L1475.83 381.997ZM1258.12 437.357V440.548H1294.12V437.357H1258.12ZM1258.12 440.724L1263.23 965.434L1299.23 965.083L1294.12 440.373L1258.12 440.724ZM1281.85 983.247L1428.67 978.141L1427.42 942.163L1280.6 947.269L1281.85 983.247ZM1445.97 961.785L1497.04 401.328L1461.19 398.062L1410.12 958.518L1445.97 961.785ZM1956.13 399.695L1973.87 402.733L1977.69 380.411L1955.08 381.725L1956.13 399.695ZM1527.8 424.59L1526.76 406.62L1509.8 407.606V424.59H1527.8ZM1527.8 427.782L1545.67 429.946L1545.8 428.868V427.782H1527.8ZM1508.02 591.195L1490.15 589.031L1487.37 611.964L1510.29 609.051L1508.02 591.195ZM1658.66 572.045L1676.59 573.703L1678.65 551.359L1656.39 554.189L1658.66 572.045ZM1622.28 965.258L1604.35 963.6L1602.37 985.061L1623.84 983.19L1622.28 965.258ZM1805.48 949.3L1807.04 967.232L1823.92 965.762L1823.47 948.827L1805.48 949.3ZM1795.27 560.555L1795.7 542.56L1776.77 542.105L1777.27 561.028L1795.27 560.555ZM1928.04 563.747L1927.61 581.741L1943.16 582.115L1945.78 566.784L1928.04 563.747ZM1955.08 381.725L1526.76 406.62L1528.85 442.56L1957.17 417.665L1955.08 381.725ZM1509.8 424.59V427.782H1545.8V424.59H1509.8ZM1509.93 425.618L1490.15 589.031L1525.89 593.359L1545.67 429.946L1509.93 425.618ZM1510.29 609.051L1660.93 589.901L1656.39 554.189L1505.75 573.339L1510.29 609.051ZM1640.74 570.386L1604.35 963.6L1640.2 966.917L1676.59 573.703L1640.74 570.386ZM1623.84 983.19L1807.04 967.232L1803.92 931.368L1620.72 947.326L1623.84 983.19ZM1823.47 948.827L1813.26 560.082L1777.27 561.028L1787.49 949.773L1823.47 948.827ZM1794.83 578.55L1927.61 581.741L1928.47 545.752L1795.7 542.56L1794.83 578.55ZM1945.78 566.784L1973.87 402.733L1938.38 396.657L1910.3 560.709L1945.78 566.784ZM2230.95 384.375L2231.06 366.375L2231 366.375H2230.95V384.375ZM2220.1 385.013L2220.97 402.992L2222.02 402.941L2223.06 402.768L2220.1 385.013ZM2038.17 482.04L2052.31 493.183L2052.38 493.091L2052.45 492.999L2038.17 482.04ZM1967.95 679.285L1985.92 680.398L1985.92 680.323L1985.93 680.248L1967.95 679.285ZM2013.91 879.083L2029.13 869.465L2029.11 869.442L2029.1 869.42L2013.91 879.083ZM2181.8 979.94L2180.3 997.878L2180.36 997.883L2180.42 997.887L2181.8 979.94ZM2386.06 918.66L2378.01 902.56L2376.32 903.406L2374.84 904.584L2386.06 918.66ZM2388.62 917.383L2396.67 933.483L2410.95 926.34L2405.56 911.305L2388.62 917.383ZM2316.48 716.308L2333.43 710.23L2319.89 672.482L2300.68 707.689L2316.48 716.308ZM2312.65 723.33L2328.02 732.701L2328.25 732.33L2328.46 731.949L2312.65 723.33ZM2271.8 773.758L2259.24 760.866L2259.16 760.948L2259.07 761.03L2271.8 773.758ZM2177.97 808.867L2182.62 791.48L2182.54 791.458L2182.46 791.438L2177.97 808.867ZM2135.2 766.098L2118.55 772.952L2135.2 766.098ZM2125.62 688.86L2143.55 690.527L2143.56 690.32L2143.58 690.113L2125.62 688.86ZM2148.6 611.622L2133.09 602.495L2133.03 602.593L2132.97 602.691L2148.6 611.622ZM2200.95 568.215L2196.96 550.663L2196.71 550.719L2196.46 550.782L2200.95 568.215ZM2280.1 588.642L2270.01 603.551L2270.11 603.618L2270.21 603.684L2280.1 588.642ZM2317.12 619.92L2330.79 608.206L2330.7 608.099L2330.6 607.994L2317.12 619.92ZM2320.95 624.388L2307.29 636.103L2324.93 656.686L2337.05 632.438L2320.95 624.388ZM2323.51 619.282L2339.61 627.332L2339.83 626.884L2340.03 626.425L2323.51 619.282ZM2396.91 449.485L2413.44 456.628L2418.29 445.404L2409.64 436.757L2396.91 449.485ZM2395 447.57L2381.74 459.745L2382 460.027L2382.27 460.298L2395 447.57ZM2230.95 366.375C2227.22 366.375 2222.63 366.343 2217.14 367.258L2223.06 402.768C2225.22 402.407 2227.01 402.375 2230.95 402.375V366.375ZM2219.22 367.035C2134.77 371.154 2068.82 412.534 2023.89 471.081L2052.45 492.999C2091.78 441.752 2148.39 406.533 2220.97 402.992L2219.22 367.035ZM2024.04 470.897C1978.6 528.539 1953.97 603.763 1949.98 678.322L1985.93 680.248C1989.59 611.82 2012.21 544.058 2052.31 493.183L2024.04 470.897ZM1949.99 678.172C1945.34 753.24 1960.52 828.708 1998.73 888.747L2029.1 869.42C1995.81 817.112 1981.63 749.594 1985.92 680.398L1949.99 678.172ZM1998.7 888.702C2036.64 948.715 2097.74 990.998 2180.3 997.878L2183.29 962.002C2112.65 956.116 2061.41 920.521 2029.13 869.465L1998.7 888.702ZM2180.42 997.887C2242.42 1002.66 2296.57 986.298 2334.88 969.067C2354.09 960.427 2369.51 951.484 2380.18 944.655C2385.53 941.237 2389.7 938.338 2392.59 936.254C2394.03 935.213 2395.15 934.374 2395.94 933.775C2396.33 933.476 2396.64 933.237 2396.87 933.062C2396.98 932.974 2397.07 932.903 2397.14 932.849C2397.17 932.821 2397.2 932.798 2397.23 932.779C2397.24 932.77 2397.25 932.761 2397.26 932.754C2397.26 932.751 2397.27 932.746 2397.27 932.744C2397.28 932.74 2397.28 932.736 2386.06 918.66C2374.84 904.584 2374.85 904.581 2374.85 904.578C2374.85 904.577 2374.86 904.574 2374.86 904.572C2374.86 904.569 2374.87 904.567 2374.87 904.566C2374.87 904.564 2374.87 904.567 2374.86 904.573C2374.84 904.586 2374.8 904.615 2374.75 904.661C2374.63 904.751 2374.43 904.905 2374.15 905.117C2373.59 905.543 2372.71 906.204 2371.52 907.065C2369.13 908.787 2365.51 911.303 2360.79 914.328C2351.31 920.386 2337.45 928.438 2320.11 936.235C2285.33 951.878 2237.35 966.16 2183.18 961.993L2180.42 997.887ZM2394.11 934.76L2396.67 933.483L2380.57 901.284L2378.01 902.56L2394.11 934.76ZM2405.56 911.305L2333.43 710.23L2299.54 722.386L2371.67 923.461L2405.56 911.305ZM2300.68 707.689L2296.85 714.711L2328.46 731.949L2332.29 724.928L2300.68 707.689ZM2312.65 723.33C2297.29 713.959 2297.29 713.957 2297.29 713.955C2297.29 713.955 2297.29 713.953 2297.29 713.952C2297.29 713.95 2297.29 713.948 2297.29 713.947C2297.3 713.944 2297.3 713.943 2297.3 713.944C2297.29 713.945 2297.29 713.953 2297.28 713.966C2297.27 713.994 2297.23 714.045 2297.19 714.12C2297.09 714.27 2296.94 714.515 2296.73 714.846C2296.31 715.51 2295.66 716.521 2294.79 717.826C2293.05 720.439 2290.45 724.215 2287.11 728.725C2280.38 737.79 2270.8 749.604 2259.24 760.866L2284.36 786.65C2297.7 773.656 2308.54 760.256 2316.02 750.171C2319.78 745.106 2322.73 740.823 2324.76 737.771C2325.77 736.243 2326.56 735.02 2327.11 734.158C2327.39 733.726 2327.6 733.384 2327.75 733.139C2327.83 733.017 2327.89 732.919 2327.93 732.845C2327.96 732.809 2327.98 732.778 2327.99 732.754C2328 732.742 2328 732.732 2328.01 732.723C2328.01 732.718 2328.02 732.714 2328.02 732.711C2328.02 732.709 2328.02 732.706 2328.02 732.705C2328.02 732.703 2328.02 732.701 2312.65 723.33ZM2259.07 761.03C2236.09 784.012 2208.71 798.467 2182.62 791.48L2173.31 826.254C2218.72 838.416 2259 812.018 2284.53 786.486L2259.07 761.03ZM2182.46 791.438C2170.2 788.271 2159.57 778.01 2151.84 759.245L2118.55 772.952C2128.7 797.593 2146.16 819.249 2173.47 826.296L2182.46 791.438ZM2151.84 759.245C2144.27 740.846 2141.19 715.81 2143.55 690.527L2107.7 687.193C2104.95 716.807 2108.26 747.944 2118.55 772.952L2151.84 759.245ZM2143.58 690.113C2145.31 665.266 2152.86 640.456 2164.23 620.552L2132.97 602.691C2118.82 627.47 2109.76 657.558 2107.67 687.607L2143.58 690.113ZM2164.12 620.748C2175.32 601.705 2189.14 589.835 2205.43 585.648L2196.46 550.782C2168.07 558.085 2147.42 578.132 2133.09 602.495L2164.12 620.748ZM2204.94 585.767C2225.8 581.025 2249.87 589.922 2270.01 603.551L2290.19 573.733C2266.93 557.998 2232.26 542.638 2196.96 550.663L2204.94 585.767ZM2270.21 603.684C2280.34 610.339 2288.81 617.486 2294.76 622.994C2297.72 625.734 2300.01 628.031 2301.54 629.607C2302.3 630.393 2302.86 630.997 2303.22 631.383C2303.4 631.576 2303.52 631.714 2303.59 631.793C2303.63 631.832 2303.65 631.856 2303.66 631.866C2303.66 631.87 2303.66 631.871 2303.66 631.868C2303.66 631.866 2303.66 631.864 2303.65 631.86C2303.65 631.858 2303.65 631.856 2303.65 631.854C2303.65 631.853 2303.65 631.851 2303.64 631.85C2303.64 631.848 2303.64 631.846 2317.12 619.92C2330.6 607.994 2330.6 607.992 2330.6 607.989C2330.6 607.988 2330.6 607.986 2330.6 607.985C2330.59 607.981 2330.59 607.978 2330.59 607.974C2330.58 607.966 2330.57 607.958 2330.56 607.948C2330.55 607.929 2330.53 607.906 2330.5 607.878C2330.45 607.824 2330.39 607.753 2330.31 607.668C2330.16 607.496 2329.95 607.263 2329.68 606.973C2329.14 606.394 2328.39 605.587 2327.42 604.588C2325.49 602.593 2322.72 599.823 2319.22 596.579C2312.24 590.118 2302.2 581.626 2289.98 573.599L2270.21 603.684ZM2303.46 631.634L2307.29 636.103L2334.62 612.674L2330.79 608.206L2303.46 631.634ZM2337.05 632.438L2339.61 627.332L2307.41 611.232L2304.85 616.339L2337.05 632.438ZM2340.03 626.425L2413.44 456.628L2380.39 442.342L2306.98 612.139L2340.03 626.425ZM2409.64 436.757L2407.73 434.842L2382.27 460.298L2384.19 462.213L2409.64 436.757ZM2395 447.57C2408.26 435.395 2408.25 435.388 2408.25 435.382C2408.24 435.38 2408.24 435.373 2408.23 435.368C2408.22 435.358 2408.21 435.347 2408.2 435.336C2408.18 435.312 2408.16 435.285 2408.13 435.254C2408.07 435.191 2408 435.114 2407.91 435.023C2407.74 434.839 2407.51 434.598 2407.22 434.303C2406.64 433.712 2405.84 432.904 2404.8 431.91C2402.74 429.923 2399.76 427.188 2395.88 423.956C2388.13 417.498 2376.74 409.019 2361.84 400.559C2331.99 383.615 2287.98 366.716 2231.06 366.375L2230.84 402.375C2280.51 402.672 2318.53 417.37 2344.06 431.865C2356.85 439.123 2366.48 446.324 2372.84 451.615C2376.01 454.258 2378.35 456.415 2379.84 457.852C2380.59 458.57 2381.12 459.106 2381.44 459.432C2381.6 459.595 2381.7 459.705 2381.75 459.758C2381.78 459.785 2381.79 459.798 2381.79 459.796C2381.79 459.795 2381.78 459.79 2381.78 459.782C2381.77 459.777 2381.77 459.772 2381.76 459.766C2381.76 459.763 2381.75 459.758 2381.75 459.756C2381.75 459.751 2381.74 459.745 2395 447.57ZM2626.94 399.695L2644.88 401.254L2646.74 379.796L2625.29 381.771L2626.94 399.695ZM2425.87 418.207L2424.22 400.282L2407.87 401.788V418.207H2425.87ZM2425.87 421.398H2407.87V421.679L2407.88 421.96L2425.87 421.398ZM2442.47 953.13L2424.47 953.692L2424.97 969.538L2440.75 971.048L2442.47 953.13ZM2575.88 965.897L2574.16 983.815L2592.33 985.554L2593.82 967.359L2575.88 965.897ZM2592.47 762.268L2590.63 744.364L2575.75 745.9L2574.53 760.806L2592.47 762.268ZM2709.93 750.14L2727.93 750.3L2728.11 730.167L2708.08 732.235L2709.93 750.14ZM2708.01 965.258L2690.01 965.098L2689.84 984.202L2708.92 983.235L2708.01 965.258ZM2846.53 958.237L2847.44 976.214L2862.96 975.427L2864.45 959.957L2846.53 958.237ZM2900.15 399.695L2918.07 401.415L2920.14 379.883L2898.59 381.763L2900.15 399.695ZM2709.93 416.292L2708.36 398.36L2691.93 399.794V416.292H2709.93ZM2709.93 618.643L2710.15 636.642L2727.93 636.42V618.643H2709.93ZM2607.79 619.92L2589.86 618.361L2588.14 638.167L2608.02 637.919L2607.79 619.92ZM2625.29 381.771L2424.22 400.282L2427.52 436.131L2628.59 417.619L2625.29 381.771ZM2407.87 418.207V421.398H2443.87V418.207H2407.87ZM2407.88 421.96L2424.47 953.692L2460.46 952.568L2443.86 420.837L2407.88 421.96ZM2440.75 971.048L2574.16 983.815L2577.59 947.979L2444.18 935.212L2440.75 971.048ZM2593.82 967.359L2610.41 763.731L2574.53 760.806L2557.94 964.434L2593.82 967.359ZM2594.32 780.173L2711.78 768.045L2708.08 732.235L2590.63 744.364L2594.32 780.173ZM2691.93 749.98L2690.01 965.098L2726.01 965.419L2727.93 750.3L2691.93 749.98ZM2708.92 983.235L2847.44 976.214L2845.62 940.26L2707.1 947.281L2708.92 983.235ZM2864.45 959.957L2918.07 401.415L2882.23 397.975L2828.61 956.517L2864.45 959.957ZM2898.59 381.763L2708.36 398.36L2711.49 434.224L2901.72 417.627L2898.59 381.763ZM2691.93 416.292V618.643H2727.93V416.292H2691.93ZM2709.7 600.645L2607.57 601.921L2608.02 637.919L2710.15 636.642L2709.7 600.645ZM2625.73 621.479L2644.88 401.254L2609.01 398.136L2589.86 618.361L2625.73 621.479ZM3275.17 399.695L3293.05 401.809L3295.58 380.395L3274.06 381.729L3275.17 399.695ZM2945.79 420.122L2944.68 402.156L2928.33 403.17L2927.8 419.543L2945.79 420.122ZM2928.56 965.258L2910.57 964.68L2909.97 983.371L2928.67 983.258L2928.56 965.258ZM3244.53 963.343L3244.64 981.343L3263.1 981.231L3262.52 962.781L3244.53 963.343ZM3238.79 779.503L3256.78 778.941L3256.06 755.927L3233.9 762.18L3238.79 779.503ZM3084.95 822.91L3067.01 821.426L3064.87 847.278L3089.84 840.234L3084.95 822.91ZM3091.97 738.012L3091.48 720.018L3075.36 720.454L3074.03 736.528L3091.97 738.012ZM3210.06 734.82L3210.55 752.813L3227.41 752.358L3228.05 735.499L3210.06 734.82ZM3212.61 667.157L3230.6 667.835L3231.34 648.175L3211.7 649.18L3212.61 667.157ZM3100.27 672.902L3082.33 671.461L3080.68 691.927L3101.19 690.878L3100.27 672.902ZM3107.29 585.45L3107.68 567.454L3090.71 567.082L3089.35 584.009L3107.29 585.45ZM3252.83 588.642L3252.44 606.637L3268.79 606.996L3270.71 590.755L3252.83 588.642ZM3274.06 381.729L2944.68 402.156L2946.91 438.087L3276.29 417.66L3274.06 381.729ZM2927.8 419.543C2924.93 508.918 2922.06 600.526 2919.18 692.126C2916.31 783.728 2913.44 875.322 2910.57 964.68L2946.55 965.837C2949.42 876.462 2952.29 784.854 2955.17 693.254C2958.04 601.652 2960.91 510.058 2963.78 420.7L2927.8 419.543ZM2928.67 983.258L3244.64 981.343L3244.42 945.344L2928.45 947.259L2928.67 983.258ZM3262.52 962.781L3256.78 778.941L3220.8 780.066L3226.54 963.906L3262.52 962.781ZM3233.9 762.18L3080.06 805.586L3089.84 840.234L3243.67 796.827L3233.9 762.18ZM3102.89 824.394L3109.91 739.495L3074.03 736.528L3067.01 821.426L3102.89 824.394ZM3092.46 756.005L3210.55 752.813L3209.58 716.827L3091.48 720.018L3092.46 756.005ZM3228.05 735.499L3230.6 667.835L3194.63 666.478L3192.07 734.141L3228.05 735.499ZM3211.7 649.18L3099.35 654.925L3101.19 690.878L3213.53 685.133L3211.7 649.18ZM3118.21 674.342L3125.23 586.891L3089.35 584.009L3082.33 671.461L3118.21 674.342ZM3106.9 603.446L3252.44 606.637L3253.22 570.646L3107.68 567.454L3106.9 603.446ZM3270.71 590.755L3293.05 401.809L3257.3 397.581L3234.95 586.528L3270.71 590.755ZM3590.05 399.695L3591.04 381.723L3571.34 380.631L3572.06 400.352L3590.05 399.695ZM3601.54 714.393L3585.06 721.641L3619.53 713.737L3601.54 714.393ZM3463.66 400.972L3480.14 393.723L3474.85 381.701L3461.78 383.07L3463.66 400.972ZM3329.61 415.015L3327.73 397.113L3314.56 398.493L3311.96 411.485L3329.61 415.015ZM3328.97 418.207L3311.32 414.677L3311.05 416.02L3310.99 417.388L3328.97 418.207ZM3304.08 965.258L3286.09 964.44L3285.18 984.591L3305.3 983.216L3304.08 965.258ZM3509.62 951.215L3510.85 969.173L3529.94 967.869L3527.47 948.895L3509.62 951.215ZM3471.96 661.412L3488.24 653.731L3454.11 663.731L3471.96 661.412ZM3616.22 967.173L3599.94 974.854L3605.26 986.119L3617.67 985.115L3616.22 967.173ZM3726.65 958.237L3728.1 976.178L3742.94 974.977L3744.55 960.176L3726.65 958.237ZM3786.02 410.547L3803.91 412.486L3805.96 393.623L3787.01 392.574L3786.02 410.547ZM3572.06 400.352L3583.55 715.05L3619.53 713.737L3608.04 399.038L3572.06 400.352ZM3618.02 707.145L3480.14 393.723L3447.18 408.22L3585.06 721.641L3618.02 707.145ZM3461.78 383.07L3327.73 397.113L3331.48 432.917L3465.53 418.874L3461.78 383.07ZM3311.96 411.485L3311.32 414.677L3346.62 421.737L3347.26 418.545L3311.96 411.485ZM3310.99 417.388L3286.09 964.44L3322.06 966.077L3346.95 419.025L3310.99 417.388ZM3305.3 983.216L3510.85 969.173L3508.39 933.257L3302.85 947.3L3305.3 983.216ZM3527.47 948.895L3489.81 659.092L3454.11 663.731L3491.77 953.535L3527.47 948.895ZM3455.68 669.092L3599.94 974.854L3632.5 959.493L3488.24 653.731L3455.68 669.092ZM3617.67 985.115L3728.1 976.178L3725.2 940.295L3614.77 949.232L3617.67 985.115ZM3744.55 960.176L3803.91 412.486L3768.12 408.607L3708.76 956.297L3744.55 960.176ZM3787.01 392.574L3591.04 381.723L3589.05 417.667L3785.02 428.519L3787.01 392.574Z" fill="#E56B1E"/>
<defs>
<filter id="filter0_d_5_448" x="0" y="0" width="4574.39" height="1580.33" filterUnits="userSpaceOnUse" color-interpolation-filters="sRGB">
<feFlood flood-opacity="0" result="BackgroundImageFix"/>
<feColorMatrix in="SourceAlpha" type="matrix" values="0 0 0 0 0 0 0 0 0 0 0 0 0 0 0 0 0 0 127 0" result="hardAlpha"/>
<feOffset dx="11" dy="64"/>
<feGaussianBlur stdDeviation="2"/>
<feComposite in2="hardAlpha" operator="out"/>
<feColorMatrix type="matrix" values="0 0 0 0 0.808333 0 0 0 0 0.767917 0 0 0 0 0.740972 0 0 0 1 0"/>
<feBlend mode="normal" in2="BackgroundImageFix" result="effect1_dropShadow_5_448"/>
<feBlend mode="normal" in="SourceGraphic" in2="effect1_dropShadow_5_448" result="shape"/>
</filter>
<filter id="filter1_i_5_448" x="239.961" y="173.428" width="4079.48" height="1190.34" filterUnits="userSpaceOnUse" color-interpolation-filters="sRGB">
<feFlood flood-opacity="0" result="BackgroundImageFix"/>
<feBlend mode="normal" in="SourceGraphic" in2="BackgroundImageFix" result="shape"/>
<feColorMatrix in="SourceAlpha" type="matrix" values="0 0 0 0 0 0 0 0 0 0 0 0 0 0 0 0 0 0 127 0" result="hardAlpha"/>
<feOffset dx="10" dy="-139"/>
<feComposite in2="hardAlpha" operator="arithmetic" k2="-1" k3="1"/>
<feColorMatrix type="matrix" values="0 0 0 0 0.976471 0 0 0 0 0.360784 0 0 0 0 0.0313726 0 0 0 1 0"/>
<feBlend mode="normal" in2="shape" result="effect1_innerShadow_5_448"/>
</filter>
<linearGradient id="paint0_linear_5_448" x1="343.199" y1="173.428" x2="4266" y2="1269.23" gradientUnits="userSpaceOnUse">
<stop stop-color="#FEB92F"/>
<stop offset="1" stop-color="#FA8841"/>
</linearGradient>
</defs>
</svg>
