<svg width="4575" height="1581" viewBox="0 0 4575 1581" fill="none" xmlns="http://www.w3.org/2000/svg">
<g filter="url(#filter0_d_7_3)">
<path d="M0.022262 262.833C-2.7743 -9.70126 258.547 -8.43605 422.976 4.17778C1434.89 20.3205 3578.84 55.5225 4059.35 67.1892C4539.86 78.8559 4586.36 281.079 4549.55 380.732L4363.71 1080.73C4320.61 1240.18 4099.19 1306.67 3993.87 1319.98L622.218 1511.95C348.173 1519.52 191.109 1412.06 146.833 1357.38C62.9412 1329.63 14.0043 616.117 0.022262 262.833Z" fill="#FEF2EA"/>
</g>
<path d="M239.981 325.561C237.479 92.3002 471.293 93.3831 618.414 104.179C1523.81 117.996 3442.09 148.125 3872.02 158.111C4301.96 168.096 4343.57 341.178 4310.63 426.471L4144.35 1025.6C4105.79 1162.07 3907.67 1218.98 3813.44 1230.37L796.685 1394.67C551.485 1401.15 410.954 1309.18 371.338 1262.38C296.277 1238.63 252.491 627.936 239.981 325.561Z" fill="#FDD868"/>
<path d="M485.314 1509.83L353.75 1222.39C440.211 1317.52 643.644 1296.5 714.807 1300.49C1417.03 1263.31 2917.72 1234.02 3442.24 1213.71C4097.89 1188.32 3950.81 1094.16 4047.55 968.067C4124.93 867.194 4293.86 553.189 4318.94 368.902L4508.45 547.151L4431.07 830.938C4340.51 1145.93 4399.79 1190.5 4047.55 1315.58C4047.55 1315.58 568.231 1538.11 485.314 1509.83Z" fill="#F4BF9A"/>
<g filter="url(#filter1_i_7_3)">
<path d="M239.981 380.302C237.479 165.792 471.293 166.788 618.414 176.716C1523.81 189.422 3442.09 217.129 3872.02 226.312C4301.96 235.495 4343.57 394.663 4310.63 473.099L4144.35 1024.07C4105.79 1149.56 3907.67 1201.9 3813.44 1212.38L796.685 1363.47C551.485 1369.43 410.954 1284.85 371.338 1241.82C296.277 1219.97 252.491 658.37 239.981 380.302Z" fill="url(#paint0_linear_7_3)"/>
</g>
<path d="M466.53 733.388H270.391V789.056H477.602L600.98 682.002L466.53 733.388Z" fill="#FB5F09"/>
<path d="M476.677 789.464L295.57 788.834L298.051 806.636L490.27 807.097L597.747 685.859L476.677 789.464Z" fill="#FFF0C6"/>
<ellipse cx="822.787" cy="179.525" rx="91.6231" ry="36.8002" fill="white"/>
<ellipse cx="646.426" cy="179.524" rx="34.6446" ry="13.9149" fill="white"/>
<path d="M2364.89 310.533C2382.42 275.785 2433.45 198.154 2497.31 165.609C2497 194.142 2470.08 263.073 2364.89 310.533Z" fill="#F76409"/>
<path d="M2365.71 310.377C2427.09 284.753 2489.12 189.914 2496.19 180.338C2498.49 219.142 2419.22 291.27 2365.71 310.377Z" fill="#FFF4C1"/>
<path d="M883.608 341.979C812.753 342.617 780.198 353.469 780.198 353.469L777.645 354.107V356.66L748.281 918.394L930.206 922.862L927.653 772.854L997.231 922.862L1161.28 903.074L1036.17 687.317C1050.85 677.742 1135.11 619.654 1136.39 511.775C1137.66 456.878 1115.32 414.748 1074.47 386.662C1032.98 357.937 973.613 343.894 898.29 342.617C893.183 341.979 888.076 341.979 883.608 341.979ZM934.036 474.114C945.526 474.114 960.846 476.029 974.89 481.774C992.763 490.072 1008.72 506.03 1008.72 532.84C1008.72 563.48 985.741 586.46 963.4 602.419C941.058 618.377 919.355 626.675 919.355 626.675L913.61 628.59L920.631 478.582V475.39L923.823 474.752C926.376 474.114 930.206 474.114 934.036 474.114ZM1536.99 357.299L1207.61 377.725C1201.87 556.459 1196.12 744.129 1190.38 922.862L1506.35 920.947L1500.61 737.107L1346.77 780.514L1353.79 695.615L1471.88 692.424L1474.44 624.76L1362.09 630.505L1369.11 543.054L1514.65 546.245L1536.99 357.299ZM1769.52 341.979C1744.63 341.979 1718.46 345.809 1692.92 354.745C1599.73 390.492 1559.51 497.732 1601.64 585.822C1628.45 638.804 1684.63 671.997 1731.22 697.53C1754.2 710.935 1775.27 721.787 1788.67 732C1795.06 737.107 1800.16 742.214 1802.08 746.682C1804.63 751.15 1805.27 754.98 1802.72 760.087C1801.44 763.917 1798.25 766.47 1794.42 767.747C1790.59 769.662 1785.48 770.3 1779.1 770.3C1766.97 769.662 1751.01 765.194 1734.42 757.534C1701.86 742.852 1665.48 717.957 1646.96 695.615L1643.13 691.147L1565.9 876.264L1567.81 878.179C1567.81 878.179 1650.16 945.204 1777.82 937.544C1832.72 934.352 1881.23 912.649 1913.79 878.817C1946.98 844.985 1963.58 798.387 1954 746.044C1943.15 687.955 1881.87 650.932 1828.89 619.654C1802.08 603.695 1776.55 589.652 1760.59 575.608C1752.29 568.587 1745.91 562.204 1743.35 555.182C1740.16 548.799 1740.16 543.054 1742.71 536.032C1745.27 530.287 1748.46 527.733 1752.93 525.819C1757.4 524.542 1763.14 523.904 1769.52 525.18C1782.93 527.733 1799.53 535.394 1815.48 544.33C1847.4 562.842 1877.4 587.737 1877.4 587.737L1881.87 590.929L1883.15 585.822L1935.49 404.535L1933.58 402.62C1916.98 386.024 1882.51 364.958 1839.1 352.83C1818.04 346.447 1793.78 342.617 1769.52 341.979ZM2433.66 357.299L2005.34 382.194V385.385L1985.55 548.799L2136.2 529.648L2099.81 922.862L2283.01 906.904L2272.8 518.159L2405.57 521.35L2433.66 357.299ZM2727.94 357.299L2542.19 366.235L2394.73 898.605L2579.21 922.224L2579.85 919.032L2596.45 804.132L2664.11 803.494L2678.15 922.862L2877.95 889.669L2727.94 357.299ZM2632.83 549.437L2651.98 703.275C2637.94 703.275 2623.26 703.914 2610.49 704.552L2632.83 549.437ZM3041.72 341.979C2970.87 342.617 2938.31 353.469 2938.31 353.469L2935.76 354.107V356.66L2906.4 918.394L3088.32 922.862L3085.77 772.854L3155.35 922.862L3319.4 903.074L3194.28 687.317C3208.97 677.742 3293.23 619.654 3294.5 511.775C3295.78 456.878 3273.44 414.748 3232.58 386.662C3191.09 357.937 3131.73 343.894 3056.4 342.617C3051.3 341.979 3046.19 341.979 3041.72 341.979ZM3092.15 474.114C3103.64 474.114 3118.96 476.029 3133 481.774C3150.88 490.072 3166.84 506.03 3166.84 532.84C3166.84 563.48 3143.86 586.46 3121.51 602.419C3099.17 618.377 3077.47 626.675 3077.47 626.675L3071.72 628.59L3078.75 478.582V475.39L3081.94 474.752C3084.49 474.114 3088.32 474.114 3092.15 474.114ZM3796.6 357.299L3368.28 382.194V385.385L3348.49 548.799L3499.14 529.648L3462.75 922.862L3645.96 906.904L3635.74 518.159L3768.52 521.35L3796.6 357.299Z" fill="white"/>
<path d="M883.608 341.979V323.979H883.527L883.446 323.979L883.608 341.979ZM780.198 353.469L784.564 370.931L785.234 370.763L785.89 370.545L780.198 353.469ZM777.645 354.107L773.279 336.644L759.645 340.053V354.107H777.645ZM777.645 356.66L795.62 357.6L795.645 357.13V356.66H777.645ZM748.281 918.393L730.306 917.454L729.34 935.934L747.839 936.388L748.281 918.393ZM930.206 922.862L929.764 940.856L948.523 941.317L948.204 922.555L930.206 922.862ZM927.653 772.854L943.982 765.28L909.656 773.16L927.653 772.854ZM997.231 922.862L980.902 930.436L986.404 942.298L999.387 940.732L997.231 922.862ZM1161.28 903.074L1163.44 920.944L1190.56 917.673L1176.85 894.044L1161.28 903.074ZM1036.17 687.317L1026.34 672.24L1012.03 681.57L1020.6 696.346L1036.17 687.317ZM1136.39 511.775L1118.39 511.357L1118.39 511.459L1118.39 511.562L1136.39 511.775ZM1074.47 386.662L1064.22 401.461L1064.25 401.478L1064.27 401.495L1074.47 386.662ZM898.29 342.617L896.057 360.478L897.017 360.598L897.985 360.614L898.29 342.617ZM974.89 481.774L982.47 465.447L982.091 465.272L981.705 465.114L974.89 481.774ZM963.4 602.419L973.862 617.066H973.862L963.4 602.419ZM919.355 626.675L925.047 643.751L925.418 643.628L925.783 643.488L919.355 626.675ZM913.61 628.59L895.629 627.749L894.402 653.966L919.302 645.667L913.61 628.59ZM920.631 478.582L938.612 479.423L938.631 479.003V478.582H920.631ZM920.631 475.39L917.101 457.74L902.631 460.634V475.39H920.631ZM923.823 474.752L927.353 492.402L927.773 492.318L928.189 492.214L923.823 474.752ZM883.446 323.979C847.121 324.307 820.346 327.254 802.414 330.201C793.449 331.674 786.699 333.146 782.075 334.288C779.764 334.859 777.985 335.347 776.727 335.712C776.098 335.894 775.599 336.045 775.229 336.16C775.044 336.218 774.892 336.267 774.771 336.305C774.711 336.325 774.659 336.342 774.615 336.356C774.592 336.364 774.572 336.37 774.554 336.376C774.545 336.379 774.537 336.382 774.529 336.385C774.524 336.386 774.519 336.388 774.517 336.389C774.511 336.39 774.506 336.392 780.198 353.469C785.89 370.545 785.885 370.547 785.88 370.548C785.878 370.549 785.873 370.55 785.87 370.551C785.864 370.553 785.859 370.555 785.854 370.557C785.843 370.56 785.835 370.563 785.829 370.565C785.817 370.569 785.812 370.57 785.816 370.569C785.823 370.567 785.862 370.555 785.932 370.533C786.074 370.488 786.344 370.406 786.744 370.29C787.543 370.059 788.86 369.694 790.708 369.238C794.403 368.325 800.22 367.044 808.251 365.725C824.31 363.086 849.24 360.289 883.77 359.978L883.446 323.979ZM775.832 336.006L773.279 336.644L782.01 371.569L784.564 370.931L775.832 336.006ZM759.645 354.107V356.66H795.645V354.107H759.645ZM759.669 355.721L730.306 917.454L766.257 919.333L795.62 357.6L759.669 355.721ZM747.839 936.388L929.764 940.856L930.648 904.867L748.723 900.399L747.839 936.388ZM948.204 922.555L945.65 772.547L909.656 773.16L912.209 923.168L948.204 922.555ZM911.324 780.427L980.902 930.436L1013.56 915.288L943.982 765.28L911.324 780.427ZM999.387 940.732L1163.44 920.944L1159.13 885.203L995.076 904.991L999.387 940.732ZM1176.85 894.044L1051.74 678.287L1020.6 696.346L1145.71 912.103L1176.85 894.044ZM1046 702.394C1061.36 692.376 1152.99 629.669 1154.39 511.988L1118.39 511.562C1117.23 609.638 1040.34 663.108 1026.34 672.24L1046 702.394ZM1154.38 512.194C1155.8 451.386 1130.66 403.449 1084.67 371.829L1064.27 401.495C1099.99 426.048 1119.53 462.371 1118.39 511.357L1154.38 512.194ZM1084.72 371.862C1039.03 340.235 975.535 325.924 898.595 324.619L897.985 360.614C971.691 361.864 1026.92 375.638 1064.22 401.461L1084.72 371.862ZM900.522 324.756C894.133 323.957 887.93 323.979 883.608 323.979V359.979C888.222 359.979 892.233 360 896.057 360.478L900.522 324.756ZM934.036 492.114C943.848 492.114 956.73 493.793 968.074 498.433L981.705 465.114C964.962 458.264 947.204 456.114 934.036 456.114V492.114ZM967.31 498.1C980.758 504.344 990.721 514.94 990.721 532.84H1026.72C1026.72 497.12 1004.77 475.8 982.47 465.447L967.31 498.1ZM990.721 532.84C990.721 554.028 974.606 572.294 952.937 587.771L973.862 617.066C996.876 600.627 1026.72 572.932 1026.72 532.84H990.721ZM952.937 587.771C942.761 595.04 932.635 600.626 925.012 604.4C921.221 606.277 918.101 607.681 915.971 608.599C914.907 609.057 914.094 609.393 913.573 609.604C913.312 609.71 913.124 609.784 913.015 609.827C912.96 609.849 912.925 609.863 912.91 609.868C912.902 609.871 912.9 609.872 912.903 609.871C912.904 609.871 912.906 609.87 912.91 609.868C912.912 609.867 912.915 609.867 912.917 609.866C912.919 609.865 912.921 609.864 912.921 609.864C912.924 609.863 912.926 609.862 919.355 626.675C925.783 643.488 925.786 643.487 925.788 643.486C925.789 643.486 925.792 643.485 925.794 643.484C925.798 643.482 925.802 643.481 925.807 643.479C925.816 643.476 925.826 643.471 925.838 643.467C925.862 643.458 925.891 643.447 925.925 643.433C925.994 643.407 926.083 643.372 926.193 643.329C926.412 643.242 926.713 643.123 927.089 642.971C927.841 642.666 928.899 642.228 930.219 641.659C932.856 640.523 936.559 638.854 940.986 636.662C949.8 632.298 961.697 625.755 973.862 617.066L952.937 587.771ZM913.663 609.599L907.917 611.514L919.302 645.667L925.047 643.751L913.663 609.599ZM931.59 629.432L938.612 479.423L902.651 477.74L895.629 627.749L931.59 629.432ZM938.631 478.582V475.39H902.631V478.582H938.631ZM924.161 493.041L927.353 492.402L920.293 457.101L917.101 457.74L924.161 493.041ZM928.189 492.214C927.849 492.299 927.754 492.295 928.021 492.264C928.265 492.236 928.666 492.202 929.268 492.175C930.539 492.117 932.027 492.114 934.036 492.114V456.114C931.179 456.114 924.679 455.984 919.457 457.289L928.189 492.214ZM1536.99 357.298L1554.87 359.412L1557.4 337.998L1535.88 339.333L1536.99 357.298ZM1207.61 377.725L1206.5 359.76L1190.15 360.774L1189.62 377.147L1207.61 377.725ZM1190.38 922.862L1172.39 922.284L1171.79 940.975L1190.49 940.862L1190.38 922.862ZM1506.35 920.947L1506.46 938.947L1524.92 938.835L1524.34 920.385L1506.35 920.947ZM1500.61 737.107L1518.6 736.545L1517.88 713.531L1495.72 719.783L1500.61 737.107ZM1346.77 780.513L1328.83 779.03L1326.69 804.881L1351.66 797.837L1346.77 780.513ZM1353.79 695.615L1353.3 677.622L1337.18 678.057L1335.85 694.132L1353.79 695.615ZM1471.88 692.424L1472.37 710.417L1489.23 709.961L1489.87 693.102L1471.88 692.424ZM1474.44 624.76L1492.42 625.439L1493.16 605.779L1473.52 606.784L1474.44 624.76ZM1362.09 630.505L1344.15 629.065L1342.5 649.53L1363.01 648.482L1362.09 630.505ZM1369.11 543.053L1369.5 525.058L1352.53 524.686L1351.17 541.613L1369.11 543.053ZM1514.65 546.245L1514.26 564.241L1530.61 564.599L1532.53 548.359L1514.65 546.245ZM1535.88 339.333L1206.5 359.76L1208.73 395.691L1538.11 375.264L1535.88 339.333ZM1189.62 377.147C1186.75 466.522 1183.88 558.13 1181 649.729C1178.13 741.331 1175.26 832.925 1172.39 922.284L1208.37 923.44C1211.24 834.065 1214.11 742.457 1216.99 650.858C1219.86 559.256 1222.73 467.662 1225.6 378.303L1189.62 377.147ZM1190.49 940.862L1506.46 938.947L1506.24 902.947L1190.27 904.862L1190.49 940.862ZM1524.34 920.385L1518.6 736.545L1482.62 737.669L1488.36 921.509L1524.34 920.385ZM1495.72 719.783L1341.88 763.19L1351.66 797.837L1505.49 754.43L1495.72 719.783ZM1364.71 781.997L1371.73 697.099L1335.85 694.132L1328.83 779.03L1364.71 781.997ZM1354.28 713.609L1472.37 710.417L1471.4 674.43L1353.3 677.622L1354.28 713.609ZM1489.87 693.102L1492.42 625.439L1456.45 624.081L1453.89 691.745L1489.87 693.102ZM1473.52 606.784L1361.17 612.529L1363.01 648.482L1475.35 642.737L1473.52 606.784ZM1380.03 631.946L1387.05 544.494L1351.17 541.613L1344.15 629.065L1380.03 631.946ZM1368.72 561.049L1514.26 564.241L1515.04 528.25L1369.5 525.058L1368.72 561.049ZM1532.53 548.359L1554.87 359.412L1519.12 355.185L1496.77 544.132L1532.53 548.359ZM1769.52 341.979L1770 323.985L1769.76 323.979H1769.52V341.979ZM1692.92 354.745L1686.98 337.756L1686.73 337.844L1686.48 337.939L1692.92 354.745ZM1601.64 585.822L1585.4 593.588L1585.49 593.77L1585.58 593.949L1601.64 585.822ZM1731.22 697.53L1740.29 681.982L1740.09 681.861L1739.87 681.745L1731.22 697.53ZM1788.67 732L1799.92 717.945L1799.75 717.811L1799.58 717.682L1788.67 732ZM1802.08 746.682L1785.54 753.772L1785.94 754.719L1786.45 755.612L1802.08 746.682ZM1802.72 760.087L1786.62 752.037L1786.05 753.181L1785.64 754.395L1802.72 760.087ZM1794.42 767.747L1788.73 750.671L1787.51 751.075L1786.37 751.647L1794.42 767.747ZM1779.1 770.3L1778.15 788.275L1778.63 788.3H1779.1V770.3ZM1734.42 757.534L1741.96 741.19L1741.89 741.157L1741.82 741.125L1734.42 757.534ZM1646.96 695.615L1660.83 684.131L1660.73 684.015L1660.63 683.901L1646.96 695.615ZM1643.13 691.147L1656.8 679.433L1637.78 657.239L1626.52 684.216L1643.13 691.147ZM1565.9 876.263L1549.28 869.332L1544.64 880.463L1553.17 888.991L1565.9 876.263ZM1567.81 878.179L1555.08 890.906L1555.73 891.557L1556.45 892.139L1567.81 878.179ZM1777.82 937.544L1776.78 919.574L1776.76 919.575L1776.75 919.576L1777.82 937.544ZM1913.79 878.817L1900.94 866.211L1900.88 866.273L1900.82 866.336L1913.79 878.817ZM1954 746.044L1971.71 742.805L1971.7 742.771L1971.7 742.738L1954 746.044ZM1828.89 619.654L1819.68 635.121L1819.71 635.137L1819.74 635.154L1828.89 619.654ZM1760.59 575.608L1772.48 562.096L1772.35 561.98L1772.22 561.868L1760.59 575.608ZM1743.35 555.182L1760.27 549.03L1759.92 548.058L1759.45 547.132L1743.35 555.182ZM1742.71 536.032L1726.27 528.721L1726.01 529.293L1725.8 529.88L1742.71 536.032ZM1752.93 525.819L1747.98 508.511L1746.89 508.824L1745.84 509.274L1752.93 525.819ZM1769.52 525.18L1765.99 542.831L1766.08 542.847L1766.16 542.862L1769.52 525.18ZM1815.48 544.33L1824.52 528.76L1824.4 528.691L1824.28 528.625L1815.48 544.33ZM1877.4 587.737L1865.91 601.589L1866.41 602.005L1866.94 602.384L1877.4 587.737ZM1881.87 590.928L1871.41 605.576L1892.92 620.942L1899.33 595.294L1881.87 590.928ZM1883.15 585.822L1865.85 580.829L1865.76 581.141L1865.69 581.456L1883.15 585.822ZM1935.49 404.535L1952.79 409.528L1955.73 399.32L1948.22 391.807L1935.49 404.535ZM1933.58 402.62L1946.3 389.892L1933.58 402.62ZM1839.1 352.83L1833.88 370.057L1834.07 370.113L1834.26 370.166L1839.1 352.83ZM1769.52 323.979C1742.81 323.979 1714.61 328.086 1686.98 337.756L1698.87 371.735C1722.31 363.531 1746.45 359.979 1769.52 359.979V323.979ZM1686.48 337.939C1583.19 377.556 1538.87 496.292 1585.4 593.588L1617.88 578.056C1580.15 499.172 1616.26 403.428 1699.37 371.551L1686.48 337.939ZM1585.58 593.949C1615.25 652.586 1676.54 688.091 1722.58 713.316L1739.87 681.745C1692.71 655.903 1641.65 625.021 1617.7 577.695L1585.58 593.949ZM1722.16 713.078C1746.6 727.34 1765.53 736.998 1777.77 746.318L1799.58 717.682C1785.01 706.576 1761.81 694.53 1740.29 681.982L1722.16 713.078ZM1777.43 746.056C1780.22 748.292 1782.39 750.25 1783.91 751.877C1785.57 753.657 1785.75 754.281 1785.54 753.772L1818.62 739.591C1814.75 730.562 1806.26 723.016 1799.92 717.945L1777.43 746.056ZM1786.45 755.612C1787 756.567 1786.47 755.984 1786.36 754.475C1786.31 753.718 1786.38 753.03 1786.5 752.497C1786.61 752.002 1786.72 751.83 1786.62 752.037L1818.82 768.137C1821.22 763.324 1822.71 757.854 1822.26 751.815C1821.83 745.998 1819.72 741.265 1817.71 737.751L1786.45 755.612ZM1785.64 754.395C1786.08 753.07 1786.85 752.057 1787.57 751.421C1788.22 750.841 1788.69 750.682 1788.73 750.671L1800.11 784.823C1807.73 782.282 1816.26 776.391 1819.79 765.779L1785.64 754.395ZM1786.37 751.647C1786.57 751.545 1786.25 751.753 1784.94 751.957C1783.63 752.162 1781.76 752.3 1779.1 752.3V788.3C1786.08 788.3 1794.72 787.72 1802.47 783.846L1786.37 751.647ZM1780.05 752.325C1770.96 751.847 1757.31 748.276 1741.96 741.19L1726.87 773.877C1744.71 782.111 1762.98 787.477 1778.15 788.275L1780.05 752.325ZM1741.82 741.125C1710.79 727.133 1677.01 703.669 1660.83 684.131L1633.1 707.099C1653.94 732.244 1692.93 758.571 1727.02 773.942L1741.82 741.125ZM1660.63 683.901L1656.8 679.433L1629.47 702.861L1633.3 707.329L1660.63 683.901ZM1626.52 684.216L1549.28 869.332L1582.51 883.195L1659.75 698.078L1626.52 684.216ZM1553.17 888.991L1555.08 890.906L1580.54 865.451L1578.62 863.536L1553.17 888.991ZM1567.81 878.179C1556.45 892.139 1556.45 892.143 1556.46 892.148C1556.46 892.15 1556.47 892.156 1556.47 892.16C1556.48 892.168 1556.5 892.177 1556.51 892.187C1556.53 892.207 1556.56 892.232 1556.6 892.26C1556.67 892.316 1556.76 892.389 1556.87 892.477C1557.09 892.652 1557.39 892.89 1557.78 893.184C1558.54 893.773 1559.62 894.592 1561.02 895.604C1563.8 897.628 1567.83 900.431 1573.03 903.73C1583.42 910.324 1598.54 918.929 1617.8 927.256C1656.31 943.905 1711.65 959.547 1778.9 955.511L1776.75 919.576C1716.33 923.201 1666.66 909.159 1632.09 894.211C1614.8 886.739 1601.35 879.067 1592.32 873.333C1587.8 870.468 1584.4 868.095 1582.18 866.483C1581.07 865.678 1580.26 865.063 1579.76 864.674C1579.51 864.48 1579.33 864.342 1579.23 864.264C1579.18 864.226 1579.15 864.202 1579.14 864.194C1579.14 864.19 1579.14 864.19 1579.14 864.194C1579.15 864.196 1579.15 864.199 1579.16 864.203C1579.16 864.205 1579.16 864.209 1579.16 864.21C1579.17 864.214 1579.17 864.218 1567.81 878.179ZM1778.87 955.513C1837.76 952.089 1890.71 928.761 1926.76 891.298L1900.82 866.336C1871.76 896.536 1827.68 916.614 1776.78 919.574L1778.87 955.513ZM1926.64 891.423C1963.75 853.594 1982.38 801.149 1971.71 742.805L1936.3 749.282C1944.77 795.625 1930.21 836.377 1900.94 866.211L1926.64 891.423ZM1971.7 742.738C1965.23 708.14 1943.95 681.039 1919.11 659.26C1894.35 637.548 1864.32 619.669 1838.04 604.153L1819.74 635.154C1846.44 650.916 1873.55 667.188 1895.38 686.33C1917.14 705.404 1931.92 725.859 1936.31 749.349L1971.7 742.738ZM1838.1 604.186C1810.06 587.498 1786.8 574.696 1772.48 562.096L1748.7 589.121C1766.29 604.607 1794.1 619.892 1819.68 635.121L1838.1 604.186ZM1772.22 561.868C1763.7 554.666 1760.99 551.026 1760.27 549.03L1726.44 561.333C1730.82 573.381 1740.88 582.508 1748.96 589.349L1772.22 561.868ZM1759.45 547.132C1758.88 545.984 1758.88 545.527 1758.87 545.385C1758.87 545.124 1758.89 544.224 1759.63 542.183L1725.8 529.88C1721.85 540.738 1721.49 551.712 1727.25 563.232L1759.45 547.132ZM1759.16 543.342C1759.44 542.723 1759.62 542.437 1759.67 542.362C1759.71 542.303 1759.66 542.386 1759.52 542.523C1759.37 542.66 1759.27 542.728 1759.28 542.722C1759.31 542.703 1759.51 542.581 1760.02 542.363L1745.84 509.274C1742.34 510.774 1738.39 512.933 1734.69 516.454C1730.98 519.99 1728.3 524.155 1726.27 528.721L1759.16 543.342ZM1757.87 543.126C1759.99 542.52 1762.81 542.194 1765.99 542.831L1773.05 507.53C1763.47 505.613 1754.8 506.563 1747.98 508.511L1757.87 543.126ZM1766.16 542.862C1776.56 544.844 1791.04 551.273 1806.69 560.035L1824.28 528.625C1808.01 519.514 1789.3 510.623 1772.89 507.498L1766.16 542.862ZM1806.45 559.901C1821.6 568.683 1836.47 579.097 1847.68 587.423C1853.25 591.564 1857.85 595.139 1861.04 597.667C1862.63 598.93 1863.87 599.929 1864.7 600.603C1865.12 600.941 1865.43 601.196 1865.63 601.363C1865.74 601.447 1865.81 601.508 1865.86 601.546C1865.88 601.565 1865.9 601.578 1865.9 601.585C1865.91 601.589 1865.91 601.591 1865.91 601.591C1865.91 601.592 1865.91 601.592 1865.91 601.591C1865.91 601.591 1865.91 601.591 1865.91 601.59C1865.91 601.59 1865.91 601.589 1877.4 587.737C1888.9 573.885 1888.9 573.884 1888.9 573.883C1888.89 573.882 1888.89 573.881 1888.89 573.88C1888.89 573.878 1888.89 573.876 1888.88 573.873C1888.88 573.868 1888.87 573.861 1888.86 573.852C1888.84 573.836 1888.81 573.813 1888.78 573.784C1888.71 573.727 1888.61 573.646 1888.48 573.542C1888.23 573.335 1887.87 573.038 1887.4 572.659C1886.46 571.899 1885.11 570.809 1883.39 569.448C1879.96 566.73 1875.07 562.924 1869.15 558.527C1857.37 549.779 1841.29 538.489 1824.52 528.76L1806.45 559.901ZM1866.94 602.384L1871.41 605.576L1892.33 576.281L1887.87 573.09L1866.94 602.384ZM1899.33 595.294L1900.61 590.188L1865.69 581.456L1864.41 586.563L1899.33 595.294ZM1900.44 590.815L1952.79 409.528L1918.2 399.542L1865.85 580.829L1900.44 590.815ZM1948.22 391.807L1946.3 389.892L1920.85 415.348L1922.76 417.263L1948.22 391.807ZM1946.3 389.892C1927.08 370.667 1889.67 348.27 1843.95 335.494L1834.26 370.166C1875.35 381.647 1906.88 401.381 1920.85 415.348L1946.3 389.892ZM1844.32 335.604C1821.6 328.719 1795.74 324.662 1770 323.985L1769.05 359.972C1791.82 360.572 1814.47 364.175 1833.88 370.057L1844.32 335.604ZM2433.66 357.298L2451.4 360.336L2455.22 338.015L2432.62 339.329L2433.66 357.298ZM2005.34 382.194L2004.29 364.224L1987.34 365.209V382.194H2005.34ZM2005.34 385.385L2023.21 387.549L2023.34 386.471V385.385H2005.34ZM1985.55 548.798L1967.68 546.635L1964.9 569.568L1987.82 566.655L1985.55 548.798ZM2136.2 529.648L2154.12 531.307L2156.19 508.962L2133.93 511.792L2136.2 529.648ZM2099.81 922.862L2081.89 921.203L2079.9 942.664L2101.37 940.794L2099.81 922.862ZM2283.01 906.904L2284.58 924.836L2301.45 923.366L2301.01 906.431L2283.01 906.904ZM2272.8 518.159L2273.23 500.164L2254.31 499.709L2254.81 518.631L2272.8 518.159ZM2405.57 521.35L2405.14 539.345L2420.69 539.719L2423.32 524.388L2405.57 521.35ZM2432.62 339.329L2004.29 364.224L2006.38 400.163L2434.71 375.268L2432.62 339.329ZM1987.34 382.194V385.385H2023.34V382.194H1987.34ZM1987.47 383.221L1967.68 546.635L2003.42 550.962L2023.21 387.549L1987.47 383.221ZM1987.82 566.655L2138.47 547.505L2133.93 511.792L1983.28 530.942L1987.82 566.655ZM2118.27 527.99L2081.89 921.203L2117.74 924.52L2154.12 531.307L2118.27 527.99ZM2101.37 940.794L2284.58 924.836L2281.45 888.971L2098.25 904.93L2101.37 940.794ZM2301.01 906.431L2290.79 517.686L2254.81 518.631L2265.02 907.376L2301.01 906.431ZM2272.37 536.153L2405.14 539.345L2406.01 503.355L2273.23 500.164L2272.37 536.153ZM2423.32 524.388L2451.4 360.336L2415.92 354.261L2387.83 518.313L2423.32 524.388ZM2727.94 357.298L2745.27 352.417L2741.38 338.631L2727.08 339.319L2727.94 357.298ZM2542.19 366.235L2541.32 348.256L2528.32 348.882L2524.84 361.43L2542.19 366.235ZM2394.73 898.605L2377.39 893.8L2371.84 913.821L2392.45 916.459L2394.73 898.605ZM2579.21 922.224L2576.92 940.078L2593.57 942.209L2596.86 925.754L2579.21 922.224ZM2579.85 919.032L2597.5 922.562L2597.59 922.086L2597.66 921.605L2579.85 919.032ZM2596.45 804.132L2596.28 786.133L2580.84 786.278L2578.63 801.559L2596.45 804.132ZM2664.11 803.494L2681.99 801.39L2680.1 785.342L2663.94 785.494L2664.11 803.494ZM2678.15 922.862L2660.28 924.965L2662.48 943.712L2681.1 940.618L2678.15 922.862ZM2877.95 889.669L2880.9 907.425L2900.73 904.131L2895.28 884.787L2877.95 889.669ZM2632.83 549.437L2650.69 547.213L2615.01 546.871L2632.83 549.437ZM2651.98 703.275V721.275H2672.36L2669.84 701.052L2651.98 703.275ZM2610.49 704.552L2592.67 701.986L2589.56 723.621L2611.39 722.529L2610.49 704.552ZM2727.08 339.319L2541.32 348.256L2543.05 384.214L2728.81 375.278L2727.08 339.319ZM2524.84 361.43L2377.39 893.8L2412.08 903.41L2559.53 371.04L2524.84 361.43ZM2392.45 916.459L2576.92 940.078L2581.5 904.369L2397.02 880.751L2392.45 916.459ZM2596.86 925.754L2597.5 922.562L2562.2 915.502L2561.56 918.693L2596.86 925.754ZM2597.66 921.605L2614.26 806.705L2578.63 801.559L2562.03 916.459L2597.66 921.605ZM2596.62 822.131L2664.28 821.493L2663.94 785.494L2596.28 786.133L2596.62 822.131ZM2646.23 805.597L2660.28 924.965L2696.03 920.759L2681.99 801.39L2646.23 805.597ZM2681.1 940.618L2880.9 907.425L2875 871.912L2675.2 905.105L2681.1 940.618ZM2895.28 884.787L2745.27 352.417L2710.62 362.18L2860.63 894.55L2895.28 884.787ZM2614.97 551.66L2634.12 705.499L2669.84 701.052L2650.69 547.213L2614.97 551.66ZM2651.98 685.275C2637.46 685.275 2622.4 685.934 2609.59 686.574L2611.39 722.529C2624.11 721.893 2638.42 721.275 2651.98 721.275V685.275ZM2628.31 707.118L2650.65 552.003L2615.01 546.871L2592.67 701.986L2628.31 707.118ZM3041.72 341.979V323.979H3041.64L3041.56 323.979L3041.72 341.979ZM2938.31 353.469L2942.68 370.931L2943.35 370.763L2944.01 370.545L2938.31 353.469ZM2935.76 354.107L2931.39 336.644L2917.76 340.053V354.107H2935.76ZM2935.76 356.66L2953.74 357.6L2953.76 357.13V356.66H2935.76ZM2906.4 918.393L2888.42 917.454L2887.46 935.934L2905.95 936.388L2906.4 918.393ZM3088.32 922.862L3087.88 940.856L3106.64 941.317L3106.32 922.555L3088.32 922.862ZM3085.77 772.854L3102.1 765.28L3067.77 773.16L3085.77 772.854ZM3155.35 922.862L3139.02 930.436L3144.52 942.298L3157.5 940.732L3155.35 922.862ZM3319.4 903.074L3321.55 920.944L3348.67 917.673L3334.97 894.044L3319.4 903.074ZM3194.28 687.317L3184.45 672.24L3170.15 681.57L3178.71 696.346L3194.28 687.317ZM3294.5 511.775L3276.51 511.357L3276.51 511.459L3276.5 511.562L3294.5 511.775ZM3232.58 386.662L3222.34 401.461L3222.36 401.478L3222.39 401.495L3232.58 386.662ZM3056.4 342.617L3054.17 360.478L3055.13 360.598L3056.1 360.614L3056.4 342.617ZM3133 481.774L3140.58 465.447L3140.21 465.272L3139.82 465.114L3133 481.774ZM3121.51 602.419L3131.98 617.066L3121.51 602.419ZM3077.47 626.675L3083.16 643.751L3083.53 643.628L3083.9 643.488L3077.47 626.675ZM3071.72 628.59L3053.74 627.749L3052.52 653.966L3077.42 645.667L3071.72 628.59ZM3078.75 478.582L3096.73 479.423L3096.75 479.003V478.582H3078.75ZM3078.75 475.39L3075.22 457.74L3060.75 460.634V475.39H3078.75ZM3081.94 474.752L3085.47 492.402L3085.89 492.318L3086.3 492.214L3081.94 474.752ZM3041.56 323.979C3005.24 324.307 2978.46 327.254 2960.53 330.201C2951.56 331.674 2944.81 333.146 2940.19 334.288C2937.88 334.859 2936.1 335.347 2934.84 335.712C2934.21 335.894 2933.71 336.045 2933.34 336.16C2933.16 336.218 2933.01 336.267 2932.89 336.305C2932.83 336.325 2932.77 336.342 2932.73 336.356C2932.71 336.364 2932.69 336.37 2932.67 336.376C2932.66 336.379 2932.65 336.382 2932.64 336.385C2932.64 336.386 2932.63 336.388 2932.63 336.389C2932.63 336.39 2932.62 336.392 2938.31 353.469C2944.01 370.545 2944 370.547 2944 370.548C2943.99 370.549 2943.99 370.55 2943.99 370.551C2943.98 370.553 2943.97 370.555 2943.97 370.557C2943.96 370.56 2943.95 370.563 2943.94 370.565C2943.93 370.569 2943.93 370.57 2943.93 370.569C2943.94 370.567 2943.98 370.555 2944.05 370.533C2944.19 370.488 2944.46 370.406 2944.86 370.29C2945.66 370.059 2946.98 369.694 2948.82 369.238C2952.52 368.325 2958.34 367.044 2966.37 365.725C2982.42 363.086 3007.36 360.289 3041.89 359.978L3041.56 323.979ZM2933.95 336.006L2931.39 336.644L2940.13 371.569L2942.68 370.931L2933.95 336.006ZM2917.76 354.107V356.66H2953.76V354.107H2917.76ZM2917.78 355.721L2888.42 917.454L2924.37 919.333L2953.74 357.6L2917.78 355.721ZM2905.95 936.388L3087.88 940.856L3088.76 904.867L2906.84 900.399L2905.95 936.388ZM3106.32 922.555L3103.77 772.547L3067.77 773.16L3070.32 923.168L3106.32 922.555ZM3069.44 780.427L3139.02 930.436L3171.68 915.288L3102.1 765.28L3069.44 780.427ZM3157.5 940.732L3321.55 920.944L3317.24 885.203L3153.19 904.991L3157.5 940.732ZM3334.97 894.044L3209.86 678.287L3178.71 696.346L3303.83 912.103L3334.97 894.044ZM3204.12 702.394C3219.48 692.376 3311.11 629.669 3312.5 511.988L3276.5 511.562C3275.34 609.638 3198.45 663.108 3184.45 672.24L3204.12 702.394ZM3312.5 512.194C3313.91 451.386 3288.77 403.449 3242.78 371.829L3222.39 401.495C3258.1 426.048 3277.65 462.371 3276.51 511.357L3312.5 512.194ZM3242.83 371.862C3197.15 340.235 3133.65 325.924 3056.71 324.619L3056.1 360.614C3129.81 361.864 3185.04 375.638 3222.34 401.461L3242.83 371.862ZM3058.64 324.756C3052.25 323.957 3046.05 323.979 3041.72 323.979V359.979C3046.34 359.979 3050.35 360 3054.17 360.478L3058.64 324.756ZM3092.15 492.114C3101.96 492.114 3114.85 493.793 3126.19 498.433L3139.82 465.114C3123.08 458.264 3105.32 456.114 3092.15 456.114V492.114ZM3125.42 498.1C3138.87 504.344 3148.84 514.94 3148.84 532.84H3184.84C3184.84 497.12 3162.88 475.8 3140.58 465.447L3125.42 498.1ZM3148.84 532.84C3148.84 554.028 3132.72 572.294 3111.05 587.771L3131.98 617.066C3154.99 600.627 3184.84 572.932 3184.84 532.84H3148.84ZM3111.05 587.771C3100.88 595.04 3090.75 600.626 3083.13 604.4C3079.34 606.277 3076.22 607.681 3074.09 608.599C3073.02 609.057 3072.21 609.393 3071.69 609.604C3071.43 609.71 3071.24 609.784 3071.13 609.827C3071.08 609.849 3071.04 609.863 3071.02 609.868C3071.02 609.871 3071.02 609.872 3071.02 609.871C3071.02 609.871 3071.02 609.87 3071.03 609.868C3071.03 609.867 3071.03 609.867 3071.03 609.866C3071.03 609.865 3071.04 609.864 3071.04 609.864C3071.04 609.863 3071.04 609.862 3077.47 626.675C3083.9 643.488 3083.9 643.487 3083.9 643.486C3083.9 643.486 3083.91 643.485 3083.91 643.484C3083.91 643.482 3083.92 643.481 3083.92 643.479C3083.93 643.476 3083.94 643.471 3083.95 643.467C3083.98 643.458 3084.01 643.447 3084.04 643.433C3084.11 643.407 3084.2 643.372 3084.31 643.329C3084.53 643.242 3084.83 643.123 3085.2 642.971C3085.96 642.666 3087.01 642.228 3088.33 641.659C3090.97 640.523 3094.67 638.854 3099.1 636.662C3107.92 632.298 3119.81 625.755 3131.98 617.066L3111.05 587.771ZM3071.78 609.599L3066.03 611.514L3077.42 645.667L3083.16 643.751L3071.78 609.599ZM3089.71 629.432L3096.73 479.423L3060.77 477.74L3053.74 627.749L3089.71 629.432ZM3096.75 478.582V475.39H3060.75V478.582H3096.75ZM3082.28 493.041L3085.47 492.402L3078.41 457.101L3075.22 457.74L3082.28 493.041ZM3086.3 492.214C3085.96 492.299 3085.87 492.295 3086.14 492.264C3086.38 492.236 3086.78 492.202 3087.38 492.175C3088.65 492.117 3090.14 492.114 3092.15 492.114V456.114C3089.29 456.114 3082.79 455.984 3077.57 457.289L3086.3 492.214ZM3796.6 357.298L3814.34 360.336L3818.17 338.015L3795.56 339.329L3796.6 357.298ZM3368.28 382.194L3367.24 364.224L3350.28 365.209V382.194H3368.28ZM3368.28 385.385L3386.15 387.549L3386.28 386.471V385.385H3368.28ZM3348.49 548.798L3330.62 546.635L3327.85 569.568L3350.76 566.655L3348.49 548.798ZM3499.14 529.648L3517.06 531.307L3519.13 508.962L3496.87 511.792L3499.14 529.648ZM3462.75 922.862L3444.83 921.203L3442.84 942.664L3464.32 940.794L3462.75 922.862ZM3645.96 906.904L3647.52 924.836L3664.39 923.366L3663.95 906.431L3645.96 906.904ZM3635.74 518.159L3636.17 500.164L3617.25 499.709L3617.75 518.631L3635.74 518.159ZM3768.52 521.35L3768.08 539.345L3783.63 539.719L3786.26 524.388L3768.52 521.35ZM3795.56 339.329L3367.24 364.224L3369.32 400.163L3797.65 375.268L3795.56 339.329ZM3350.28 382.194V385.385H3386.28V382.194H3350.28ZM3350.41 383.221L3330.62 546.635L3366.36 550.962L3386.15 387.549L3350.41 383.221ZM3350.76 566.655L3501.41 547.505L3496.87 511.792L3346.22 530.942L3350.76 566.655ZM3481.22 527.99L3444.83 921.203L3480.68 924.52L3517.06 531.307L3481.22 527.99ZM3464.32 940.794L3647.52 924.836L3644.39 888.971L3461.19 904.93L3464.32 940.794ZM3663.95 906.431L3653.74 517.686L3617.75 518.631L3627.96 907.376L3663.95 906.431ZM3635.31 536.153L3768.08 539.345L3768.95 503.355L3636.17 500.164L3635.31 536.153ZM3786.26 524.388L3814.34 360.336L3778.86 354.261L3750.77 518.313L3786.26 524.388Z" fill="#E56B1E"/>
<defs>
<filter id="filter0_d_7_3" x="0" y="0" width="4574.39" height="1580.33" filterUnits="userSpaceOnUse" color-interpolation-filters="sRGB">
<feFlood flood-opacity="0" result="BackgroundImageFix"/>
<feColorMatrix in="SourceAlpha" type="matrix" values="0 0 0 0 0 0 0 0 0 0 0 0 0 0 0 0 0 0 127 0" result="hardAlpha"/>
<feOffset dx="11" dy="64"/>
<feGaussianBlur stdDeviation="2"/>
<feComposite in2="hardAlpha" operator="out"/>
<feColorMatrix type="matrix" values="0 0 0 0 0.808333 0 0 0 0 0.767917 0 0 0 0 0.740972 0 0 0 1 0"/>
<feBlend mode="normal" in2="BackgroundImageFix" result="effect1_dropShadow_7_3"/>
<feBlend mode="normal" in="SourceGraphic" in2="effect1_dropShadow_7_3" result="shape"/>
</filter>
<filter id="filter1_i_7_3" x="239.961" y="173.428" width="4079.48" height="1190.34" filterUnits="userSpaceOnUse" color-interpolation-filters="sRGB">
<feFlood flood-opacity="0" result="BackgroundImageFix"/>
<feBlend mode="normal" in="SourceGraphic" in2="BackgroundImageFix" result="shape"/>
<feColorMatrix in="SourceAlpha" type="matrix" values="0 0 0 0 0 0 0 0 0 0 0 0 0 0 0 0 0 0 127 0" result="hardAlpha"/>
<feOffset dx="10" dy="-139"/>
<feComposite in2="hardAlpha" operator="arithmetic" k2="-1" k3="1"/>
<feColorMatrix type="matrix" values="0 0 0 0 0.976471 0 0 0 0 0.360784 0 0 0 0 0.0313726 0 0 0 1 0"/>
<feBlend mode="normal" in2="shape" result="effect1_innerShadow_7_3"/>
</filter>
<linearGradient id="paint0_linear_7_3" x1="343.199" y1="173.428" x2="4266" y2="1269.23" gradientUnits="userSpaceOnUse">
<stop stop-color="#FEB92F"/>
<stop offset="1" stop-color="#FA8841"/>
</linearGradient>
</defs>
</svg>
